<!--?xml version="1.0" encoding="UTF-8"?-->
<svg version="1" viewBox="0 0 2e3 1042" xmlns="http://www.w3.org/2000/svg" style="">
<g fill="none" stroke="#fff" stroke-width="3">
<path class="vZZIoKfC_0 zsjErlTW_0" d="M949.6.8c-.2.4.2 5 1 10.2.8 5.2 1.5 10.4 1.6 11.5.1 1.1-2.3 7.5-5.2 14.2-2.9 6.8-5.1 12.5-4.8 12.9.4.3 4.5.9 9.3 1.2l8.7.7 5.3 12.4c2.9 6.8 5.8 12.8 6.5 13.5 2.2 2.2 3-2 3-17.4.1-16.8.4-18 6.6-27 2.9-4.2 6.4-10.4 6.4-11.3 0-.2-4.2-1-9.2-1.6-13-1.7-14.8-2.1-14.8-3.4C964 15.2 952.2 0 951 0c-.5 0-1.1.4-1.4.8zm23.2 21.6c4.5.7 8.5 1.6 8.8 1.9.3.3-1.6 4-4.1 8.2l-4.7 7.7.1 15.1c.1 8.3-.2 14.8-.6 14.3-.4-.4-2.7-5.3-5-10.9-2.5-6.2-4.8-10.4-6-10.8-1-.4-4.6-.8-8-.8-3.5-.1-6.3-.5-6.3-1s1.7-4.6 3.9-9.2c2.9-6.3 4.1-8 4.6-6.7.5 1.2-.6 4.2-2.9 8.8-3.3 6.3-3.5 7-1.7 7 2.2 0 7.8-6 8.6-9.3.3-1.2.5-5.4.3-9.2-.3-6.3-.5-7-2.4-7.3-1.6-.2-2.3-1.2-2.8-4-1.1-6.7-.7-6.8 4.7-.9l5.2 5.8 8.3 1.3z"></path>
<path class="vZZIoKfC_1 zsjErlTW_1" d="M1041.8 64.2c.8 5.1 1.5 11.5 1.6 14.2l.1 5-6.3 3.5c-3.9 2.3-6.1 4.2-6 5.1.2.9 3.8 2.7 8.8 4.5 4.7 1.6 9 3.3 9.7 3.7.6.5 3.9 6 7.4 12.3 3.4 6.4 6.7 11.4 7.3 11.2 1.4-.5 2.4-8.6 2.5-20.8.1-12 1.2-15.3 6.8-20.6 2.5-2.3 4.2-4.6 3.8-5.2-.3-.6-3-1.1-5.8-1.1-9.8 0-11.8-1.1-20.3-11.5-4.3-5.2-8.5-9.5-9.4-9.5-1.5 0-1.6.7-.2 9.2zm8 10.3c.3 4.1 0 6.5-.6 6.5-1 0-2.1-4.1-3.7-13.5l-.7-4 2.3 2.2c1.8 1.8 2.4 3.6 2.7 8.8zm16.5 4.5h6.1l-4.2 4.3-4.1 4.2.6 15.5c.3 8.5.2 15.1-.3 14.7-.4-.4-3.3-5.3-6.4-10.9l-5.5-10.2-6.8-2c-3.8-1.2-6.9-2.6-6.9-3.1-.1-.6 1.4-1.9 3.2-2.9 3.6-2.1 3.5-2.3 1.4 2.9-1.3 3.1 2.4 1.4 6.5-3 3.7-4 4.1-5 4.1-9.6v-5.1l3.1 2.6c2.6 2.2 4 2.6 9.2 2.6z"></path>
<path class="vZZIoKfC_2 zsjErlTW_2" d="M827.5 143.9c-4.9 2.2-6.5 4-10.4 11.6-5.1 9.8-4 12.3 2.9 6.9 3.8-3 4.9-3.4 8-2.9 6.3 1.2 8.9 3.6 5.4 4.9-1.3.5-1.5 1.5-.9 5.3 1.1 7.4 6.2 21.4 9.6 26.2l3.1 4.4-3.1 2.4c-4.1 3.2-4.9 5-11.5 23.6-9.7 27.2-18.2 45.3-23.4 50-1.8 1.7-2.3 1.6-9.8-.9-6.4-2.2-9.8-2.8-17.5-2.8-9-.1-9.8.1-13.2 2.7-2 1.5-4.5 4.2-5.4 6-2.2 4.1-2.2 13.2 0 17.3 1.9 3.6 8.7 8.9 16.5 12.8 2.9 1.5 6.2 3.6 7.4 4.8 1.2 1.2 5.5 3.6 9.7 5.3 7.7 3.3 17.5 8 22.1 10.7 6.8 3.9 10 6.1 10 6.8 0 .4 1.4 1 3.1 1.4 1.8.3 6.1 3.2 9.8 6.4 3.6 3.2 7.7 6.5 9.1 7.5 1.4.9 4.3 2.9 6.5 4.5 15.4 10.8 36.9 17.5 57 17.6 15.3.1 22.5-2.8 27.6-11 1.9-3.2 2-3.9.9-8.2-1.4-5.8-7.8-14.2-13.8-18.3-2.5-1.7-8.4-5-13.3-7.4-10.7-5.4-10.4-4.5-9.6-28.3.4-12.7 1.2-20.6 3.5-32.7 4.9-25.5 5.8-35.8 4.4-48.5-.7-6-1.8-12.5-2.6-14.7-5-13.9-14.3-27.5-25.1-36.3-3.7-3-8.1-6.8-9.8-8.5-1.8-1.6-6.1-5.1-9.7-7.7-3.6-2.6-7.1-5.2-7.9-5.9-.7-.7-4.5-2.5-8.3-4.1-8.3-3.3-15.4-3.6-21.3-.9zm22.3 5.2c15.6 8.8 38.7 29 46.9 40.9 9.3 13.7 12.6 24.5 12.5 41.5 0 15.4-5.5 48.4-8 48.5-.4 0-7.4-1.6-15.5-3.7-14.3-3.6-15-3.7-16.2-1.9-1.8 2.4-3.2 9.2-4.1 19.7l-.7 8.6 11.1 3.7c6.1 2 13.9 4.2 17.4 4.9l6.3 1.3 1.2 7.4c.7 4.1 1.5 8 1.7 8.5.2.6 4.5 3.3 9.5 6 22.8 12.4 31.2 23.9 22.9 31.8-5 4.6-10.7 6.7-20 7.2l-8.3.5 8.6-1.9c10.4-2.3 17.9-5.4 17.9-7.5 0-2 .6-2-7.6.8-9 3.2-20.7 4.1-30.9 2.6-13-2-17.8-4.3-27-13-12.4-11.6-28.3-21.6-62.3-39.2-11-5.7-15.7-7.7-16.5-6.9-.8.8-.5 1.5.9 2.6 3.4 2.6.3 1.6-8.5-2.8-4.7-2.3-10.7-6.2-13.3-8.8-4.5-4.2-4.8-4.9-4.8-9.5 0-15.5 17.9-20.1 38.2-9.8l5.2 2.7 3.3-3.8c5.4-6.2 16.9-30.7 23.7-50.3 6.1-17.4 10.1-25.2 13-25.2.8 0 1.9-.7 2.6-1.5 1-1.2.5-2.6-2.8-7.5-4.5-6.7-7.8-14.7-9.4-22.8-1-4.8-.9-5.5 1.1-7.5 1.1-1.3 2.1-2.6 2.1-3 0-1.6-5.5-4-12.1-5.1l-7.2-1.2 3.4-3.8c1.8-2.2 4.7-4.5 6.4-5.3 4.7-2.1 12.6-1 19.3 2.8zm32.8 131.4c1.5 2.3 2.1 2.4 6.8 1.9 4.2-.5 5.5-.3 7.4 1.4 1.3 1.2 2.9 2.3 3.5 2.5 1.3.4-1.8 21.6-3.4 23.2-1.1 1-.8-1.5.7-6.6.2-.9-.3-2.2-1.2-3-2.2-1.8-4.6-.1-5.7 4-1.2 4.9-4.1 3.8-4.5-1.6-.2-3.1-.8-4.4-2.2-4.8-2.7-.8-3.7 0-4.5 3.4l-.6 3-4.2-1.5c-7.1-2.5-9-7.3-3.5-8.9 4.3-1.3 4.6-3.1.8-5-4-2.1-3.4-3.9 1.6-4.5 4.6-.7 6.4-1.6 6.4-3.5 0-.7-.6-1.6-1.2-1.8-.8-.3-.6-.6.4-.6 1-.1 2.5 1 3.4 2.4zM828 332.8c18.2 10.3 38 24.5 38 27.3 0 1.6-2.9-.4-18.8-12.3-8-6-15.6-11.4-16.8-11.8-1.7-.7-11.4-6.7-19-11.8-3.7-2.5 5.3 2.2 16.6 8.6z"></path>
<path class="vZZIoKfC_3 zsjErlTW_3" d="M849 153.9c0 .5 4.8 5.1 10.8 10.2 31.7 27.2 40.6 43 41.9 73.9.3 10 .1 14.4-1.5 22-2 9.9-2 11.9.4 9.9 3.7-3.1 6.1-25 4.4-41.2-2.3-22-9.5-36.4-26.4-53.2-14.5-14.4-29.6-25.4-29.6-21.6z"></path>
<path class="vZZIoKfC_4 zsjErlTW_4" d="M1103.1 155.2c-.6 2.9-1.8 10.5-2.7 16.8-2.5 17.4-2 16.7-16.4 26.2-6.9 4.6-12.5 9-12.5 9.8 0 .9 4.9 4.1 12.2 7.9 14.1 7.5 12.5 4.4 16.9 31.4 1.5 9.2 3.3 17.5 4 18.5 1.1 1.6 1.3 1.5 2.2-.9.6-1.4 2.9-10.8 5.2-21 2.2-10.1 4.4-19 4.9-19.8.4-.8 6.2-4.2 13-7.7 6.8-3.4 12.8-6.7 13.4-7.3.7-.7-.4-2.3-3.4-5.1-2.4-2.2-4.9-4-5.5-4-.7 0-1.4-.7-1.8-1.5-.3-.8-1.2-1.5-2-1.5s-2.1-.8-2.8-1.8c-.7-.9-2.2-2.2-3.3-2.8-3.1-1.7-5.2-6-10.6-21.9-7.5-22.3-9-24.3-10.8-15.3zm8.7 20.4c5 15.4 5.4 16.3 9 18.7 5.6 3.7 16.2 12.6 16.2 13.7 0 .4-5.1 3.4-11.2 6.6-6.2 3.1-11.4 5.8-11.6 5.9-.1.1-2 8-4.2 17.5-2.1 9.4-4.1 17.4-4.3 17.6-.2.2-1.6-7.6-3.2-17.4l-2.8-17.8-11.4-5.9c-6.2-3.2-11.3-6.1-11.3-6.4 0-.3 3.7-3.1 8.3-6.2 15.1-10.2 14.7-10.1 9.3-3.5-3.3 4.1-4.4 6.2-3.7 6.9 1.2 1.2 5.5-1.6 12.3-7.9l4.3-4-.7-11.5c-.4-6.3-1-14.3-1.4-17.9-.3-3.9-.2-6.1.3-5.5.5.5 3.3 8.3 6.1 17.1z"></path>
<path class="vZZIoKfC_5 zsjErlTW_5" d="M1003.9 167.6l-1.4 10.7-8.4 5.1c-4.7 2.8-8.6 5.6-8.8 6.2-.5 1.4 7.8 5.4 11.2 5.4 3.5 0 4.8 3.5 6.9 18.3 1.9 12.8 2.3 14.7 3.7 14.7 1.1 0 1.4-1.4 4.3-18.8 1.2-7.8 2.5-14.5 2.8-14.8.3-.3 3.5-.9 7.1-1.4 3.5-.5 7.7-1.4 9.2-2 3.3-1.3 2.4-2.8-3.5-5.6-2.2-1-4-2.2-4-2.7 0-.4-.6-.7-1.4-.7-2.2 0-5.3-5-9.4-15.2-5.2-12.9-6.5-12.8-8.3.8zm9.1 11.5c0 .3 2.5 2.6 5.6 4.9 3 2.3 5.3 4.4 5 4.7-.3.3-3.4 1.1-6.8 1.7l-6.3 1.1-1.3 9c-.7 4.9-1.6 9.3-2.1 9.8-.4.4-1.4-3.3-2-8.3l-1.3-9 3.1-3.6c2.7-3 3.1-4.2 3.1-9.2.1-5.2.2-5.5 1.5-3.8.8 1.1 1.5 2.3 1.5 2.7zm-12.6 8c-2.4 2.5-4.6 3.9-5.9 3.7-1.1-.2-2-.7-2-1.2 0-1.2 10.7-7.7 11.4-7 .3.2-1.3 2.2-3.5 4.5z"></path>
<path class="vZZIoKfC_6 zsjErlTW_6" d="M1491.3 186.1c-4 1.5-5.3 2.5-5.3 4.1 0 2 22.6 47.2 27.1 54 1.3 2.1 3 4 3.6 4.2.7.3 4.1-1.4 7.5-3.7 3.5-2.3 8-5.1 10.1-6.2 4.5-2.4 3.8-3.3 10.8 12.8 2.9 6.4 5.7 12.1 6.3 12.6.8.6 3.6-.4 8.1-2.9 5.3-2.8 6.9-4.2 6.7-5.6-.5-2.6-25.5-52.6-28.2-56.4-2.5-3.6-2.1-3.6-15.9 2.2-11 4.6-9.8 5.2-17.5-7.8-2.9-4.9-6-9-6.7-9.1-.8-.1-3.8.7-6.6 1.8zm7 4.1c.8 1.3 3.3 5.5 5.6 9.5 2.4 4 4.9 7.7 5.7 8.4 1.1.9 3.8.2 13.1-3.4 6.5-2.5 12.1-4.3 12.6-4 .9.6 18.9 37.6 24.7 50.9l1.8 4.1-4 2.3c-2.2 1.2-4.3 1.8-4.8 1.4-.4-.5-2.6-5.2-4.9-10.4-4.9-11.4-7.6-16-9.4-16-.7 0-5.7 2.5-11.1 5.6-8.2 4.7-10 5.4-11.1 4.3-1.3-1.5-26.5-50.8-26.5-52 0-.7 4.3-2.6 6.2-2.8.4-.1 1.4.9 2.1 2.1z"></path>
<path class="vZZIoKfC_7 zsjErlTW_7" d="M1521.7 211.1c-6.7 5-6.9 6.2-2.7 13.6 3.6 6.2 5 6.5 10.8 2.3 6.5-4.6 6.7-5.8 2.9-13.1-1.9-3.5-3.8-6.4-4.4-6.6-.5-.2-3.5 1.5-6.6 3.8zm8 5.3c1.9 4.2 1.3 6-2.6 8.1-3.1 1.5-3.1 1.5-5.1-1.7-2.6-4.2-2.5-5.6.3-7.9 3.3-2.8 5.5-2.3 7.4 1.5z"></path>
<path class="vZZIoKfC_8 zsjErlTW_8" d="M600.5 186.3c-1.1.7-2.2 1.5-2.5 1.8-.3.3-3.4 2.1-7 4.1-3.6 2-8.5 5.1-10.9 6.8-2.4 1.8-7.9 5-12.1 7.2-4.3 2.2-9.3 5.2-11.1 6.7l-3.3 2.8 1.8 2.9c3.3 5.1 5.9 7.5 12.9 11.5 3.7 2.2 7.5 5.2 8.4 6.7 1 1.5 2.4 3.3 3.1 4.1 2.9 3 3.3 6.1 1.3 8.7-2.5 3.2-4.4 12.2-3.6 16.8 1.1 5.4 3.6 7 11.8 7.4 8.9.3 11.5-.9 14.4-6.8 2.9-5.9 3.6-18.2 1.2-20.2-.9-.7-5.1-5.4-9.4-10.3-4.3-5-9.3-10.5-11.2-12.4-1.9-1.9-3.2-3.7-3.1-4 .3-.8 10.5-9.8 19.1-16.8 11.7-9.7 11.9-10 9.4-12.5-.8-.7-1.9-2.3-2.6-3.6-1.3-2.4-3.5-2.7-6.6-.9zm5.3 5.8c.2.9-4.3 5.4-11.5 11.6-6.5 5.6-13.1 11.5-14.7 13.2l-2.9 3 2.9 3.8c1.6 2.1 7.6 9 13.5 15.4l10.6 11.6-.8 6.2c-.8 6.7-2.5 10.2-6.6 12.8-4.9 3.2-15.3.9-15.3-3.5 0-1-.5-2.3-1-2.8-.8-.8 0-3.2 2.5-8.2 1.9-3.9 3.5-8.1 3.5-9.5 0-4.7-9.9-15.6-17.8-19.6-4.1-2.1-9.2-7.4-9.2-9.4 0-1.7 42.1-26.7 44.5-26.4 1.1.1 2.1.9 2.3 1.8z"></path>
<path class="vZZIoKfC_9 zsjErlTW_9" d="M1737 218.6c-15.4 6.2-33.3 12.4-35.6 12.4-1.7 0-1.7.2.7 9.3.5 2 2.6 5.3 4.5 7.2 3.5 3.5 6.6 9.5 7.8 15.2.6 2.5.2 3.5-2.3 6-2.2 2.3-3.1 4.2-3.6 8.6-.9 7.4-.2 9.8 3.4 12 7.3 4.3 15.3.2 18.4-9.4 1-2.8 1.7-6 1.7-7.1 0-1.1-2.8-8.3-6.2-16.1-5.8-13.1-6.1-14.1-4.4-15.1 1-.6 3.9-2.4 6.5-4.1 8.1-5.1 19.1-10.4 20.6-9.9 2.1.9 5.5 6.8 5.5 9.6 0 1.4-1.6 5.9-3.5 10.1-5.5 11.8-4.6 18.5 2.8 22 4.2 2 7.5 1.3 10.9-2.5 3.1-3.3 4.3-8.8 4.1-18.8 0-5.1-.8-8.4-3.7-15.3-2-4.8-3.6-9.8-3.6-11.2 0-1.4-.8-2.9-1.9-3.5-1.1-.5-2.3-1.9-2.6-3-1-3.1-4.5-2.4-19.5 3.6zm18.8 2.9c.7 2.2 3.1 8 5.3 12.8 3.9 8.4 4.1 9.2 3.7 17-.4 9.4-2.1 13.7-6 15.1-2.3.8-3.2.6-5.4-1.5-4.5-4.2-4.6-5.1-.9-12.8 5.5-11.5 6.1-14.1 4-19.5-2.1-5.3-5.6-8.6-9.3-8.6-2.7 0-13.5 5.5-24.5 12.7-8 5.1-8 2.9.5 22.9l6 14.2-2.9 5.8c-3.7 7.7-6.5 9.3-11.6 6.9-3.2-1.5-3.7-2.2-3.7-5.2 0-3.5 1.9-8 5.1-12.2 1.1-1.3 1.9-3.8 1.9-5.5 0-4-5.3-15.3-9.1-19.2-3.5-3.6-5.3-8.9-3.6-10.1.7-.5 6.4-2.6 12.7-4.8 6.3-2.1 16.2-5.8 22-8.2 5.8-2.3 11.4-4.1 12.5-4 1.4.1 2.4 1.5 3.3 4.2z"></path>
<path class="vZZIoKfC_10 zsjErlTW_10" d="M1046 274.2c0 1.3 1.3 7.7 3 14.2l2.9 12-4.7 5.4c-2.6 3-5.9 6.9-7.4 8.6-4.3 4.9-3.7 5.6 4.3 5.6 6.9 0 7.2.1 10.5 3.7 1.9 2 3.4 4 3.4 4.4 0 1.4 8.2 13.9 9.1 13.9.5 0 .9-6 .9-13.3v-13.2l6-9.2c3.3-5 6-9.9 6-10.7 0-1.3-1.3-1.6-7.4-1.6h-7.3l-2.9-4.1c-1.5-2.2-3.5-4.6-4.3-5.2-.9-.7-2.2-2.3-2.9-3.8-1.6-3.1-7-8.9-8.3-8.9-.5 0-.9 1-.9 2.2zm10 14.6c.6 1.3 1 4.4 1 7-.1 3.9-.2 4.4-1.2 2.8-.9-1.6-4.8-15-4.8-16.6 0-1 4.1 4.5 5 6.8zm20 7.7c0 .3-2.2 3.9-5 8-4.2 6.2-5 8.2-5.1 12.2-.1 2.6-.4 7.3-.7 10.3l-.7 5.5-4.4-7.3c-3.6-6-4.8-7.2-7-7.2-1.4 0-4.3-.3-6.4-.6-3-.5-3.5-.9-2.6-2 .6-.8 3-2.3 5.3-3.3 6.5-2.8 11.6-7.8 11.6-11.2 0-2.1.6-3.2 2.3-3.9 2.4-1 12.7-1.3 12.7-.5z"></path>
<path class="vZZIoKfC_11 zsjErlTW_11" d="M529.7 275.7c-.4.3-.7 14.3-.7 30.9v30.3l-3.7.6c-11.2 1.8-17.3 3.8-21 6.9-7 5.7-9.3 10.4-9.5 19-.1 5.5.4 6.3 5 7.6 7.5 2 25.2.6 25.2-2 0-.6.7-1 1.6-1 .8 0 4-2.3 7-5.1l5.4-5.2v-14.1c0-7.8.5-14.8 1-15.6.7-1.2 2.2-.2 7.5 5.2 6.1 6.3 6.5 7 6.5 11.4v4.6l4.8-.7c2.6-.3 5.8-1.3 7.1-2.2 2.1-1.3 2.3-2 1.7-5.9-.3-2.4-1.2-5.7-2-7.3-1.8-3.4-17.7-18.6-21.7-20.6-3.2-1.7-4.5-5.1-3.5-9.1l.7-2.5 3.2 2.1c1.8 1.2 4.3 2.6 5.6 3.3 2.4 1.2 7 4.8 12.1 9.7 4.5 4.3 7 8.2 7 10.9 0 3.8 1.7 5.1 6.7 5.1s8.3-2.6 8.3-6.5c0-3.8-2.5-9.2-5-10.5-2.9-1.5-13.7-11-27.2-23.6-15.5-14.6-20-17.8-22.1-15.7zm19.3 17.9c10.5 9.8 17.6 16.2 24.1 21.6 8.8 7.4 10.1 13.8 2.8 13.8-2.3 0-3-.5-3.5-2.8-1-4.8-2.3-7.1-6.4-11.6-4.5-4.9-25.7-19.2-26.8-18.1-.4.4-.9 4.4-1 8.9l-.4 8.2 5.3 2.9c10.6 5.7 23.8 22.3 21.2 26.5-.6.8-2.2 1.6-3.6 1.8-2.2.3-2.7-.2-3.2-2.5-1.5-7-7.8-14.4-16.1-18.6-3.1-1.6-3.2-1.6-3.8.6-.3 1.2-.6 8.8-.6 16.9V356l-5.2 4.1c-10.5 8.3-21.3 11-30.5 7.7-3-1.1-3.3-1.6-3.3-5 0-10.3 10.3-19.6 23.5-21.3 2.8-.3 6.2-.9 7.8-1.1l2.7-.6v-62.2l4.8 4.5c2.6 2.5 8.1 7.7 12.2 11.5z"></path>
<path class="vZZIoKfC_12 zsjErlTW_12" d="M1669.4 293.2c-.8 1.3-3.6 3-15.9 9.9-6.4 3.5-43.9 18.7-61.5 25-11.2 3.9-13.4 5-13.2 6.6 1 5.9 2.6 9.6 5.9 13.5 4.2 5 8.3 13.2 8.3 16.8 0 1.4-1.3 3.9-3 5.7-2.4 2.6-3.1 4.4-3.7 9.3-.5 5.2-.3 6.3 1.4 7.9 6.9 6.4 14.6 5.2 19.3-3.1 4.1-7.2 3.5-12.9-2.9-27.7-3.9-9.2-5.1-12.9-4.4-14 1-1.5 18-11.9 23.1-14.1 3.2-1.4 5.7.2 8.2 5 2.7 5.2 2.6 5.9-1.5 13.2-4.3 7.9-5.3 13.4-3.2 17.5 3.5 6.8 10.6 8.2 15.6 3.3 3.6-3.7 4.6-7.7 4.6-19 0-8.1-.2-9-4.2-17-2.4-4.6-4.2-8.4-4-8.5 3.9-3.1 25.3-14.5 27.2-14.5 1.7 0 2.5 1.4 5.5 10.2l2.3 6.6-2.6 3.2c-5.5 6.4-5.8 16-.9 22 2.3 2.7 3.4 3.2 7.6 3.2 4 .1 5.2-.3 6.7-2.3 2.2-2.9 6.9-15.2 6.9-18.1 0-1.1-1.6-4.6-3.5-7.8-1.9-3.1-6-11.5-9-18.6-6-14-7.7-16.6-9.1-14.2zm7.1 18.7c2.6 6.2 6.3 13.6 8.2 16.4l3.4 5-2.2 6.4c-1.3 3.5-3.5 7.7-4.9 9.5-2.3 2.7-2.9 2.9-4.8 1.9-4.2-2.3-5-12.8-1.2-18.1 1.7-2.4 2.1-4 1.7-6.8-.6-4.5-5.5-17.2-7.7-20.2l-1.7-2.3-15.1 7.7c-8.2 4.3-15.8 8.6-16.8 9.7-1.7 1.9-1.5 2.3 3.5 12.4l5.2 10.5-.7 8.5c-.8 10.3-2.9 14.5-7.3 14.5-1.6 0-3.9-.8-5.2-1.8-3.2-2.6-2.7-7.3 1.6-16.3 1.9-4 3.5-8.6 3.5-10.2 0-5.6-4.4-12.3-9.2-14-3.5-1.2-30.9 14.9-31.6 18.5-.2 1 2.4 8.2 5.7 16.1 3.4 7.8 6.1 14.8 6.1 15.5 0 3-5.1 11.9-7.6 13.2-2.3 1.3-3 1.2-6.2-.7-3.3-1.9-3.7-2.5-3.6-6.2 0-2.9 1-5.4 3.2-8.5 4.8-6.7 3.8-15.1-2.7-23.4-3.9-5-7.1-10.5-7.1-12.3 0-1.1 4-3 14.4-6.7 17.9-6.4 45.7-18.2 61.3-26 7.9-4 12-5.6 12.4-4.8.4.6 2.8 6.2 5.4 12.5z"></path>
<path class="vZZIoKfC_13 zsjErlTW_13" d="M1402 366.3c-3.1 2.4-6.3 5.5-7.2 6.8-1.4 2.2-8 9.7-12.7 14.4-1.1 1.2-3.2 2.7-4.8 3.5-1.5.8-3.9 2.2-5.3 3.1-5.8 3.7-27.3 11.8-40.5 15.3-22 5.7-52.9 9.6-75.6 9.6H1239v2.3c0 1.2.7 3.2 1.5 4.4 1.5 2.1 10.9 6.3 14.3 6.3 3.6 0 9.3 2.2 12.2 4.7 3.9 3.3 9.3 14 12.2 24 1.9 6.6 2.2 10.4 2.2 25.3.1 13.7-.2 18-1.4 20-1 1.8-1.5 5.8-1.5 13.5-.1 9.2-.8 13.7-4.2 28-6.5 26.9-7.7 38-7.7 74.5-.1 29.6.1 32.1 2.3 41.5 1.3 5.5 2.5 11.1 2.8 12.4l.6 2.4-14.2-.8c-13.3-.6-14.3-.6-13.9 1.1.2.9 2 2.3 4.2 3 4.4 1.6 10.8 6.4 23.7 17.9 5 4.4 10.5 9.1 12.2 10.5 1.8 1.4 7.9 6.9 13.6 12.3 5.7 5.4 12 11 14 12.5s6.2 5 9.4 7.9c3.1 2.9 7.3 6.4 9.3 7.9 3.5 2.7 3.5 2.7 10.7 1.4 4-.6 18.2-3.7 31.7-6.7s34.4-7.6 46.5-10.3c29.4-6.5 45.4-9 57.8-9 11.9 0 24.7 1.4 33.2 3.7 7.6 2 24.5 10.1 30.8 14.8l4.8 3.6 11.7-1.1c13.5-1.2 25.3-3.9 35.5-8.1 11.8-4.9 14.2-6.5 23.7-16 7.2-7.2 8.5-10.1 7.4-17.1-.8-4.9.2-5.7 6-5.1l4.3.5.6-3.8c1-6.1.8-10.9-.6-12.7-1.1-1.7-1.9-1.6-11.2 1.2-5.5 1.7-15.4 4.9-21.9 7.1-22.4 7.5-35.8 8.7-40.3 3.6-4-4.7-4-8.4.6-27.3 4.6-19.3 6.5-34.7 5.8-46.8-1.1-16.8-2.7-30.5-5.2-45-6.2-34.9-7.5-45-7.5-57 0-15.3 3-35.2 7.1-48 2.8-8.7 3.3-11.8 3.7-23.3.3-11 .1-13.7-1.2-15.7-2.1-3.2-4.7-3.2-8.4 0-1.7 1.4-3.4 2.5-3.9 2.5-.6 0-1.8.9-2.8 2-1 1.1-2.2 2-2.8 2-.5 0-5.3-3.9-10.8-8.8-5.4-4.8-13.3-11.5-17.6-15-4.3-3.4-10.8-8.7-14.4-11.7-3.6-3-7.1-5.5-7.7-5.5-.5 0-1.2-.7-1.6-1.5-.3-.8-1.2-1.5-2-1.5s-1.6-.3-1.8-.8c-.1-.4-1.9-1.8-3.8-3.2-3.1-2.2-4.9-2.5-15.5-3.1-6.6-.3-13.2-1-14.6-1.6-1.4-.6-5.8-4-9.7-7.5-15.2-13.4-21.5-16.8-33.2-17.5-6.4-.4-6.6-.4-12 4zm23.4 2.3c3.2 1.6 9.9 6.2 14.9 10.3 16.2 13 16.4 13.1 29.2 13.1h11.1l7.9 5.7c8.2 5.9 23 17.6 44.2 35.2 6.6 5.6 12.8 10.1 13.7 10.1.9 0 4.6-1.9 8.2-4.2 7.5-4.7 7.9-4.5 9 3.8.7 5.7-.3 11.3-5.1 28.9-8 29.5-8.2 58.3-.6 99.5 5.2 28.4 6.4 41.1 5.8 62.1-.4 15.3-.8 18.9-3.5 29.4-8.8 33.8-6.9 40.1 12.3 39.9 10.3-.2 17.3-1.8 42-9.8 9.2-3.1 17.2-5.3 17.6-5 1.2.7 1.1 5.1-.1 7.3-.6 1.2-2.6 2.1-5.5 2.5l-4.5.7v4.2c-.1 8.9-1.5 12.7-6.6 17.8-6.5 6.6-15.2 12.2-25.6 16.4-9.8 3.9-26.4 7.5-35.8 7.7-6.3.1-6.8-.1-15.1-5.5-10.4-6.8-14.8-8.8-25.9-11.6-23.8-6.1-54.2-4.7-93 4.3-58.1 13.4-65.4 15-77.5 17.2-4.4.7-8.1 1.4-8.3 1.4-.1 0-7-6.2-15.4-13.8-20.8-18.8-43.6-39-54.1-47.8l-8.8-7.4h10.6c11.9 0 11.5.3 8.6-8.3-4.8-14-5.6-20.7-5.6-49.7 0-34 1.4-46.7 8.5-77.2 1.7-7.3 3.5-18.5 4-24.8.5-6.3 1.4-15.1 2-19.5 1.5-10.3.7-33.2-1.6-42.2-3.4-13.8-10.6-25.6-17.2-28.1-1.5-.6-6.1-1.8-10.2-2.7-4.1-.8-8.6-2.4-10-3.5l-2.5-2h2.5c8.6-.1 47.2-3.2 56-4.4 29-4.1 52.1-10.8 71.2-20.7 6.7-3.6 10.2-6.4 22.3-18.7l14.3-14.5 5.4.5c3.2.2 7.7 1.6 11.2 3.4z"></path>
<path class="vZZIoKfC_14 zsjErlTW_14" d="M1441 449c-15.1 1.6-37.4 3.8-49.5 5-26.2 2.6-31.3 3.5-33.8 5.7-2.4 2.3-8.9 15.8-12.1 25.3-10 30.4-9.5 68.7 1.5 103.1 3.3 10.5 13.9 33.2 18.9 40.3 1.6 2.5 3.4 5.4 3.8 6.5.4 1.1 5.2 6.6 10.7 12.3 22 22.5 45.3 32.1 70 29 5.2-.7 12.2-1.9 15.5-2.9l6-1.6v-21.8l4.8-2c18.9-8.1 42.8-10 60.9-4.7 12.3 3.5 1-7.8-13.7-13.8-12.2-5-17.8-5.8-49.2-7.4-1.8 0-.4-40.8 1.5-42.6.3-.4 5.5-1.2 11.4-1.8 8.9-.9 10.8-1.4 11.1-2.8.2-1-1.5-7.7-3.7-15-5.3-17.5-11.3-39.8-15.7-58.3-3-12.8-3.7-18-4.7-35.3l-1.1-20.2-2.5.1c-1.5.1-15 1.4-30.1 2.9zm30.1 16c.4 8 1 16.3 1.3 18.5 3.6 19.5 8.9 41.1 17.1 69.5 3 10.6 5.5 19.6 5.5 20 0 .4-3 1.1-6.7 1.5-8.8.9-14.3 2.1-15.6 3.4-.6.6-1.3 9.7-1.6 23.2-.7 25.1 0 23.2-10 27-9.1 3.4-14 3.4-30.6-.2-18.9-4-22.5-4.5-22.5-2.9 0 1.8 13.3 14.3 19.9 18.8 9.2 6.1 16.1 8.4 26.1 8.6 4.7 0 9.7-.2 11.1-.6 2.5-.7 2.5-.6 3.9 6.9 1.3 7.4 1.3 7.7-.8 9.3-3.8 3.1-15.8 5.5-27.2 5.4-9 0-11.7-.5-19.1-3-10.1-3.6-20.7-9.3-25.9-14-2.1-1.9-4.2-3.4-4.7-3.4-.6 0-3.7-3-6.9-6.8-3.2-3.7-7-7.9-8.4-9.4-1.4-1.4-5.4-7.5-8.8-13.6-14.9-26.2-20.1-41.9-25.3-76-2.3-14.9.8-42.5 6.7-60.5 3.1-9.4 11.3-24.7 13.7-25.6 2.4-1 25.6-3.6 61.7-7.1 11.8-1.2 24.7-2.5 28.5-3 3.9-.4 9.5-.7 12.5-.6l5.5.1.6 14.5zm37.1 162.9c7.6 2 22.4 7.7 23.2 9 .3.3-5.5.5-12.7.3-14.6-.4-27.2 1.5-40 6.2-6.5 2.3-6.7 2.4-6.7.5 0-4 3.2-17.4 4.3-18.2 2-1.4 23.7.1 31.9 2.2zm-80.2 3.2c1.9.5 9.2 1.3 16.2 1.6 11.5.5 13.4.4 19.3-1.6 3.7-1.3 6.8-2.1 7.1-1.9.5.6-1.4 11.2-2.7 15.6-1.1 3.2-1.5 3.5-9.1 4.7-5.5.9-17.2-2-24.1-5.9-3.4-1.9-8.9-5.9-12.2-9l-6-5.6 4 .6c2.2.3 5.6 1 7.5 1.5z"></path>
<path class="vZZIoKfC_15 zsjErlTW_15" d="M1404.6 474.5c-14 5.7-20.6 9.7-27.9 16.7-9.3 8.8-6.5 10 9.5 3.9 15.4-5.8 17.9-6.4 24.6-5.1 3.1.5 8.1 2.2 11 3.7 2.8 1.4 5.5 2.4 5.8 2 .7-.7-4.9-18.4-7.2-22.8-.8-1.6-2.2-2.9-3.2-2.9-.9 0-6.6 2-12.6 4.5zm15.1 6.1c2.9 7.7 2.9 8.8.1 8-12.2-3.5-20.5-2.8-33.8 2.8-4.4 1.9-8 3.2-8 3 0-.7 14.4-10.5 18.5-12.6 5.4-2.8 18.8-7.8 20-7.4.6.1 2 2.9 3.2 6.2z"></path>
<path class="vZZIoKfC_16 zsjErlTW_16" d="M1387.5 511.2c-1.4 3.7 3.4 11.3 9.5 15.5 7.7 5.1 13.2 6.6 27.1 7.1 14.8.5 18.4-.4 22.9-5.5 2.5-2.8 3-4.2 2.8-7.1-.3-3.6-.4-3.7-4.6-4-2.4-.2-8.5.4-13.7 1.3-10.9 1.8-22.6 2.1-28.2.6-2.1-.6-6.3-2.9-9.3-5.1-6-4.5-5.9-4.4-6.5-2.8zm14.4 11c4.3 1.2 24.9.5 35.8-1.3 4.5-.7 8.5-1 8.9-.7 1.2 1.2-.8 4.8-4.1 7.3-7.2 5.5-25 5.1-37.7-.8-5.4-2.5-12.5-7.8-8.3-6.2 1.1.4 3.5 1.2 5.4 1.7z"></path>
<path class="vZZIoKfC_17 zsjErlTW_17" d="M1504.2 469.2c-2.6 7.2-5.6 18.7-5 19.3.3.3 3.6-.9 7.4-2.6 9.2-4.2 14.5-3.8 27.2 1.9 10.6 4.8 13.2 5.2 13.2 2 0-2.9-8.5-10.8-16.9-15.8-6-3.5-20.9-10-23.1-10-.5 0-1.7 2.4-2.8 5.2zm16.3 4.1c4.4 2.2 9.9 5.3 12.2 6.8 2.3 1.6 4.5 2.9 4.9 2.9 1 0 4.4 3.1 4.4 4.1 0 1.1-2.8 0-6.1-2.2-6.2-4.3-20.8-6.1-28.1-3.5-4.5 1.6-4.5 1.4-1.6-7 2.5-7.4 1.8-7.4 14.3-1.1z"></path>
<path class="vZZIoKfC_18 zsjErlTW_18" d="M1535.9 505.5c-6.5 7.1-9.7 7.8-23.1 4.3-7.2-1.8-8.9-2-10.2-.9-2.1 1.7-2 6.4 0 10.7 2.5 5.2 4.9 6.4 13 6.4 5.9 0 8.1-.5 12.5-2.8 6.1-3.1 11.2-9.7 12.3-15.8 1.1-5.5-.6-6.2-4.5-1.9zm-22.2 8c7.4 1.9 14.6 1.9 18.5-.1l3.1-1.6-2.3 3.2c-3 4.2-11.5 8-17.9 8-4.9 0-7.4-1.6-10-6.7-2.4-4.8-.9-5.3 8.6-2.8z"></path>
<path class="vZZIoKfC_19 zsjErlTW_19" d="M1342 597c-.7.4-.9 1.3-.6 1.9 1 1.6 4.6 1.4 4.6-.3s-2.3-2.7-4-1.6z"></path>
<path class="vZZIoKfC_20 zsjErlTW_20" d="m1299.3 618.7c0.3 4.9 1.9 21.6 3.6 37.2s3.1 29.4 3.1 30.6c0 1.8-1.4 3.1-6.1 5.7-3.3 1.8-6.1 3.7-6.2 4.3-0.1 0.5 2.8 3 6.5 5.5 3.6 2.5 10 7.4 14.2 11 7.3 6.2 10.6 8.2 10.6 6.3 0-0.5-1.3-5.2-3-10.5-5.4-17.1-12.3-48.5-17-76.8-2.7-16.7-4-22-5.2-22-0.7 0-0.9 3-0.5 8.7zm17.2 83.8c1.4 5 2.5 9.4 2.5 9.8s-2.2-1.4-4.8-4.1c-5.5-5.3-6.4-6-10.9-8.7-1.8-1.1-3.3-2.3-3.3-2.6 0-0.4 2.1-1.8 4.8-3.1l4.7-2.3-0.2-8-0.3-8 2.5 9c1.4 4.9 3.6 13.1 5 18z"></path>
<path class="vZZIoKfC_21 zsjErlTW_21" d="M1369.4 677.5c-.3.8-.3 1.9.1 2.5 1.1 1.8 2.5 1.1 2.5-1.5 0-2.7-1.7-3.4-2.6-1z"></path>
<path class="vZZIoKfC_22 zsjErlTW_22" d="M1745 364.9c-10.6 3.4-29.2 14.2-40.1 23.3-2.6 2.1-5.2 3.8-5.8 3.8-.5 0-1.5.9-2.1 2-.6 1.1-1.6 2-2.1 2-1 0-10.4 7.2-15.4 11.7-1 1-2.4 2-3 2.3-.7.3-3.8 2.7-7.1 5.3-3.2 2.7-9.7 7.7-14.4 11.3-19.1 14.4-21.8 16.4-22.4 16.4-.3 0-1.7 1.1-3.2 2.5-2 1.8-2.4 2.9-1.7 3.6 1.6 1.6 10.7-.6 26.3-6.3 7.4-2.8 17.3-6 21.8-7.1 7.3-1.8 9-1.9 13-.8 2.6.6 5.2 1.9 5.9 2.8 1.6 2 3.5 10.5 8.3 37 10.6 58.8 13 88.7 9 114.8-3.3 21.8-9.2 39.9-16.1 49.5-1.6 2.2-2.9 4.3-2.9 4.8 0 .4-.8 1.5-1.7 2.3-1 .9-3.1 3.3-4.8 5.3-4.6 5.7-9.6 9.9-19 15.9-2.8 1.8-5.1 4.1-5.3 5.2-.2 1.2 1.5 3.9 4.3 7 3.6 4 4.5 5.7 4.5 8.6 0 3.1-.6 4-4.5 6.8-3.2 2.3-4.5 3.9-4.5 5.6 0 2.7 6.8 10.5 9.1 10.5.8 0 4.1-1.4 7.3-3 3.2-1.7 6.7-3 7.6-3 2.5 0 21.1 5.6 30.5 9.2 4.4 1.7 19.9 8.6 34.5 15.3 14.6 6.7 29 13.2 32.1 14.4l5.5 2.3 6-3c13.7-7.1 30.7-18.7 38.5-26.3 3.4-3.4 4.9-5.7 5.3-8.6.9-5.2-.8-21.9-3.6-34.6-2.3-10.4-3.1-29.6-1.6-37.8l.6-3.6-10.6.1c-11.5 0-15.2-1.1-25.2-7.4-2.5-1.6-6.5-3.6-9-4.6-6.2-2.4-6.7-3-4.3-5.6 2.7-3 12.4-18.1 15.6-24.4 4.7-9.1 13.2-17.1 24-22.5 6.5-3.3 7.7-4.7 7.7-9.3 0-3.8-1.5-7.4-8.2-19.9-1.2-2.2-2.3-6.6-2.5-10.2-.7-7.9 1.6-12.5 8.9-18 4.9-3.6 5-3.8 4.4-7.9-2.1-12.4-2.5-20.1-2.6-39.6 0-11.8.5-29.2 1.2-38.6l1.2-17-4.7-11.6c-2.6-6.4-4.7-12.1-4.7-12.7 0-2.2 2.6-.9 5 2.5 1.4 2 3.7 5 5.1 6.7 4.1 5.1 9.9 14.1 9.9 15.4 0 .7-.9 1.3-2 1.3-3 0-3.5 4.8-3.5 36.5v29l3.9 7.3c4.7 8.8 7.7 11.4 12.5 11 5.3-.4 6.3-3.2 5.6-14.5-.6-8.4-.4-9.5 1.9-14.1 3.5-6.8 6.8-10.5 11.4-12.6l3.9-1.8 6.1 3.1c8.5 4.3 9.7 6.5 9.7 17.2 0 8.2-.2 8.9-3.1 12.6-1.9 2.3-6 5.4-10.9 8-9.8 5.1-15.5 10.8-15.5 15.5 0 3.7 1.5 5.5 9.9 12 4.4 3.4 6.1 5.7 8.9 11.8 6.9 14.9 18.9 28 33.2 36.3 2.5 1.5 7 5.6 9.9 9.1 5 6 5.9 6.7 12.5 8.7 12.9 3.9 14.7 5.6 10.2 9.8-2.9 2.7-5.1 2.3-9.2-2-2.6-2.6-15.4-11.9-17.9-13-.6-.2-4.9-3-9.7-6.2-4.7-3.1-9.1-5.7-9.7-5.7-.6 0-1.1-.5-1.1-1 0-.6-.4-1-1-1-2.5 0-12.1-9.4-16.2-15.9-2.8-4.5-3-4.6-8.1-4.7-2.9-.1-6.4-.5-7.8-.9-2.4-.6-2.8-.3-3.8 2.8-.7 2-2.5 5.2-4.2 7.3-2.3 2.9-2.9 4.6-2.8 8.3.2 8.5.9 9.7 8.7 15.1 4.1 2.7 7.8 5 8.3 5 .5 0 .9.3.9.7.1.5 2.4 2.4 5.1 4.3 10.7 7.3 11.1 7.8 20.2 22.4 2.1 3.4 5.2 7.8 6.9 9.9 1.6 2.1 2.8 4.1 2.5 4.3-1.4 1.5-15.6 2.3-24.5 1.4-15.3-1.5-13.7-2.3-15.7 8.2-1 5.1-3.1 13.1-4.8 17.8-4.4 12.7-4.4 12.7.2 22.8 8 17.9 10.5 28 14.1 57.6 1.2 9.8 1.9 11.6 6.2 16.1 6.1 6.4 6.3 7.5 2.7 17.8-3.6 10.4-5 23.7-3 28.4 1.7 4.2 6.5 6.5 14.7 7.1 5.9.4 7.7.1 11.5-1.8 5.4-2.8 18.3-11.2 18.7-12.2.2-.5 1-.8 1.8-.8s1.4-.5 1.4-1c0-.6.5-1 1.1-1 1.6 0 10.9-6.2 10.9-7.2 0-.4.5-.8 1.1-.8 3.1 0 34.9-29.2 34.9-32 0-.6.5-1 1-1 .6 0 1-.5 1-1 0-.6.9-2 2-3.2 3-3.2 8.9-16.2 11.3-24.7 3.4-12.6 2.9-40.2-1.6-81.6-6.8-62.1-7.5-99.1-2.7-153 .6-6.6 1.2-12.5 1.5-13.2.7-2.1-2.5-11.4-7.4-21.1-3.7-7.5-6.5-11.4-14.1-19.5-5.2-5.5-12.2-12.2-15.5-14.9-3.3-2.7-6.7-5.5-7.6-6.3-.9-.8-1.9-1.5-2.3-1.5-.4 0-3.8-2-7.5-4.5-9-6-29.9-15.8-48.5-23-29.1-11.1-36.7-12.7-50.4-10.6-13.8 2.1-23.5 7.7-41.7 23.8l-7.1 6.2-1.7-5c-4.5-12.4-13.6-23.3-21.5-25.7-5.7-1.7-17.8-1.4-24.2.7zm24.9 3.7c6.4 3.2 12.5 10.9 16.5 21 3.5 8.8 4 9.7 5.2 10.1.5.2 5.7-3.9 11.6-9.1 16.2-14.3 24.5-19.4 36-22.1 11.2-2.6 15.6-2.1 34.8 4.4 41.6 14.1 70.1 29.5 89.9 48.6 11.1 10.7 16.7 18.3 22.3 30.2 4.9 10.4 5 11.6 2.8 39.8-1 12.5-1.4 31.8-1.4 56.5.1 38.3.6 46.9 5.5 89.5 2.8 25 3.6 62.4 1.5 72.5-2.2 10.6-10 25.7-18.1 35.2-12.1 14.1-33.4 30.8-59.8 46.8-10 6.1-15.7 7.3-22 4.6-8.3-3.4-8.8-17.6-1.2-32.6 3.5-7 3.2-9-2.5-16-6.1-7.7-7.5-12-9.4-28.5-2.5-21.6-5.7-33.3-13.3-49l-3.4-6.9 2-4.7c2.7-6.2 7.1-23.5 7.1-27.9v-3.5l17.7.3c16.5.3 18 .1 21.1-1.7 1.7-1.2 3.2-2.4 3.2-2.8 0-.5-1.4-2.4-3-4.3-1.7-1.9-6-7.9-9.5-13.2-3.6-5.3-9.1-12-12.3-14.8-4.9-4.5-22.3-17.4-27.8-20.6-3.1-1.8-2.6-10 .8-14.4 1.5-1.9 3.1-4.7 3.7-6.3.9-2.4 1.6-2.7 5.7-2.7 3.7 0 5 .5 6.7 2.6 8.3 10 13.7 14.6 31.2 26.4 10.4 7 22.1 15.1 25.9 17.9 8.2 6.1 12.2 6.7 15.5 2.5 2.8-3.6 2.8-8.8-.1-10.9-1.3-.9-5.4-2.5-9.3-3.7-6.1-1.8-8-3-14.5-9.3-4.1-4-10.2-9-13.5-11.2-6.6-4.4-17.4-15.3-22.5-22.7-1.7-2.6-4.5-7.6-6.1-11.1-2.4-5.4-4.2-7.5-10.9-13.1-4.4-3.6-8-7.2-8-8 0-2.7 6.5-8.6 13.1-12 13-6.5 17.2-11.9 17.3-22.4.1-9.2-1.9-15.5-6.1-18.9-5.9-4.8-14.8-6.5-20.2-3.7-4 2.1-11 10.1-13.3 15.4-1.9 4.2-2 5.1-.8 11.4.9 5.2.9 7.6 0 10.3-1.5 4.4-3.1 4.4-6.8-.1-9.4-11.4-11.7-26.8-9-59.2 1.1-13.4 1.3-14.5 3.4-15.2 5.4-2.1 3.8-6.6-7.4-21.6-9.7-13-13.9-15.8-15.9-10.8-1 2.7 1.3 11.6 5.4 21.1 3.6 8.2 3.8 9.2 3.1 14.8-1.5 12.1-2.1 67.6-.9 78.4l1.2 10.3-6 5.6c-6.8 6.5-7.7 9.1-6.8 20 .4 5.5 1.5 8.7 5.8 17.5 4.1 8.4 5 11.3 4.3 12.5-.6 1-4.2 3.6-8 5.9-9.9 5.9-17.8 14.3-26.6 28.5-4.2 6.8-9.7 15-12.2 18.3-3.3 4.4-4.2 6.3-3.4 7.2.6.7 1.6 1.3 2.4 1.3.7 0 7.5 3.1 15 7l13.6 7H1829.9l-.5 3.7c-.3 2.1-.7 4.6-.9 5.5-.6 3.5 1.5 23.3 3.4 32.2 2.3 10.3 4.1 22.9 4.1 28.6 0 3.3-.7 4.4-5.8 9.2-8.6 7.9-17.3 14.2-30.3 21.9l-11.7 6.9-20.3-9.6c-49.7-23.4-64.9-29.2-79.1-30.1-7.7-.5-9.1-.3-12.3 1.6-4.3 2.5-6.6 2.1-9.5-1.6l-2-2.5 5-4.5c6.7-6 6.8-9.4.5-17.7l-4.4-5.9 5.7-4c15.2-10.6 25-22 32.7-38.1 8.4-17.8 11.5-35.6 11.5-68.1 0-21.3-.8-32-4.5-57-3.8-26.2-11.1-65.8-12.7-68.7-1.9-3.8-6.5-5-17.2-4.6-10.5.5-14.8 1.7-34 9.2-5 2-9.1 3.4-9.4 3.2-.2-.2 8.1-6.9 18.5-14.9 10.3-8 26.5-20.4 35.8-27.6 42.9-33.2 61.7-41.3 77.4-33.5z"></path>
<path class="vZZIoKfC_23 zsjErlTW_23" d="M1725.5 550.7c0 50.7-.1 53.3-2.3 65.3-2.8 15.4-5.5 27.3-8.2 36.5-2.3 8.2-2.4 9.5-.7 9.5 2.8 0 9.4-14.3 14.5-31.5 5.1-17.3 5.7-22.6 5.6-53-.1-27.8-.7-36.3-4.4-62.6-2-13.8-2.7-16.9-3.9-16.9-.3 0-.6 23.7-.6 52.7zm6.2 30.8c-.5 23.7-1.8 34.3-5.8 47-1.1 3.6-2.2 6.5-2.5 6.5-.3 0-.3-.8 0-1.8s1.7-9.5 3.1-19c2.1-14.4 2.5-20.9 2.5-40.1 0-12.6.3-23.8.7-24.8 1.6-4 2.4 10 2 32.2z"></path>
<path class="vZZIoKfC_24 zsjErlTW_24" d="M192.7 380.2c-18.6 17.5-52.8 37.3-80.2 46.6-20.4 6.9-43 11.5-65.5 13.4-7.4.6-13.7 1.2-13.9 1.4-1.5 1.3 4.4 27.9 9.6 43.4 6.3 18.4 21.4 45.6 31.5 56.5.7.7 3.1 3.5 5.3 6.2 3.5 4.3 6.9 8 18.1 19.6 6 6.2 32 27.5 35.2 28.8 1.2.4 2.2 1.3 2.2 1.9 0 .5.5 1 1 1 .6 0 3.5 1.8 6.4 4 2.9 2.2 5.6 4 6 4 .5 0 2.1 1.1 3.7 2.5 3.7 3 18.1 12 32.4 20 6.1 3.4 15.1 8.6 20 11.5 5 2.9 15.5 8.9 23.5 13.3s17 9.6 20 11.6 6.5 4.1 7.7 4.8c2.7 1.4 11.1 7.6 13.8 10.1 1.1 1.1 3.3 2.7 4.8 3.7 2.9 1.9 11.7 13.4 11.7 15.4 0 .6-.6 1.1-1.2 1.2-.7 0-2.4.2-3.8.3-1.4.1-4 .3-5.7.4-3 .2-7.3 3.1-7.3 4.9 0 .5 2.7 3.7 6 7.2 3.3 3.6 6 6.8 6 7.1 0 1 11.6 10 12.9 10 .6 0 1.1.4 1.1.8 0 1.3 9.9 6 14.5 6.9 7.8 1.7 24.2-1.8 28.8-6.1 1.3-1.1 4-3.2 6-4.6 2-1.4 3.7-2.8 3.7-3.2 0-.4 1.2-2 2.6-3.5 3.2-3.4 7.6-12 10.3-20.1 2.7-7.8 3-30.4.6-39.6-4.7-17.9-15.1-34.6-31.9-51.1-10-9.8-24.1-21.7-29.4-24.9-1-.6-4.3-2.7-7.3-4.7s-6.4-3.9-7.6-4.3c-1.3-.4-2.3-1.2-2.3-1.7s-.6-.9-1.3-.9c-.7 0-5.6-3.2-11-7-5.3-3.9-10-7-10.3-7-.4 0-3.5-2.3-7-5s-6.6-5-7-5c-.3 0-3.8-2.5-7.7-5.5-4-3-8.1-6.1-9.2-6.9-13.9-10.5-18-13.8-30-24.4-5.5-4.8-12.1-10.3-14.8-12.1-2.6-1.8-5.5-4.4-6.4-5.9-.9-1.5-4-5-6.9-7.9-6-6-14.1-17.8-15.5-22.5-2.4-8.6-.1-13.1 8.2-15.8 3.8-1.3 4.2-1.2 5.2.6 1.2 2.3 24.1 24.9 31.7 31.3 3 2.5 6.3 5.6 7.3 6.8 1 1.3 2.3 2.3 2.8 2.3.6 0 3.6 1.9 6.7 4.3 17.1 12.9 40 22.5 59.2 24.9 11.1 1.3 32.5.5 42-1.7 9.2-2.1 14.6-5.1 21.5-12 6.5-6.4 14.2-21.5 18.1-35.5 2.3-8.5 2.7-11.8 3.1-31.1.6-23.8-.2-29.1-5.2-35.9-2.3-3.2-5.9-5.9-7.8-6-.4 0-2.6 1.7-5 3.8-2.3 2.1-5.8 4.9-7.7 6.2-1.9 1.3-6 4.5-9 7-6.3 5.3-13.9 9.7-22.5 12.9-5.3 2-6.4 2.1-10.9 1-9.1-2.1-18.3-7-51.3-27.2-7.9-4.8-14.5-8.7-14.9-8.7-.3 0-2-1.1-3.7-2.4-4.5-3.4-22.6-13.6-24.2-13.6-.7 0-3.3 1.9-5.8 4.2zm13.2 3.5c3.6 2 17.4 10.2 30.6 18.3 41.8 25.6 45.9 27.6 56.9 28.7 12.4 1.1 23.4-4.1 42.6-20.1 6.3-5.3 12.2-9.5 13-9.4 1.9.4 5.7 6.1 7 10.7 2.5 8.3 3.3 21.9 2.1 33.5-2.1 20.8-7.7 38.1-16.5 51.5-6.2 9.2-12.9 14.1-23.9 17.2-7.2 2.1-10.3 2.4-25.7 2.4-15.1 0-18.6-.3-25.5-2.3-15.7-4.4-28.5-10.4-43.5-20.2-13.4-8.8-24.3-18.1-40.7-34.7-15.5-15.6-16.1-16-23.2-12.3-6.1 3-8.1 6.3-8.1 12.9.1 16.7 24.2 41.8 81.5 84.8 19.2 14.4 33.1 24 52.5 36.3 48.4 30.7 73.9 64.8 74.3 99 .2 17.1-5.2 30.8-16.9 42.7-8.4 8.6-15.5 12.3-25 13.1-11.2.9-20.8-4.5-36.4-20.2-10-10.2-9.9-10.9 2-11.5 9.3-.4 9.8-1.2 5.4-8.2-8.6-13.7-22.1-23.5-68.9-50.4-39.2-22.5-52.2-30.3-67-40.1C85.1 560.5 49.7 513.7 38 454c-1-5.2-1.7-9.6-1.5-9.8.2-.2 5.4-.8 11.5-1.3 50-4 90.6-18.3 128.2-45.2 5.5-3.9 12.7-9.6 16-12.5 3.2-2.8 6.2-5.2 6.5-5.2.3 0 3.6 1.6 7.2 3.7z"></path>
<path class="vZZIoKfC_25 zsjErlTW_25" d="M226.5 484.9c-1.4 2.4 14.1 12.4 30.7 19.7 14 6.2 20.8 7.7 34.9 7.2 11-.3 11.8-.5 19.2-4.1 4.3-2.1 7.7-4.4 7.7-5.3 0-1.9-1.1-1.8-7.3 1-19.7 8.7-43.8 4.6-71.5-12.1-11-6.7-12.9-7.6-13.7-6.4z"></path>
<path class="vZZIoKfC_26 zsjErlTW_26" d="M78.6 503.9c-4.4 4.5-4.8 5.3-4.3 8.4.3 1.9 2.1 7 4.1 11.2 12.5 27.1 38.9 53.7 81.6 82.2 16.6 11.2 23.6 15.3 25.7 15.3 2.8 0-2.2-4.5-15.2-13.8-28.9-20.5-53.7-43-66.4-60.1-9.7-13.1-16.6-29.4-18.6-43.4-.3-2.6-.9-4.7-1.3-4.7s-3 2.2-5.6 4.9zm5.7 10.5c1.9 8.3 6.9 21.1 9.2 23.6.8.9 1.5 2 1.5 2.3 0 .4 2 3.6 4.5 7.2 6 8.6 4.3 8.4-2.1-.3-9.5-12.7-13-18.5-17.5-29.5-2.7-6.6-2.8-7.1-1.3-8.9 2.9-3.1 3.9-2.1 5.7 5.6zm32 53.6c-.6.6-8.3-7.8-8.3-9.1 0-.4 2 1.3 4.4 3.9 2.5 2.6 4.2 4.9 3.9 5.2z"></path>
<path class="vZZIoKfC_27 zsjErlTW_27" d="M288.8 689.6c-.4.3.5 3.1 1.9 6.2 2 4.6 2.4 6.6 1.8 10.7-.9 7.3-.2 8.5 5.2 8.5 5.6 0 8.3-1.4 8.3-4.4 0-2.8-6.5-13-11.4-17.9-3.6-3.7-4.7-4.2-5.8-3.1zm11.2 15.5c2.6 5 2 7.2-1.7 6.7-2.7-.3-2.8-.5-2.4-4.8.5-7.3 1.2-7.6 4.1-1.9z"></path>
<path class="vZZIoKfC_28 zsjErlTW_28" d="M763.2 387.8c-23.4 23.6-26.3 26.8-25.6 28.5.3.9 2.9 2.9 5.7 4.5 11.3 6.4 21.9 18.6 29.5 33.9 2.7 5.2 3 6.8 2.5 11-.8 7.2 1.2 15.3 4.5 18 1.8 1.5 2.2 2.2 1.2 2.3-1.7 0-3.9 3-5 6.9-.4 1.4-.1 7.1.6 12.6 1 8.2 1.6 10.3 3.4 11.5 6.6 4.7 7.1 5.4 7.2 10.5.1 4.9-1.4 17.7-2.8 24.5-.4 1.9-1.8 5.5-3.1 7.9-1.3 2.4-2.3 6-2.3 8 0 4.1-.7 5.5-3.4 6.4-1.6.6-1.8 1.7-1.5 9 .2 5.4-.2 9.1-1.1 11-1.2 2.5-1.1 2.9 1.1 5.3l2.4 2.6v34.6c0 38.5.7 44.7 5 45.8 2 .5 2.2.9 1.3 2.3-.8 1.3-.3 4.3 1.7 12.1 4.9 19.3 4.5 35.7-2.1 70.5-4.5 23.8-7.4 42-7.4 46.3 0 6.4-1.3 8.2-6 8.2-2.1 0-4.2.5-4.6 1.1-.4.7-1.1 7.5-1.6 15.2-1 16.6-2 23.9-9.6 70-5.5 33.9-5.6 34.9-3.8 36.3 5.7 4.1 22.8 5.9 32.8 3.4l4.5-1.2.7-20.1c.4-11.1 1.8-33.9 3.1-50.7 1.3-16.8 2.5-35.2 2.7-41l.3-10.5-3.5-1.1-3.5-1.2.3-8.1c.1-5.1-.1-8.1-.8-8.1-1.7 0-3 4.7-3 10.8 0 4.2-.3 5.3-1.1 4.5-1.4-1.4-1.4-4.4 0-14.7 1.1-8.3 2.1-11 2.1-5.8 0 4 2.6 4.3 3.4.4.3-1.5 2.7-17.1 5.2-34.7 4.5-31.3 4.5-32.5 4.2-53.3-.2-11.6 0-21.2.5-21.2 1.7 0 3.8 7.5 4.6 15.8.5 6.6 1.1 8.8 2.5 9.6 10.1 6 13.3 11 12.1 18.9l-.7 4.3 8.9 2.6c14.7 4.4 20.2 5.2 33.8 5.1 9.8-.1 15-.6 21-2.2 10.3-2.7 24.1-9.8 33-16.9 7.5-5.9 28.5-26.6 28.5-27.9 0-1.6-1.6-3-6-5.5-6.6-3.8-14.3-5-30.3-4.7l-14.2.3-2.2-3.9c-2.4-4.3-7.8-20.6-8.9-26.9-.5-3-.4-3.8.7-3.4.8.2 1.5 1.9 1.7 3.6.3 2.8.7 3.2 3.4 3.2 2.9 0 3-.1 2.3-3.3-.3-1.7-1-6.4-1.3-10.2-.9-8.2-2.1-10.9-6.8-15.1-2.2-1.9-3.9-4.4-4.5-7-1.2-5-1.2-42.5 0-52.7.9-8.3 3.5-12.7 7.3-12.7 1.4 0 1.8-.8 1.8-3.8 0-2.1.9-4.8 2-6.2 1.1-1.4 2-4.1 2-6.2 0-3.1-.6-4.2-3.5-6.5-4.4-3.5-4.4-5.1-.5-23.1 5.2-23.4 12.1-45.8 22.6-73.4 2.4-6.5 4.4-12.6 4.4-13.8 0-2.6-1.5-2.6-14.7.7-17.4 4.3-31.9 3.1-45.5-3.8-7.7-3.9-12.5-7.8-30.7-25.2-8-7.5-15.1-13.7-15.8-13.7-.7 0-1.3-.4-1.3-.9 0-2.3-20.5-11.1-26-11.1-1.4 0-6.1 4.1-13.8 11.8zm23.4-5.6c7.4 2.7 16.8 9.6 33.2 24.4 24 21.5 30.6 25.8 44 28.4 8.5 1.7 27.6.8 37-1.8 4.8-1.3 7.2-1.6 6.8-.9-12.6 29.2-23.2 63.8-29.2 95.2-.9 4.9-2 9.3-2.3 9.7-.4.4-2.9-.8-5.6-2.8-6-4.3-33.5-18.1-44.7-22.4-13.1-5.1-12.6-3.1 3.1 12.1 7.3 7.1 13.1 12.9 12.8 12.9-.4 0-6.4-2.1-13.4-4.6-17.6-6.3-32.6-13.8-37.9-18.9l-4.4-4.2v-9.4c0-14.1-2.4-29.4-5.9-38.5-6.3-16.4-18.2-32.2-31-41.2-3.6-2.5-6.8-4.7-7.1-4.9-.2-.2 7.7-8.5 17.5-18.3 14.5-14.5 18.4-17.9 20-17.4 1.1.4 4.3 1.5 7.1 2.6zm46.3 135.7c19.4 8.4 48.2 25.2 49.6 28.9 1.1 2.9-1.2 3.7-6.2 2-15-5-26.6-9.9-29.4-12.2-6.1-5.1-24.4-22.6-23.7-22.6.4 0 4.8 1.8 9.7 3.9zm-38.9 6.8c1.4.9 2.8 2.2 3.3 2.9.4.7 2.1 1.6 3.8 1.9 7.4 1.6 60.3 21.3 69.1 25.6 6.9 3.5 7.8 4.7 4.9 6.8-3.1 2.3-4.1 13.4-4.1 45.3 0 14.2-.3 25.8-.6 25.8s-1.8-.9-3.3-1.9c-1.5-1.1-8.4-4.7-15.4-7.9-6.9-3.3-18.1-9.1-24.9-12.9-6.8-3.9-14.7-8.2-17.7-9.7-7.2-3.5-13.3-8.2-20-14.9-4.1-4.2-5.2-6-4.6-7.4.4-1 1.1-5.9 1.6-10.8.4-5 1.5-14.2 2.3-20.5.8-6.3 1.5-14.3 1.6-17.8 0-3.4.3-6.2.8-6.2.4 0 1.9.8 3.2 1.7zm-7.7 63.1c8.5 7.8 13 11 24.3 16.8 5.8 3 12.4 6.6 14.5 8 2.2 1.4 9 4.9 15.2 8 18.7 9.2 25 12.5 30.7 16.5 6.9 4.6 8 5.8 8.7 10.3.6 3.9-1.1 5.5-4.4 4-1-.4-2.1-.6-2.5-.6-.5.1-.8-.2-.8-.7 0-.5-1.2-1.4-2.7-2-1.6-.6-4.6-2.2-6.8-3.5-2.2-1.4-6-3.4-8.5-4.5-2.5-1.2-5.6-2.8-7-3.5-1.4-.8-5-2.6-8-4.1-3-1.4-6.4-3.1-7.5-3.7-1.1-.7-3.8-2.2-6-3.4-2.2-1.2-6-3.3-8.5-4.6-2.5-1.4-7-3.8-10-5.4-3-1.6-6.3-3.7-7.4-4.7-1.1-.9-2.6-1.7-3.3-1.7-.7 0-1.3-.5-1.3-1 0-.6-1-1.4-2.2-1.9-4-1.5-11.6-9-12.2-11.9-1.6-8.2-1.7-11.2-.6-11.2.6 0 3.5 2.2 6.3 4.8zm7.2 25.5c8.9 6 24.7 14.6 53 29.2 26.4 13.5 28.2 14.8 29.5 19.8 2.1 8.2 6.1 20.3 8.8 26.4 3 7.2 2.2 7 17.7 5.3 11.2-1.2 19.3 0 28.3 4.1l6.6 2.9-5.5 5.6c-17.2 17.6-32.8 28.7-49.4 34.9-6.7 2.6-23.1 4.6-30.4 3.9-10.6-1.1-13.3-1.6-22.3-4.1l-9.8-2.6v-5.1c0-7-2.5-11.4-9-15.9l-5.5-3.8-.6-8.2c-.3-4.5-1.3-9.6-2.2-11.3-2.4-4.6-8.6-10.2-14.4-13-2.9-1.3-5.7-3.2-6.2-4.2-2.4-4.5-3.3-18.9-2.8-42.5.3-13.3.9-25.5 1.3-27 .6-2.6.8-2.7 2.8-1.3 1.1.9 5.7 4 10.1 6.9zm-2.7 76.3l.2 2.9-1.4-2.5c-1.9-3.1-2-4.3-.3-3.8.6.3 1.3 1.8 1.5 3.4zm2.9 34.1c-.6 16.1-2.9 36.8-4.1 38-1.6 1.7-1.9-1.7-.8-10.5.7-5.3 1.5-16.9 1.8-25.7.6-14.2 1.3-18.5 3.2-18.5.3 0 .2 7.5-.1 16.7zm-7 71.5c-.3.8-.6.5-.6-.6-.1-1.1.2-1.7.5-1.3.3.3.4 1.2.1 1.9zm-2 23c-.3.8-.6.5-.6-.6-.1-1.1.2-1.7.5-1.3.3.3.4 1.2.1 1.9zm1.6 7.7c2.1.5 4.1 1.1 4.3 1.4.2.2 0 6.4-.6 13.8-3.7 48.9-6 85.4-6 94.6v8.1l-3.4 1.2c-9.8 3.2-29.4-.5-28.9-5.5.1-1.1 2.2-14.4 4.7-29.5 4.9-29.5 7.8-51 9.6-71 .6-6.8 1.4-12.8 1.6-13.2.7-1.1 14-1 18.7.1z"></path>
<path class="vZZIoKfC_29 zsjErlTW_29" d="M764.8 412.7c-2.9.7-2.1 3.1 3.8 11.1 10.5 14.5 18.2 32.9 22.9 54.8 2.8 13 3 13.4 5.1 13.4 1.9 0 1.8-3.5-.6-19.3-2.8-17.4-5.8-31.3-7.9-36.2-1.7-3.8-14.8-20.7-18-23.2-1.7-1.3-2.4-1.4-5.3-.6zm4.2 3.3c.8.5 1.2 1.1.9 1.4-.3.3-1.4-.1-2.5-.9-2.1-1.6-.8-2 1.6-.5zm3.5 5c.3.5.2 1-.4 1-.5 0-1.3-.5-1.6-1-.3-.6-.2-1 .4-1 .5 0 1.3.4 1.6 1zm9.5 12.4c2.8 3.6 5.1 9.7 6.5 17.1.5 3 .5 3-.7.5-.7-1.4-2.7-5.7-4.4-9.5-1.8-3.9-4.7-9.5-6.4-12.5-2.8-5-2.9-5.2-.5-2.5 1.4 1.6 3.9 4.8 5.5 6.9z"></path>
<path class="vZZIoKfC_30 zsjErlTW_30" d="M1028.5 376.7c-2.1.6-8.7 4.3-18 10.4-16.3 10.5-25 14.2-35.9 15.3-7.4.8-11.3 3.4-12.2 8.3-.8 4.4 1.2 6.3 6.8 6.3 3.8 0 4 .2 11.9 9.2 4.7 5.4 21.6 17 32.6 22.4 14.8 7.1 20 8.4 34.8 8.4 12.5 0 18.2-1.1 26-4.9 2.2-1.1 4.1-1.6 4.3-1.1.5 1.3-5.3 12.3-8.3 15.8-3.8 4.5-12.7 8.6-18.6 8.5l-4.7-.1-.6 14.2c-2.2 49.2-2.1 52.1 2.9 73l2.4 9.9-3.5 10.1c-4.9 13.9-10 34.2-11.5 45.6-1.7 12.6-1.7 53.1-.1 63.5 1.9 11.4 3.8 20.8 7.8 37.5 9.2 38.4 11 53.9 8 67.8-1.6 7.8-8.4 23.1-13.7 30.9-7 10.4-22.3 24.6-45.9 42.7-2.5 1.9-12.7 8.3-22.7 14.3-19.8 11.7-20.9 12.9-14.7 16.5 1.8 1 7.6 3 13 4.4 9.1 2.4 11 2.5 24.9 2 31.2-1.1 64.7-10.9 105-30.7 16.1-7.9 26.5-13.6 29.2-16.1 1.1-1 2.3-1.8 2.8-1.8 1.1 0 2.8-1.5 11.1-9.7 5.8-5.7 7.8-8.6 10.5-14.9 3-7.2 3.3-9 3.7-20.2.5-14.4-.2-17.9-6.5-31l-4.5-9.3 3.5-7.7c7.2-15.9 10-29.1 10-47.7-.1-20.9-2.8-34.3-13.5-66-7.2-21.2-8.2-29.4-5.3-43.3 1.8-9.2 9.1-27.9 12.7-32.7 5.1-6.8 10.9-15.8 10.6-16.6-.2-.4-1.8-1.8-3.7-3.1-1.9-1.3-3.9-3.1-4.5-4.2-1.2-2.1-4.2-5.8-7-8.8-1.8-2-1.8-2.2.4-7.2 2-4.6 2.3-7.5 3-29.1 1.1-29 2.7-44.4 6.2-58.5 2.1-8.5 3-9.4 15.2-15.4 6.3-3.1 11.7-6.3 12-7.1.3-.8 1.2-1.5 2-1.5 2.8 0 14.4-14.5 19.6-24.3 5.3-10.3 6-12.7 3.4-12.7-.8 0-7.7 1.3-15.2 3-24.3 5.2-26.1 5.4-46.2 5.4-14.3 0-23.7-.6-35-2.2-8.5-1.1-21.6-2.4-29-2.8l-13.5-.7-6-5.4c-3.2-2.9-6.8-5.5-8-5.7-1.1-.2-5.4-1.1-9.5-2-7.3-1.6-14.4-1.9-18.5-.9zm21.8 6.3c3.6 1.6 6.8 3 7.1 3 .4 0 2.9 1.6 5.7 3.6 4.9 3.4 5.6 3.6 17.2 4.5 13.6 1 25.3 2.2 43.2 4.4 22 2.7 43.8 1.6 67.9-3.4 15.9-3.4 15.9-3.3 9 7.9-8.1 13.4-19.6 23.2-34.3 29.6-4.1 1.8-7.8 3.9-8.3 4.6-1.5 2.3-5.7 17.1-6.8 23.9-.5 3.6-1.4 17.6-2 31-1.3 30.2-2.3 39.5-5 43.1-1.1 1.5-2 3.3-2 4.1 0 2.3 6 11 11.2 16.4l5 5.1-5.6 8.5c-6.1 9.2-11.3 19.7-14.5 29.6-1.8 5.5-2.1 8.9-2.1 23.6 0 17.1 0 17.3 3.4 26.6 11.5 31.7 14.5 44.3 15.3 62.9.9 22.6-1.4 34.6-10.7 54.5-3.8 8-3.8 8-2 11 12.8 21.1 14.4 39.2 5.2 58.5-5.3 11.1-19.2 21.9-45.7 35.5-39.6 20.4-83.3 33.5-111.4 33.5-13.2 0-32.1-4.2-32.1-7.1 0-.6 1.7-2 3.8-3.2 9.7-5.7 33.4-21.4 42-27.9 12.6-9.5 29-25.3 36.4-35.3 11.3-15.1 15.6-26.6 16.5-44.6.7-14.6-.3-21.8-7.7-54-7.5-32.1-8.7-38.5-10-53.4-1.3-15.3-1.3-27.6 0-40.6 1.9-18.6 4.3-29.5 11.7-52.2l4.5-14.1-3.3-14.6c-3.3-13.9-3.4-15.3-3.3-34 0-10.7.4-25.2.8-32.2l.8-12.6 5.1-.7c11.8-1.5 20.5-9.1 25.6-22.3 4.3-11.2 4.7-13.2 2.7-13.2-1 0-4.7 1.8-8.3 4-9.9 6-15.1 7.4-27.3 7.3-9-.1-11.8-.5-19.3-3.1-14-4.9-31-15.2-43.2-26.4-4.9-4.5-5.5-5.4-5-7.9l.7-2.9h-7.1c-7.2 0-8.6-.7-7.6-3.9.8-2.5 4.6-4 12.6-5.1 8.3-1 15-4 33.5-15 7.7-4.6 15.3-8.9 16.9-9.7 4.4-2 13.1-.9 20.8 2.7z"></path>
<path class="vZZIoKfC_31 zsjErlTW_31" d="M1063 410.9c-3 .5-3.9 1.4-6.4 6l-2.9 5.5 5.7 5.3c3.1 2.9 6.3 5.3 7 5.3 1.5 0 6.2-11.8 7.2-17.9.5-3.4.4-3.9-1.7-4.4-2.7-.7-3.8-.7-8.9.2zm8 2.4c0 .4-3.3 10.3-4.5 13.5-.4 1-1 1-3.3-.2-4.8-2.5-5.6-4-3.8-7.4 2.4-4.7 4.4-6.2 8.2-6.2 1.9 0 3.4.2 3.4.3z"></path>
<path class="vZZIoKfC_32 zsjErlTW_32" d="M1096.6 437.2c-.3 14.5-1 45.1-1.5 68.2-.9 40.1-1.1 41.9-3 44-4.2 4.5-3.9 15.5.5 20.3 2.4 2.6 2.5 3.1 1.9 11.3-.7 8-1 9.9-3.4 19.4-.7 2.9-.6 5 .3 7.8 1.1 3.2 1.1 4.5 0 7.8-1.2 3.5-1.2 4.6.3 8.7 2.4 7.1 2 26.5-.7 31.3-5.8 10.2-6.5 12.3-6.5 21.1 0 7.6.3 9 2.7 12.6l2.6 4-2.1 3.3c-1.7 2.6-2.2 5.6-2.7 15.8-.4 7.1-.3 14.2.2 16.2.5 1.9 1.4 6.2 1.8 9.5.5 3.3 1.4 8.4 2 11.4 1.9 10.1 1.3 16.1-2.1 21.1-5.5 8.2-6.9 11.7-6.9 17.3 0 6.7 2 11.6 6.4 16.1 12.6 12.5 33.6 2.5 33.6-16.1 0-5.5-1.5-9.4-5.6-14.8-1.3-1.7-3.2-5-4.2-7.4-1.8-3.9-1.9-4.7-.6-9.4.8-2.9 1.7-8.8 2-13.2.3-4.4 1.5-10.2 2.5-12.8 1.9-4.5 2-5.8.9-18-.8-10.6-1.5-13.8-3.1-16l-2.1-2.8 2.8-4.2c5.2-7.8 4.1-20.6-2.6-31.4-2.9-4.6-3-5.3-3.1-17.4-.1-7.6.3-13.4 1-14.7 1.4-2.7 1.4-11.5 0-12.9-.8-.8-.8-1.7 0-3.1 1.7-3.3 1.3-9.9-1-14.4-1.8-3.5-2-5.5-1.7-14.4.3-9.2.5-10.5 2.7-12.8 3.8-4.1 4-11.7.5-18.1-2.7-5-2.7-5.1-3.5-32-.4-14.9-1-45.1-1.4-67.3l-.8-40.2h-5.5l-.6 26.2zm5 61.8l.7 50.5 2.3 2.2c3.5 3.3 3.4 11-.2 14.4l-2.6 2.4.6 13.4c.4 8 1.2 14.7 2.1 16.8 2 4.6 1.9 8.2-.2 10.5-1.5 1.7-1.5 2.1 0 5.4 2.1 4.3 2.1 6.4.2 10-1.1 2.1-1.5 6.2-1.5 14.9 0 13.4.9 18.6 3.5 21.2 6.7 6.6 8.1 22.7 2.5 27.8-2.6 2.3-2.5 3.9.5 11.2 2.1 5.2 2.3 6.6 1.4 9.8-.8 2.7-.8 4.5 0 6.2 1.6 3.4 1.4 10.4-.4 14.7-.9 2.1-1.5 5.6-1.5 7.9.1 2.3-.6 7.8-1.5 12.2-2.3 11.3-1.6 17.5 2.4 22.8 7.8 10.3 8.8 17.4 3.4 25-4.3 6.1-7.7 8.2-13.3 8.2-3.9 0-5.5-.6-8.7-3.1-5-4-8.3-9.9-8.3-14.8 0-4 3.3-10.9 7.4-15.4 1.7-1.9 2.2-3.9 2.5-10.4.3-8.4-1.9-25.4-4.6-35-1.5-5.3-1.5-6.1 0-10 1.3-3.3 1.5-5.2.7-7.7-1.2-4.1-.5-7.3 2.5-12.6l2.3-4.1-3.5-5.4c-3.2-5-3.4-6-2.9-11 .7-7.2 3-13.8 6-17.3 4.1-4.8 4.5-21.5 1.1-38.3-.5-2.1-.1-4.2 1-6.3 1.5-2.9 1.5-3.5 0-6.3-1.7-3.6-1.9-6.7-.5-10 .5-1.3 1.3-8.6 1.9-16.2l.9-14-2.4-1.9c-2-1.5-2.4-2.8-2.4-7.1s.4-5.7 2.5-7.6l2.5-2.3v-41.2c0-22.7.3-47.4.7-55.1 1.2-24 2.2-8.9 2.9 45.6z"></path>
<path class="vZZIoKfC_33 zsjErlTW_33" d="M1052.6 639.5c-5.2 13.6-1.3 82.3 5 87.5 1.9 1.6 1.9-.6-.2-19.6-1.1-9.7-1.7-24.4-1.8-42.1-.1-19.8-.4-27.3-1.2-27.3-.7 0-1.4.7-1.8 1.5z"></path>
<path class="vZZIoKfC_34 zsjErlTW_34" d="M573 390.7c-6.3 3.7-11.7 7-12 7.3-.3.4-6.3 3.7-13.5 7.5-7.1 3.8-14.5 7.7-16.3 8.7-1.8 1-3.9 1.8-4.7 1.8-1.3 0-10.5-7.9-24.3-20.8-6.4-6-8.7-6.5-24.1-5.2-14.3 1.3-27.8 5.6-46.3 14.9l-13.3 6.6.1 5c0 2.7.8 9.3 1.7 14.5.9 5.2 2.3 14.2 3.1 20 .8 5.8 2 14.5 2.7 19.5.8 5.6 1.3 20.5 1.4 39.5 0 28.2-.2 31.4-2.3 42-2.6 12.5-2.5 17.9.4 26.8 2.5 7.6 6.1 11.2 11.2 11.2 4.9 0 6.1 1.3 2.6 2.8-2.1 1-2.3 1.5-1.4 3.3 1.9 3.5 8.1 9.9 9.6 9.9.8 0 1.7.7 2 1.5.4.8 1 1.5 1.5 1.5s4.1 2.2 8.1 4.8c4 2.7 9.9 6 13.1 7.5l5.7 2.7v9.5c0 8.8-.1 9.5-2 9.5-1.3 0-2.7 1.3-3.9 3.7-1.1 2.1-3.2 5.1-4.6 6.6-2.7 2.8-2.7 2.8-4.1.8-1.8-2.5-5.4-16.3-5.4-20.5 0-2.5-1.1-4.2-4.7-7.8-5.9-5.7-13.9-10.8-17-10.8H434l.3 17.7.2 17.8-3.1 6c-3.1 5.9-18.2 25.2-21 26.8-.8.4-1.4 1.4-1.4 2.2 0 .8-.6 1.8-1.4 2.2-.8.4-4.9 5.1-9.1 10.3-4.3 5.2-8.5 10.3-9.4 11.2-5.4 5.6-8.1 9.8-8.1 12.4 0 2.8 5 9.5 8.7 11.6 2.9 1.7 3.1 1.7 6.1-.5 1.7-1.3 4.8-4.6 6.9-7.4 4.2-5.7 7.7-8.8 11.5-10.2 4.6-1.7 49.4 10.8 72.8 20.4 13.1 5.4 29.6 13.1 33 15.4 3.6 2.6 7.8 3.1 15.5 2 18.7-2.6 45.7-15.7 67-32.3 15.8-12.3 21.6-18 24.7-24.5 2.7-5.7 3.4-12.9 1.5-15.6-1.5-1.9-1.5-1.9-5.3.6-7.5 5-25.1 10.9-38.1 12.8-13.3 2-28.6 1-39.4-2.5-4-1.3-4.8-1.9-5.3-4.7-1.4-8-1.7-64.4-.8-146.5.6-49.1 1.2-89.5 1.5-89.8.2-.2 4.2.4 8.8 1.5 27.4 6.3 69.3 6.1 101.9-.5 17.2-3.5 23-6.1 32.8-15.1 5-4.5 10.4-8.7 15.7-12.3 2.8-1.9 5.3-3.8 5.7-4.4 1-1.5 0-2.6-2.4-2.6-2.3 0-38.1-8.4-64.3-15-19.3-4.9-38.9-11.2-46.9-15.1-3.2-1.6-6.3-2.9-7-2.9-.6 0-6.3 3-12.6 6.7zm18.8-.3c10.9 5.4 37 12.9 86.2 24.5 6.9 1.6 14.1 3.2 16 3.6 1.9.4 3.8.9 4.2 1.2 1 .5-19.5 17.7-25.1 21-8.8 5.3-26 9.3-50.6 11.8-27.5 2.8-53.5 1.1-76.5-5-3-.8-6.2-1.5-7.1-1.5-1.5 0-1.7 9.2-2.2 103.7-.4 57.1-.3 112.6.1 123.3l.7 19.4 7.5 2.4c9.5 3 28.9 4 41 2.3 14.5-2.2 33.9-8.5 38.9-12.7l2.9-2.4-1.5 5.7c-.8 3.2-2.1 6.9-2.8 8.3-2.9 5.6-21.8 21.4-39.5 32.9-16.1 10.6-31.9 17.5-47.6 20.7l-7.5 1.6-18.7-9c-25.5-12.3-43.6-18.8-70.7-25.7-18-4.5-25.1-5.3-29.2-3.2-1.7.9-6.1 5-9.8 9.2-3.7 4.1-7.3 7.5-7.9 7.5-.7 0-2.7-1.5-4.5-3.4-2.6-2.7-3.2-4-2.7-5.8.3-1.3 6.5-9.3 13.7-17.8 41.4-49.2 39.5-45.9 38.6-68.6-.3-8.5-.2-15.4.3-15.4 1.5 0 13 8.1 14.9 10.5 1 1.4 2.1 4.9 2.5 8.2.9 7.6 3.1 15.8 5 18.9 2.4 3.6 5.9 3.1 10.3-1.6 10.2-10.6 9.5-9.3 10.1-21.5l.5-11.2-7.9-4.3c-9.2-5-27.2-17.1-29.8-19.9-1.7-1.9-1.7-2.1.4-5 3.4-4.5 2.2-6.1-4.8-6.1h-5.9l-2.9-6.3c-3.6-8-4.2-17-1.9-28.7 3.3-16.4 3-69.7-.6-94.5-.5-3.9-2.1-13.9-3.5-22.3-1.4-8.5-2.4-16.8-2.2-18.5.4-3.8 3.7-5.8 22.1-13.7 16.6-7 27.3-9.9 39.2-10.6l10-.5 14.5 13c8 7.1 15.6 13.6 16.8 14.3 2.1 1.1 3.3.8 10.5-3 4.5-2.3 17.4-9.5 28.7-16.1 11.3-6.6 21.1-12 21.8-12 .7-.1 3.4 1 6 2.3z"></path>
<path class="vZZIoKfC_35 zsjErlTW_35" d="M444.3 412l-2.2.9 2.1 5.8c1.8 4.9 2.2 8.6 2.5 24.3.3 10.2 0 25-.5 33-1.6 23.9 1.4 21.9 4.3-3 1.9-15.3 3.1-50.4 2.1-57.4-.7-4.2-1-4.6-3.4-4.5-1.5 0-3.7.4-4.9.9zm5.1 4.2c.5 2.3 2.6 16.2 2.6 17.2 0 .3-.4.6-1 .6-.5 0-1-1.5-1-3.3 0-1.8-.7-5.9-1.5-9-1.8-6.8-1.8-7.7-.5-7.7.5 0 1.2 1 1.4 2.2z"></path>
<path class="vZZIoKfC_36 zsjErlTW_36" d="M123 655.4c-8.2 3.7-15.4 7.7-26.8 14.8-1.5.9-4.1 2.4-5.9 3.3-1.7.9-3.9 2.5-4.9 3.6-.9 1-2.3 1.9-3.1 1.9-.7 0-1.3.5-1.3 1 0 .6-1.1 1.5-2.5 2s-2.5 1.4-2.5 2c0 .6-1 1.5-2.2 2.1-8.3 3.6-40.4 33.1-59.8 54.9-3.6 4-7.5 8.3-8.7 9.5-1.3 1.2-2.3 2.6-2.3 3 0 .4-.7 1.3-1.7 2-2.1 1.6-1 4.9 1.5 4.2 33.2-9.8 59-15.5 81.1-17.8 15-1.5 50.1-.7 59.9 1.5 20.6 4.6 40.1 13.3 52.3 23.3 14 11.6 15.2 12.4 17.3 12.1 1.7-.2 2.1-.9 1.8-3.6-.2-3.5-4.2-12-7.3-16.1-4.2-5.3-3.6-5.3 16.1.8 17.7 5.4 24.8 6.6 29.5 5.1 1.9-.6 3.5-1.6 3.5-2.1 0-2-7.7-10.9-16.4-18.9-5.1-4.7-13.4-12.9-18.6-18.3-10.5-11-42.6-40.4-57.5-52.7-3.6-3-7.8-6.7-9.3-8.3-1.4-1.5-3-2.7-3.5-2.7-.4 0-3.9-2.5-7.6-5.5-4.2-3.4-7.8-5.5-9.2-5.4-1.3 0-6.7 1.9-11.9 4.3zm18.2 3.2C170.8 681.4 251 756.5 251 761.4c0 1.5-.6 1.7-4.2 1.1-2.4-.4-12.7-3.1-22.9-6.1-10.3-3-19.6-5.4-20.8-5.4-3.1 0-2.7 2.7 1.5 9.6 4.6 7.6 7.6 13.5 7.2 14-.2.1-3.1-2.1-6.3-4.9-12.5-11-25.1-18.5-40-23.7-15.7-5.5-25.2-7.1-45.5-7.7-33.3-1-56.3 1.9-95.3 11.8-8.8 2.2-16.1 3.8-16.4 3.5-.7-.7 6.8-8.8 24.6-26.6 23.5-23.4 39.2-36.6 59.9-50.4 8.9-5.9 39.4-22.5 41.5-22.6.5 0 3.6 2.1 6.9 4.6z"></path>
<path class="vZZIoKfC_37 zsjErlTW_37" d="M1867.4 741.7c-12.5 19.9-19.2 27.1-27.9 29.8-3.1 1-5.9 2.4-6.2 3.2-.3.7.3 4.2 1.2 7.8 1.2 4.1 1.5 7.8 1.1 10.5-.7 4.8-3.5 12-4.6 12-1 0-7.6-14.6-8.5-18.8-.4-1.8-1.2-3.5-1.9-3.8-.7-.3-3.6 1.1-6.4 3-7.4 4.9-15.5 7.7-24.5 8.3-4.3.3-8 1-8.3 1.5-1.4 2.3 1 5.9 6.5 9.6 7.4 5.1 11.4 6.2 22.7 6.2 8 0 9.4.3 12.4 2.5 2.5 1.9 4.6 2.5 8.3 2.5 6.3 0 20.2-4.6 31.9-10.6 8.4-4.3 9.6-4.7 16-4.6 6.7.2 6.9.1 6.3-2.1-.4-1.2-1.5-4.9-2.6-8.2-3.2-10.4-4.1-18.4-3.5-29 .6-9.3.5-10.5-2.2-17.5-3.6-9.6-5-9.9-9.8-2.3zm8.7 23.3c.5 11.3 1.5 20 2.7 24.6l1.8 7.2-4.9.5c-2.8.4-9.9 3-16.7 6.1-22.2 10.3-29.9 11.9-34.2 6.8-2.3-2.7-2.5-2.7-13.8-2.7-12.3 0-15.2-.9-22.5-6.9-3.4-2.9-3.4-2.8 7.5-4.5 4.5-.7 10.5-2.6 14.9-4.6 4-1.9 7.6-3.5 8-3.5.5 0 1.3 1.9 2 4.2 1.8 6 7 15.5 8.8 16.3 2.2.8 5.2-2.2 7.6-7.4 1.6-3.7 1.8-5.7 1.3-12.5-.4-4.5-.9-8.9-1.2-9.8-.4-1.3 1-2.5 5.7-4.9 7.9-3.9 14.5-10.8 22.8-23.3l6.5-10 1.5 3.5c.9 2.2 1.7 9.5 2.2 20.9z"></path>
<path class="vZZIoKfC_38 zsjErlTW_38" d="M1397 811.7c0 .5.7 2.8 1.5 5.1 1.8 5.2 1.4 8.4-2.6 19.9-3.1 8.7-3.5 11.3-1.9 11.3.6 0 2.1 1 3.4 2.2 6.7 6.6 11.9 8.7 16.6 6.8 3.6-1.5 3.6-1.7.8-4.8-2.1-2.2-2.3-3.5-2.8-17.9l-.5-15.4-4.2-4c-3-2.8-5.1-3.9-7.3-3.9-1.6 0-3 .3-3 .7zm9.6 7c1.5 2.3 2 5.5 2.4 17.3.3 8 1 15.3 1.4 16.2 1.3 2.8-1.3 2.2-7.2-1.7-5.8-3.9-6.2-5.4-3.7-12.5.8-2.3 2-8.2 2.7-13.1.6-4.9 1.5-8.9 1.9-8.9.4 0 1.5 1.2 2.5 2.7z"></path>
<path class="vZZIoKfC_39 zsjErlTW_39" d="M1905.4 814.2c1.8 9.9 1.8 10.3-1.8 21-4 11.9-4.2 12.8-2.3 12.8.8 0 2.4 1.2 3.8 2.6 4.4 4.8 10.5 7.7 14.5 7 4.6-.9 5.3-3 2-6.1-2.6-2.4-2.6-2.6-2.6-16.7 0-12.4-.3-14.7-2-17.5-2.1-3.5-6.6-6.3-10.1-6.3-1.9 0-2.1.4-1.5 3.2zm8.3 4.5c1.4 2.1 1.9 5.7 2.4 17.2.3 8.1.9 15.4 1.3 16.3.5 1.2.4 1.8-.5 1.8-2.1 0-10.8-6.1-11.4-8-.3-1.1.4-5.2 1.5-9.1 1.2-4 2.4-9.7 2.7-12.8.8-9.1 1.2-9.7 4-5.4z"></path>
<path class="vZZIoKfC_40 zsjErlTW_40" d="M1340.8 815.5c-2.6.7-6.2 2.2-8 3.4-1.8 1.1-4.5 2.9-5.9 3.8-2.8 1.8-5.9 7.9-5.9 11.8 0 1.3-.5 7-1.2 12.6-1.1 9.9-1.2 10.3-5.3 14.9-2.2 2.5-4.7 6.1-5.4 7.9-1.9 4.5-.5 5.6 4.8 4 3-.9 4.5-.9 5.3-.1.6.6 1.3 8 1.6 19 .5 17.5.4 18-1.6 19.1-2.9 1.5-7.4 9.5-7 12.3.3 2.1.9 2.3 9.3 2.9 9 .6 12.5 1.4 12.5 2.8s8.1 3.2 11 2.6c3.2-.7 14-11.6 14-14.2 0-1.3-.9-1.5-5.2-1-3.9.3-6.2 0-8.9-1.4-3.4-1.7-3.6-2.1-4.3-8-.3-3.4-.6-11.3-.6-17.5V879h3.4c1.8 0 4.6-.5 6.2-1.1 3.2-1.2 12.8-12.3 14.5-16.6 1.4-3.8-.3-5.1-3.7-2.7-5.3 3.7-7 4.4-11.9 4.4-7.9 0-8-.2-7.9-13.8.1-11.1.3-12.2 3.3-18.4 2.9-6.1 5.9-9.6 10.6-12.4 1.2-.6 1.6-1.6 1.2-2.7-.8-2.1-7.8-2.2-14.9-.2zm3.3 7.5c-2.2 2.8-4.3 6.8-4.7 8.8-.4 2-1.1 4.3-1.7 4.9-1.3 1.8-4.2 1.6-5.7-.2-.7-.8-2.2-1.5-3.4-1.5-4.8 0-5.3-1.6-2-6.2 3.4-4.8 13.6-10.8 18.5-10.8h2.9l-3.9 5zm-17.6 19.1c.4.5 2.8 2 5.3 3.2l4.7 2.2.3 7.7c.2 5.4.7 8 1.9 8.9.8.8 5.2 1.6 9.6 1.9l8 .5-2.8 3.3c-3.6 4.3-7.5 6.2-12.5 6.2h-4v17.9c0 9.9.4 19.1 1 20.5 1 2.8 4.8 5 10.3 6 2 .4 3.7 1.1 3.7 1.5 0 .9-7.6 8.1-8.6 8.1-.3 0-3.6-1.4-7.4-3-4.8-2.1-8.5-3-12.2-3-8.3 0-8.9-.9-4.5-7.3l3.7-5.3v-19.5c0-21.6-.3-22.6-5.9-23.1l-3.5-.3 3.2-3.6c3.7-4.2 4.7-6.6 5.6-13.4 1.4-10.3 2.3-12.4 4.1-9.4zm8.5-.1c0 1.3-1.1 1.3-3 0-1.2-.8-1.1-1 .8-1 1.2 0 2.2.4 2.2 1z"></path>
<path class="vZZIoKfC_41 zsjErlTW_41" d="M1535.5 816.1c-6.7 2.3-13.5 7-15.9 11-.8 1.4-2 7.3-2.6 13.5-1.6 16.7-1.9 17.5-5.9 21.5-2.1 2-4.3 5-5 6.8-1.6 3.8-.8 6.6 1.7 5.6.9-.4 3.1-.9 4.9-1.2 3.1-.5 3.2-.4 3.7 3.8.3 2.4.8 10.7 1.1 18.4l.5 14.1-3.4 3.3c-3.9 3.8-7.1 10.3-6.3 12.5.5 1.3 2.3 1.6 8.5 1.6 6.4 0 8.8.5 12.4 2.4 6.6 3.5 10.1 4 14.2 2.1 3.3-1.6 12.6-11.6 12.6-13.6 0-.5-2.9-.8-6.4-.7-5.3.3-7-.1-9.3-1.8l-2.8-2.1-.3-17-.2-17 5.1-.5c4.6-.5 5.7-1.1 9.2-4.9 6.4-7.1 9.7-12 9.7-14.6 0-3-.6-2.9-6 .7-3.7 2.4-5.6 3-10.1 3-3.6 0-6.1-.5-6.8-1.4-.7-.9-1.1-5.5-1-12.7.1-10.1.4-12.1 2.8-17.4 2.5-5.4 6.8-10.2 11.6-13.1 1.2-.6 1.6-1.6 1.2-2.7-.9-2.4-9.6-2.2-17.2.4zm5.7 6.4c-2.6 3-4.4 6.3-5.2 9.5-1 4-1.7 5.1-3.6 5.6-1.6.4-3.1.1-4.2-.9-.9-.8-2.8-1.7-4.2-1.9-3.8-.5-3.5-3.3.7-7.7 4.6-4.8 12.5-9 17.1-9.1h3.4l-4 4.5zm-13.7 22.4c1.1.5 2.7 1.2 3.6 1.4 1.3.4 1.8 2.5 2.4 9.2.8 10.2 1.2 10.5 12.8 10.5h7.2l-4.6 4.6c-4 4-5.3 4.7-10 5.2-3.4.5-5.4 1.2-5.3 1.9.1.7.2 9.6.3 19.8l.1 18.5 3.1 1.9c1.7 1 4.8 2.2 7 2.5 2.1.3 3.9 1 3.9 1.5s-1.8 2.5-4 4.5c-3.3 2.9-4.4 3.4-6.2 2.7-1.3-.5-4.7-1.8-7.6-3-2.9-1.2-7.4-2.1-10-2.2-8.5-.1-8.9-.7-4.6-6.9l3.8-5.5.1-18.5c0-10.2-.3-19.7-.8-21.3-.7-2.4-1.2-2.7-4.9-2.7h-4.2l2.6-2.8c4.4-4.7 5.6-7.5 6.8-15.7.7-4.4 1.4-8.4 1.7-8.8.3-.5 1.5-.1 2.6.8 1.2.8 3.1 1.9 4.2 2.4zm4-2.9c.8 1.3-.5 1.3-2.5 0-1.3-.8-1.3-1 .2-1 .9 0 2 .4 2.3 1z"></path>
<path class="vZZIoKfC_42 zsjErlTW_42" d="M1557.5 818.9c-.4.8.9 2.6 3.4 4.8 7.6 6.5 7.4 5.3 8.2 47.3.3 21.6 1 38.8 1.7 40.6.9 3 .9 3.2-1.9 3.8-2.6.5-4.3 3.6-2 3.6.4 0 2 1.8 3.5 4 1.4 2.2 4.4 5.2 6.6 6.6 3.3 2.2 4.8 2.6 8.5 2.1 2.5-.2 5.5-1.3 6.5-2.2 2.6-2.4 10-1.5 17.5 2l5.6 2.7 3.3-2.3c1.8-1.2 4.4-3.8 5.7-5.7 2.2-3.4 2.4-3.4 2.7-1.3.3 2 .8 2.2 3.8 1.7 1.9-.3 5-.9 7-1.2 2.9-.5 5.1.1 12.1 3.6l8.7 4.2 4.4-2.3c5.4-3 13.4-11.4 13-13.6-.3-1.5-1.5-1.7-9.1-1.4-6.8.2-9.6-.1-12.8-1.6l-4-1.8.4-7.8c.4-9 1.5-10.6 7.6-11.4 4-.5 4.2-.7 3.6-3.4-.6-2.5-.2-3 3.2-4.7 7.6-3.9 10.3-9.6 7.2-15.4-.7-1.3-3.1-4.4-5.4-7-2.3-2.6-5.2-6.7-6.3-9-1.8-3.8-1.8-4.5-.6-5.9 1.3-1.4 1.3-1.8 0-2.8-2.3-1.9-4.9-.6-10.5 5.4-3.6 3.8-5.1 6.2-5.1 8.2 0 2.8-.2 3-9.9 9l-3.6 2.2.4 22.3c.2 16.3 0 23-1 25-.9 2.1-1.5 2.5-2.5 1.7-.7-.6-2.2-.8-3.4-.4-6.3 2-8.4-3.1-7-17.6.6-5.7.7-12.9.4-16.1-.5-4.7-.3-6.2 1.7-9.7 1.4-2.6 1.9-4.5 1.3-5.1-.5-.5-3.8-1.7-7.4-2.6-6.6-1.7-9.9-3.6-15.1-8.8-2.4-2.3-3.5-2.7-5.9-2.2l-3 .5v-7.3c0-6.2.4-7.9 2.5-11 3.2-4.7 3.1-5.6-.3-5.6-2.2 0-3.4-.9-5.3-3.7-3.9-6-12.3-10.3-21.5-11.1-4.2-.3-6.4-.1-6.9.7zm15.3 4.7c2.9 1.4 7.2 4.8 9.6 7.6l4.5 5.1-.6 12.2c-.6 13-.3 14.2 3.9 12.6 2.7-1 4-.4 10.5 4.5 2.3 1.8 5.7 3.5 7.5 3.9 7.4 1.5 6.9-.6 6.2 22.3-.7 24.6-.2 28.3 4.4 29.6 1.8.5 3.2 1.2 3.2 1.5 0 .4-1.5 2.1-3.2 3.9l-3.3 3.1-8-3.3c-7.2-2.9-8-3.5-7.6-5.7.2-1.3.5-13.6.8-27.3l.4-24.9-2.3.7c-1.3.3-4.7.9-7.6 1.2-2.9.4-5.4 1-5.7 1.4-.2.3-.1 13.2.4 28.6.4 15.3.6 28.1.4 28.3-.5.8-9.1-3-10.6-4.7-2.1-2.4-3.3-7.2-1.7-7.2 1.3 0 1.1-2.5-1-11.5-1.6-6.9-1.9-33-.4-34.5.9-.9 1.5-.5 2.5 1.6.8 1.5 2 2.9 2.7 3.2 2.3.7 1.2-4.1-2.5-10.7-3.6-6.6-3.6-6.6-3.5-18.1.2-13-.8-17.6-4.3-21.8-4.3-5.1-2.7-5.6 5.3-1.6zm90.7 40.7c3.6 4.3 6.5 8.6 6.5 9.6 0 2.5-7.5 9.2-9.5 8.5-2.3-.9-13.5-19.5-13.5-22.4 0-1.6 1.5-4.4 3.7-7l3.7-4.3 1.3 3.9c.7 2.2 4.2 7.4 7.8 11.7zm-18.3 11.3c2.6 10.4 3.1 11.2 7.5 11.6 5.1.4 5.3 2.5.3 3.8-5.2 1.4-6 3.4-6 15.2 0 8.1.2 9 2 9.5 1.4.4 2 1.4 2 3.2 0 4.5-1.3 5.5-5 4.2-1.8-.6-5.7-1.1-8.6-1.1h-5.2l.9-3.3c1-3.7 1.6-29.6 1-39.6-.4-5.6-.2-6.6 1.5-7.5 1-.6 3-1.9 4.3-2.9 1.3-.9 2.6-1.5 2.8-1.3.3.2 1.4 3.9 2.5 8.2zm6.8 2.5c1.8 3.5 1.9 4 .5 4.5-2.1.9-2.4.5-3.4-4.9s.1-5.3 2.9.4zm-54.2 17.1l-.3 21.3-2.8 4.4c-4.6 7-5.1 5-5.7-21.2-.3-12.8-.9-23.8-1.3-24.5-.6-.9.5-1.2 4.8-1.2h5.6l-.3 21.2zm72.2 25.2c0 .9-10.8 8.6-12.1 8.6-.8 0-2.5-.9-3.8-1.9l-2.3-1.8 3.3-2.6c2.8-2.2 4.5-2.7 9.2-2.7 3.1 0 5.7.2 5.7.4z"></path>
<path class="vZZIoKfC_43 zsjErlTW_43" d="M1195.5 829.4c-6 3.9-11.2 9.7-12.2 13.4-.3 1.5-.1 12.1.5 23.7 2 35.3 1.7 47.1-1.7 60-1.6 6-2.6 11.3-2.2 11.8 1 1 16.1-6.6 18.8-9.4 3.6-4 4.9-14.4 3.5-28.6-3.8-38.3-3.7-57 .7-68.1 2.9-7.4.8-8.2-7.4-2.8zm1.5 11.7c-1.7 10.9.2 49.8 3.1 64.5.8 4.1.6 6.6-.7 12-2 8.1-3.2 9.8-9.8 13.1l-4.9 2.5.9-2.4c.4-1.2.9-21.2 1-44.3 0-23.1.4-43 .8-44.2.8-2.4 9.5-10.8 10.3-9.9.3.3 0 4.2-.7 8.7z"></path>
<path class="vZZIoKfC_44 zsjErlTW_44" d="M1951.6 849.3c-1.7 1.8-3.8 5.3-4.7 7.8-1.6 4.3-1.7 4.4-7.2 5.1-6 .8-9.7 2.2-9.7 3.8 0 .5.7 2.8 1.6 5 1.3 3.3 1.5 7.3 1.2 24.2-.2 14.4-.7 21-1.7 22.7-.9 1.7-1.5 2-2.1 1.1-.4-.6-2.3-1.5-4.1-1.9l-3.4-.7-.7-9.9c-.9-11.2-.3-21.1 1.8-30 .7-3.3 1.4-7.5 1.4-9.3 0-2.9-.3-3.2-2.9-3.2-4 0-9.1-2.3-12-5.4-3.7-3.9-5.7-3.3-9.6 2.9-2.6 4-4.2 5.5-5.8 5.5-1.3 0-2.8.5-3.5 1.2-.9.9-1.7.7-3.5-1-1.3-1.2-2.7-2.2-3.1-2.2-.5 0-2.6-1.6-4.7-3.5-4.7-4.2-6.7-4.3-11.8-.9-2.2 1.4-5.8 2.8-8.1 3.1-3.2.5-4.4 1.2-5.6 3.5-.8 1.6-2.6 3.3-4 3.8-3 1.2-4 3.5-2.6 6.3.6 1.2 1.3 10.4 1.6 20.4l.6 18.2-5.6 1.1c-3 .7-5.8.9-6.2.6-.8-.8-.5-39.4.3-46.9.7-5.4.6-5.7-1.6-5.7-1.3 0-3.8-1.7-6.1-4.1-3.5-3.7-13.6-9.9-16-9.9-.6 0-2.7 1.8-4.7 3.9-3.6 3.8-11.3 7.1-16.7 7.1-3.2 0-3.4.8-1.9 6.6.7 2.8 1.8 13.1 2.4 23 .6 9.8 1.4 19.2 1.7 20.9.5 2.8.3 3-2.8 3.1-1.8.1-4.5.5-6 .9-3.7 1-4-.7-4.1-22.9-.1-15.2.2-20.2 1.5-24.4 1.9-5.9 1.5-8.8-1.1-7.5-3 1.5-15.4.8-20.4-1.1-4.8-1.9-4.8-1.9-7.7.2l-2.9 2.2-3.4-2c-1.9-1.2-5.8-2.3-8.6-2.7-4.2-.5-5.9-.1-10.6 2.2l-5.6 2.7-2.4-2.2c-2.2-2-2.7-2.1-5.4-1-3.4 1.4-14.4 13.6-13.8 15.4.2.6 1.7 1.2 3.4 1.4 2.9.3 3 .5 3.7 6.5.3 3.4 1.1 8.6 1.8 11.5.9 4.2.9 5.8 0 7.3-.7 1-1.2 2.7-1.2 3.7s-1.4 4-3.1 6.8c-1.8 2.7-3.4 6.8-3.7 9-.4 4.1-.4 4.1 3.2 4.8 1.9.4 6.5 2.1 10.1 3.8l6.6 3 3.9-3.1c5.1-4 9.5-4.1 17.4-.1 5.8 2.9 6 3 8.4 1.3 4-3 8.6-5.3 10.3-5.3.9 0 4.7 1.6 8.5 3.5 6.3 3.1 7.1 3.3 9.1 2 3.7-2.4 7.2-6.8 8.4-10.2.6-1.8 1.4-3.3 1.9-3.3s3 2.9 5.5 6.5c2.9 4 5.6 6.7 7.2 7.1 1.4.4 5.9-.3 10.3-1.5 10-2.7 14.7-2.7 17.7.1 2.1 2 2.6 2 6.5.9 2.3-.7 5.5-2.7 7.1-4.4l2.9-3.1h12.1c9.1-.1 13 .3 15.2 1.4l3 1.6-.1 8.5c-.2 9.9-.9 11.6-8.1 19.3-2.9 3.1-5.3 6.1-5.3 6.6 0 2.8 17.7.1 23.2-3.5 7.5-5 7.3-3.6 7.3-44v-36l2.4-3.4c3-4.1 3.3-3.6 5.5 8.8 1.6 8.8 1.6 9.8 0 18.2l-1.7 8.9 2.6 5.5c1.5 2.9 2.5 6 2.2 6.7-.3.7 1.2 3.3 3.3 5.7 3.2 3.8 4.4 4.4 7.3 4.3 4.1-.1 8.4-2.2 10.4-4.8 1.3-1.8 1.4-1.8 2.7-.1 1.1 1.5 1.8 1.6 4.1.8 4.3-1.7 8.1-1.3 15.3 1.4 9.4 3.5 21.4 3.2 21.4-.6 0-.5 1.2-2.2 2.6-3.7 2.5-2.7 5.8-8.2 5.2-8.6-.2-.2-4.3-.8-9.3-1.5-4.9-.7-10.7-1.6-12.7-2.2l-3.8-1v-7.2c0-4 .3-12.3.7-18.6l.6-11.4 2.9 6.1c3.2 6.8 5.3 8.5 10.1 8 2.6-.2 3.6-1.2 6.1-5.5 1.7-2.9 3.8-5.6 4.9-5.9 2.7-.8 1.8-4.6-1.5-6.2-4.1-1.9-6.4-5.5-9.3-14.1-1.4-4.3-3.4-8.6-4.4-9.5-2.9-2.7-7-2-10.5 1.7zm8.3 2.3c1.1 1.4 2.7 4.9 3.7 7.7 2.6 8 5 12.1 7.8 13.7 3 1.6 3.2 2.3 1 4.1-.8.7-2.4 3-3.5 5.1-1.1 2.1-2.2 3.8-2.5 3.8-2.3 0-5-3.2-8.4-10-2.2-4.3-4.4-8.1-5-8.5-1.4-.9-4 1.3-4 3.4 0 .9-.9 2.7-2 4.1-2.7 3.4-2.5 5 .6 5h2.6l-.7 18-.8 18h3.2c4.5 0 20.1 3.1 20.1 4 0 1.4-7.7 8.7-9.7 9.2-1.1.3-5.2-.6-8.9-1.9-4.7-1.8-9.2-2.6-14.1-2.7-4 0-7.3-.1-7.3-.2 0 0 .8-1.6 1.8-3.5 1.4-2.9 1.8-6.8 2-25.2.2-12.9-.1-23-.7-24.7-1.2-3.6.2-5 6.1-5.7 5-.7 7.3-2.4 9.5-7.2 2.2-4.7 5.2-9.1 6.3-9.1.5 0 1.8 1.2 2.9 2.6zm-140.4 5.8c1.7 1.1 5.6 4.5 8.8 7.5l5.7 5.5v24.3c0 17.1.3 24.4 1.1 24.9.7.4 2.6.7 4.2.8 4 .1 4.4 1.9 1.3 5.1-2.8 2.8-6.3 3.2-9.2 1-2.7-2.1-11.7-1.8-19.4.5-3.6 1.1-7 2-7.7 2-.7 0-2.6-2-4.3-4.4l-3-4.5-.4-17.3c-.4-15.5-.3-16.8.9-12.2 1.5 6.4 5.3 13.2 7.6 13.9 1.4.5 1.9 1.9 2.1 6.8.3 5.9.4 6.2 2.9 6.5 4.2.5 9.8-2.3 11-5.5.6-1.8.9-10.4.7-23-.3-18.7-.5-20.4-2.3-22.1-2.6-2.5-10.4-4.5-11.1-2.9-.2.7-.8 8.8-1.2 18.2l-.8 17-1.7-3.9c-.9-2.1-1.7-4.9-1.7-6.2 0-1.4-1-3-2.4-3.9-3.3-2.2-5.3-6.8-6.1-14.1l-.7-6 5.4-1.3c5.9-1.3 12.1-5 13.8-8.1 1.1-2.1 1.4-2.1 6.5 1.4zm98.6 9.6c3.4 0 3.3-.2 1.4 7-2.1 8-2.7 17.8-1.8 32l.8 12.5 3.5 1.2c2 .6 3.4 1.7 3.2 2.5-.4 1.9-6.3 6.8-8.3 6.8-1.9 0-6.9-5.4-6.9-7.5 0-2-3.3-8.8-4.6-9.7-.8-.5-.8-2.4-.2-6.5 1.3-7.6.2-27.2-1.8-32.5-.8-2.4-1.8-5-2-5.8-.3-.9.4-2.8 1.6-4.2l2-2.6 5.1 3.4c2.9 1.9 6.4 3.4 8 3.4zm-174.8-4.9c1.2.6 3.1 2.3 4.3 3.7 2.2 2.7 4.2 2.3 7.7-1.5 1.7-1.9 1.8-1.9 7-.2 2.8 1 8.1 1.8 11.6 1.9 6.1 0 6.3.1 5.7 2.2-1.4 5.2-1.7 18.3-.7 33.8.9 14.9 1.2 16.7 3.1 18.2 2.3 1.9 1.8 3.8-1.7 7.1-1.9 1.6-2.2 1.6-8.1-1.3-3.4-1.7-6.9-3-7.7-3-2.6 0-2.9-3-.6-5.8 4.8-5.9 5.4-8.8 4.9-23.2-.5-15-1.6-18.8-6.1-20.3-1.6-.5-4.8-.6-7.1-.3l-4.3.7-.6 9c-.4 4.9-.4 15 0 22.5.6 13.1.7 13.5 3.1 14.8l2.5 1.3-3.4 3.6-3.4 3.6-6-2.9c-3.3-1.6-6.8-2.9-7.8-2.9-2.8-.1-3.2-3-.8-5.9 5-6.4 5.5-8.1 5.4-20.2 0-14.1-1.6-22.4-4.6-24.5-1.2-.8-3.8-1.5-5.8-1.5-7.3 0-6.9-1.3-6.9 24.6 0 22.9 0 23.3 2.2 24.8l2.2 1.6-2 2.7c-2.8 3.7-5.3 3.9-11.3.9-2.8-1.4-5.9-2.6-7.1-2.6-2.8 0-2.5-2.4 1-7.3 4.2-5.9 5.2-12.6 4-25.6-.5-5.8-1-11.6-1-12.8 0-1.2-.7-2.9-1.6-3.8-1.8-1.7-1.8-1.7 4.5-8.7l2.5-2.8 2.6 3.2 2.7 3.2 4.3-2.8c6.8-4.5 13-5.7 17.3-3.5zm138.7 6l9 7.1v14.3l-4.8 3.2c-2.6 1.8-5.1 3.3-5.5 3.3-.4 0-.7-6.1-.7-13.6v-13.7l-3.7.7c-2.1.3-6.1.9-9 1.2l-5.2.7-.7 4.5c-.7 5 .1 29.4 1.2 32.9.7 2.7 1.9 3.1 10.4 3.5 6.4.3 6.5.3 6.8-2.4.2-1.6 1.1-3 2.2-3.3 1-.3 2.2-1.4 2.5-2.4.3-1 1.9-3 3.5-4.6l3-2.9.1 22.5c.2 28 .2 28.9-2 31.9-2.1 3-9.1 6.6-14.6 7.5l-4 .7 4.5-4.6 4.4-4.6.6-9.8c.6-10.4-.1-16-2.2-17.3-2.9-1.9-8.7-2.9-17-2.9h-8.8l-.1-14.3c0-7.8-.4-17.7-.7-22l-.8-7.7 4.2-4.5c2.7-3 4.9-4.5 6.5-4.5 1.4 0 4.5-1.3 6.9-2.9 2.5-1.6 4.6-3 4.8-3 .1-.1 4.3 3.1 9.2 7zm-63.8 5c1 4.5 1.3 34.8.4 37.6-.7 2.1-6.3 4.9-7.5 3.7-.8-.7-1.4-44.1-.7-46 .5-1.2 1-1.2 3.8-.1 2.5 1 3.4 2.2 4 4.8zm58.1 4.4c.5 2.2.6 6.6.2 9.8-.8 7.1.8 12.7 3.6 12.7s2.3 1.7-.8 3.2c-1.6.7-2.9 2.3-3.1 3.6-.3 1.9-.9 2.2-4.8 2.2-3.7 0-4.6-.4-5.4-2.3-2.7-6.3-2.7-29 .1-32.3.8-1 2.6-1.4 5.3-1.2 3.8.3 4.1.5 4.9 4.3zm-142.9-2c.9.9 2 3.4 2.6 5.7 1.6 5.9 1.6 24.7 0 27.8-2.1 4.2-5.2 7-7.7 7h-2.3v-42h2.9c1.6 0 3.7.7 4.5 1.5zm28.6 2.3c2.7 2.2 3.9 8 4 19.7 0 10.7-1.7 14.9-7.4 17.8-2 1.1-3.9 1.7-4.3 1.4-.3-.3-.8-9.4-1.1-20-.5-18.5-.4-19.5 1.4-20 3.6-.9 5.2-.7 7.4 1.1z"></path>
<path class="vZZIoKfC_45 zsjErlTW_45" d="M1227 855.5c-5 4.1-9.5 4.6-14.6 1.4-1.9-1.1-3.8-1.8-4.4-1.4-1.8 1.1-1.1 6.8 1.1 9.1l2.1 2.2-2.5 1.6c-2.3 1.6-2.4 1.9-1.9 11.9.2 5.6.8 10.9 1.3 11.8.4.8.4 7.6 0 15.1-.6 10.3-1.2 14.3-2.5 16.3-1.9 2.9-1.5 5.5.9 5.5.9 0 3.4-.9 5.7-2.1 4.7-2.4 5.3-2.3 19.1 3.2l9.9 3.9 3.1-2.2c4.3-2.9 8.5-6.8 10.8-9.9 1.7-2.5 1.8-2.9.3-5.9-1.4-2.7-1.6-6.3-1.2-23.8.4-19.8.5-20.6 2.6-22 3.6-2.4 2.6-3.9-3.5-5.7-7.8-2.3-12.9-5-16.9-9.1-1.9-1.9-3.9-3.4-4.3-3.4-.5 0-2.8 1.6-5.1 3.5zm15.6 9c2.9 1.4 5.9 2.5 6.8 2.5 1.9 0 1.8-2 1.7 29.5v25l-5 4.2-5 4.1-9.3-3.6c-6.5-2.4-11-3.5-15-3.6-6-.1-6.6-.4-4.7-2.3.8-.8.8-2.5 0-6.3-.6-2.8-1.1-13.4-1.1-23.5v-18.4l2.5-1.9c3.1-2.5 3.2-4.6.3-6.6-2.1-1.5-1.9-1.6 4.8-1.6 6.2 0 7.3-.3 10.4-2.9l3.5-2.9 2.5 2.9c1.4 1.6 4.8 4 7.6 5.4z"></path>
<path class="vZZIoKfC_46 zsjErlTW_46" d="M1229.7 864.7c-.4.3-.7 1.5-.7 2.5 0 1.3-.8 1.8-3 1.8h-3l.2 22.6.3 22.7 5.5 1.8c8.7 2.9 9.8 2.6 10.5-2.4 1.2-7.8.1-46.5-1.3-47.9-1-1-1.5-1-2.3.2-.8 1.3-1.1 1.3-2.3-.3-1.4-1.8-2.8-2.2-3.9-1zm8 24.2c-.4 10.3-1 20.3-1.3 22-.6 3-.8 3.1-4.3 2.5-2-.3-4.2-.7-4.9-1-1-.3-1.2-4.8-1-20l.3-19.7 4.5-1.2c8-2.2 7.4-3.6 6.7 17.4z"></path>
<path class="vZZIoKfC_47 zsjErlTW_47" d="M1214.6 882.9c-.9 1.4 3.2 10.3 4.6 9.9.6-.2 1.5-1.3 1.9-2.5.6-1.6.1-2.9-2-5.2-3-3.3-3.7-3.6-4.5-2.2z"></path>
<path class="vZZIoKfC_48 zsjErlTW_48" d="M1245.6 888.5c-1.5 1.5-4.6 10.4-4.6 13.2 0 .7.8 1.3 1.9 1.3 2.3 0 5.2-5.7 5.9-11.7.5-4.6-.5-5.4-3.2-2.8z"></path>
<path class="vZZIoKfC_49 zsjErlTW_49" d="M1429.5 862.4c-8.5 8.5-9.6 11.6-4.1 11.6h3.4l.7 7.3c1.2 12.1.3 25.9-1.8 28.7-6.6 9.1-5.9 8.6-9.7 7.4-3.3-1.1-3.5-1.5-4.2-6.5-1.3-10.9-.8-23 1.3-33.5 1.2-5.7 1.9-11.1 1.5-11.9-.3-.9-1.8-1.5-3.8-1.5-3.6 0-9.5-3.2-11.6-6.1-2.7-3.9-7.2-1.2-10.2 6.2-1.1 2.6-1.1 3.5.2 5.7 2.4 4.3 6.1 21 5.3 24.6-2.8 13.6-2.9 16.2-.7 20.8 1.2 2.4 2.2 5.3 2.2 6.4 0 1.1 1.6 3.9 3.6 6.2 3.1 3.6 4.1 4.2 7.5 4.2 3.7 0 7.6-1.7 10.8-4.8 2-1.9 9.1-.8 16.1 2.5 3 1.5 6.2 2.5 7 2.4 2-.4 6.1-3.8 8.3-6.9l1.9-2.7-.6 4c-.7 5-3.2 8.3-7.9 10.8-5.6 2.9-4.7 6.7 1.7 6.7 4.1 0 12.5-2.7 16-5.1 1.9-1.3 4.5-4.2 5.8-6.4 2.3-3.9 2.3-4.6 2.3-32.7 0-28.7 0-28.8 2.2-30.3 3.3-2.3 4.6-5.1 3.4-7.4-.8-1.4-2.5-2-7.3-2.3-3.7-.2-8.2-1.3-10.9-2.6-4.9-2.4-6.7-2.2-11.6 1.4-2 1.5-2.3 1.4-4.4-1-1.3-1.4-2.8-2.6-3.6-2.6-.7 0-4.6 3.4-8.8 7.4zm9.5-2.4c0 .5 1.1 1.7 2.5 2.6 2.4 1.6 2.7 1.5 6.4-1 3.8-2.7 3.8-2.7 8.2-1 2.4 1 4.6 1.9 4.8 2 .2.2-.6 1.6-1.8 3.2-2.4 3.4-2.7 6.2-.8 6.2 1.8 0 4.3-2.8 5.6-6.3.9-2.2 1.7-2.7 4.6-2.7 4.1 0 4.7 2 1.3 4.5l-2.3 1.5.3 26.3c.4 30.4-.1 33.9-5.8 39-3.8 3.5-12.5 7.5-13.7 6.4-.3-.4.6-1.7 2.2-2.9 5-3.9 5.6-7.2 6.2-32.2.4-16.9.9-23.8 2-25.9 1.9-3.8.5-5.9-6.2-9.2-4.3-2.1-5.9-2.5-6.8-1.6-.8.8-1.3 8.3-1.5 23.7-.3 19.2-.1 22.9 1.3 25 .8 1.3 2.2 2.4 3.1 2.4 1.3 0 1.3.4-.3 3.1-3 5.2-5.1 5.5-13.1 2-3.9-1.7-7.7-3.1-8.6-3.1-2.3 0-2-.8 2.2-6.9l3.7-5.5-.1-17.7c-.1-15.1-.3-18.2-1.8-20.4-1.7-2.5-1.7-2.8 0-4.8 6.1-7.3 8.4-9.1 8.4-6.7zm-38.9 1.6c1.7 2 8.3 5.4 10.7 5.4 1 0 2.1.2 2.4.5.3.3-.4 4-1.4 8.3-1.7 6.7-1.9 10-1.4 25.1.6 18.3.9 19.1 5.3 19.1 1.2 0 2.4.4 2.7.9.9 1.4-6.6 8.1-9.1 8.1-2.6 0-6-4.4-6.9-8.9-.4-1.7-1.1-3.4-1.5-3.7-.5-.3-.9-1.2-.9-2.1 0-.9-.7-2.1-1.4-2.7-1.3-.9-1.3-2.4-.4-9.4 1.3-10.3-.3-26.8-3.1-32.3-1.9-3.6-1.9-3.7.2-6.8 2.5-3.5 3-3.7 4.8-1.5zm53.2 13.6c3 1.6 3.7 2.3 2.5 2.6-1.6.3-1.8 1.8-1.8 14 0 7.5-.3 16.1-.7 19-.6 5-.7 5.3-3.2 5l-2.6-.3-.3-21.3c-.2-14.4.1-21.2.8-21.2.6 0 3 1 5.3 2.2z"></path>
<path class="vZZIoKfC_50 zsjErlTW_50" d="M1280 858.9c-2.1 3.1-10 7.3-15.7 8.6-3.7.8-3.7.6-2.2 7.7 2.8 12.9 9.6 22.5 21 29.8 4.6 2.9 10.6 9.7 11.2 12.7.7 3.6 3.4 6.9 6.4 7.8 1.7.5 3-.1 4.9-2 2.6-2.6 2.6-3 2.1-10.5-.7-10.8-2.5-13.9-13.3-23.3-5.2-4.5-9.2-8.3-9-8.5.2-.1 1.9.6 3.7 1.7 4 2.5 9.6 2.7 12.6.6 1.2-.9 2.7-3.2 3.3-5.3 1.1-4 1.4-16.1.4-18.6-.9-2.4-4.1-1.9-6 .8l-1.6 2.5-6.2-3.5c-3.5-1.9-7-3.4-7.9-3.4-.8 0-2.5 1.3-3.7 2.9zm11.5 4.3c5.5 2.8 6.8 3.1 8.5 2 2.9-1.8 3-1.7 3 4 0 5.5-2.6 11.3-5.5 12.4-2.7 1.1-7.3-1.7-12-7.2-4.5-5.2-7.4-6.8-7.6-4.2-.6 6.1 4.1 13.8 12.6 21.1 3.9 3.3 7.8 6.9 8.8 8.1 5.4 6.2 7.3 16.8 4 21.5-1.5 2.3-1.7 2.3-3 .6-.7-1.1-1.3-2.8-1.3-4 0-2.9-4.2-7.5-14-15.3-10-8-15.3-14.5-18-22.6-2.8-8.5-2.7-9.2 1.9-10 2.4-.4 6.2-2.3 9.8-5.1 3.2-2.4 5.9-4.4 6-4.5.2 0 3.2 1.5 6.8 3.2z"></path>
<path class="vZZIoKfC_51 zsjErlTW_51" d="M1272.7 910.4c-9.6 10.5-15.1 19.6-13 21.7.8.8 1.9.5 4.1-1.1 3.8-2.8 11.6-3.7 16.8-1.9 2.2.7 5.9 1.4 8.4 1.6 2.5.1 5.6.3 6.9.5 3.3.4 3.8-1.8.7-3.4-1.4-.7-5.2-4.7-8.3-8.8-10.8-13.9-10.7-13.9-15.6-8.6zm13.4 11.7l2.9 3.7-11.4-.2c-13.1-.1-12.7.5-5.2-9.5l4-5.4 3.4 3.9c1.9 2.2 4.7 5.5 6.3 7.5z"></path>
<path class="vZZIoKfC_52 zsjErlTW_52" d="M740.9 962.2c-8.4 11.5-9.9 18.7-9.9 46.8 0 25.7.4 26.5 12.3 30.2 5.7 1.8 9.6 2.3 19.2 2.3 18.6 0 21.2-1.6 25.9-15.6 4.2-12.7 6.8-28.8 6.4-40.3-.3-9.1-.6-10.8-3.6-16.9-4.1-8.3-5.5-9.1-11.9-7.2-6.9 2.1-12.7 1.9-21.8-1-11.4-3.5-12.9-3.4-16.6 1.7zm14.5 1.4c6.9 1.8 17.8 2.3 24.7 1.1l4.6-.8 3.6 7.9c3.2 6.7 3.7 8.8 3.7 14.9 0 13.8-4.6 34.7-9.9 45.1-2.7 5.3-7 6.7-20.6 6.7-11.3 0-19.8-2.1-24.2-5.9l-2.8-2.4v-23.4c0-25.9.2-27.1 6.6-38.1 4.5-7.5 4.7-7.6 14.3-5.1z"></path>
<path class="vZZIoKfC_53 zsjErlTW_53" d="M779.4 985.3c0 10.6-.4 25.7-.8 33.6-.7 11.8-.6 14.3.5 13.9 1.8-.6 2.3-4.3 4.9-32.3 2.1-22.8 2.1-23.1.2-27.5-1.1-2.5-2.6-5.1-3.3-5.7-1.3-1-1.5 1.5-1.5 18zm1.3 37.9c-.3.8-.6.5-.6-.6-.1-1.1.2-1.7.5-1.3.3.3.4 1.2.1 1.9z"></path>
</g>
<style data-made-with="vivus-instant">.zsjErlTW_0{stroke-dasharray:404 406;stroke-dashoffset:405;animation:zsjErlTW_draw 1500ms ease-in-out 0ms infinite alternate;}.zsjErlTW_1{stroke-dasharray:364 366;stroke-dashoffset:365;animation:zsjErlTW_draw 1500ms ease-in-out 0ms infinite alternate;}.zsjErlTW_2{stroke-dasharray:1850 1852;stroke-dashoffset:1851;animation:zsjErlTW_draw 1500ms ease-in-out 0ms infinite alternate;}.zsjErlTW_3{stroke-dasharray:279 281;stroke-dashoffset:280;animation:zsjErlTW_draw 1500ms ease-in-out 0ms infinite alternate;}.zsjErlTW_4{stroke-dasharray:574 576;stroke-dashoffset:575;animation:zsjErlTW_draw 1500ms ease-in-out 0ms infinite alternate;}.zsjErlTW_5{stroke-dasharray:307 309;stroke-dashoffset:308;animation:zsjErlTW_draw 1500ms ease-in-out 0ms infinite alternate;}.zsjErlTW_6{stroke-dasharray:511 513;stroke-dashoffset:512;animation:zsjErlTW_draw 1500ms ease-in-out 0ms infinite alternate;}.zsjErlTW_7{stroke-dasharray:98 100;stroke-dashoffset:99;animation:zsjErlTW_draw 1500ms ease-in-out 0ms infinite alternate;}.zsjErlTW_8{stroke-dasharray:503 505;stroke-dashoffset:504;animation:zsjErlTW_draw 1500ms ease-in-out 0ms infinite alternate;}.zsjErlTW_9{stroke-dasharray:648 650;stroke-dashoffset:649;animation:zsjErlTW_draw 1500ms ease-in-out 0ms infinite alternate;}.zsjErlTW_10{stroke-dasharray:337 339;stroke-dashoffset:338;animation:zsjErlTW_draw 1500ms ease-in-out 0ms infinite alternate;}.zsjErlTW_11{stroke-dasharray:839 841;stroke-dashoffset:840;animation:zsjErlTW_draw 1500ms ease-in-out 0ms infinite alternate;}.zsjErlTW_12{stroke-dasharray:1024 1026;stroke-dashoffset:1025;animation:zsjErlTW_draw 1500ms ease-in-out 0ms infinite alternate;}.zsjErlTW_13{stroke-dasharray:2942 2944;stroke-dashoffset:2943;animation:zsjErlTW_draw 1500ms ease-in-out 0ms infinite alternate;}.zsjErlTW_14{stroke-dasharray:1800 1802;stroke-dashoffset:1801;animation:zsjErlTW_draw 1500ms ease-in-out 0ms infinite alternate;}.zsjErlTW_15{stroke-dasharray:248 250;stroke-dashoffset:249;animation:zsjErlTW_draw 1500ms ease-in-out 0ms infinite alternate;}.zsjErlTW_16{stroke-dasharray:261 263;stroke-dashoffset:262;animation:zsjErlTW_draw 1500ms ease-in-out 0ms infinite alternate;}.zsjErlTW_17{stroke-dasharray:219 221;stroke-dashoffset:220;animation:zsjErlTW_draw 1500ms ease-in-out 0ms infinite alternate;}.zsjErlTW_18{stroke-dasharray:180 182;stroke-dashoffset:181;animation:zsjErlTW_draw 1500ms ease-in-out 0ms infinite alternate;}.zsjErlTW_19{stroke-dasharray:14 16;stroke-dashoffset:15;animation:zsjErlTW_draw 1500ms ease-in-out 0ms infinite alternate;}.zsjErlTW_20{stroke-dasharray:336 338;stroke-dashoffset:337;animation:zsjErlTW_draw 1500ms ease-in-out 0ms infinite alternate;}.zsjErlTW_21{stroke-dasharray:13 15;stroke-dashoffset:14;animation:zsjErlTW_draw 1500ms ease-in-out 0ms infinite alternate;}.zsjErlTW_22{stroke-dasharray:5239 5241;stroke-dashoffset:5240;animation:zsjErlTW_draw 1500ms ease-in-out 0ms infinite alternate;}.zsjErlTW_23{stroke-dasharray:511 513;stroke-dashoffset:512;animation:zsjErlTW_draw 1500ms ease-in-out 0ms infinite alternate;}.zsjErlTW_24{stroke-dasharray:3068 3070;stroke-dashoffset:3069;animation:zsjErlTW_draw 1500ms ease-in-out 0ms infinite alternate;}.zsjErlTW_25{stroke-dasharray:203 205;stroke-dashoffset:204;animation:zsjErlTW_draw 1500ms ease-in-out 0ms infinite alternate;}.zsjErlTW_26{stroke-dasharray:475 477;stroke-dashoffset:476;animation:zsjErlTW_draw 1500ms ease-in-out 0ms infinite alternate;}.zsjErlTW_27{stroke-dasharray:97 99;stroke-dashoffset:98;animation:zsjErlTW_draw 1500ms ease-in-out 0ms infinite alternate;}.zsjErlTW_28{stroke-dasharray:3891 3893;stroke-dashoffset:3892;animation:zsjErlTW_draw 1500ms ease-in-out 0ms infinite alternate;}.zsjErlTW_29{stroke-dasharray:261 263;stroke-dashoffset:262;animation:zsjErlTW_draw 1500ms ease-in-out 0ms infinite alternate;}.zsjErlTW_30{stroke-dasharray:3237 3239;stroke-dashoffset:3238;animation:zsjErlTW_draw 1500ms ease-in-out 0ms infinite alternate;}.zsjErlTW_31{stroke-dasharray:109 111;stroke-dashoffset:110;animation:zsjErlTW_draw 1500ms ease-in-out 0ms infinite alternate;}.zsjErlTW_32{stroke-dasharray:1621 1623;stroke-dashoffset:1622;animation:zsjErlTW_draw 1500ms ease-in-out 0ms infinite alternate;}.zsjErlTW_33{stroke-dasharray:182 184;stroke-dashoffset:183;animation:zsjErlTW_draw 1500ms ease-in-out 0ms infinite alternate;}.zsjErlTW_34{stroke-dasharray:3151 3153;stroke-dashoffset:3152;animation:zsjErlTW_draw 1500ms ease-in-out 0ms infinite alternate;}.zsjErlTW_35{stroke-dasharray:216 218;stroke-dashoffset:217;animation:zsjErlTW_draw 1500ms ease-in-out 0ms infinite alternate;}.zsjErlTW_36{stroke-dasharray:1262 1264;stroke-dashoffset:1263;animation:zsjErlTW_draw 1500ms ease-in-out 0ms infinite alternate;}.zsjErlTW_37{stroke-dasharray:641 643;stroke-dashoffset:642;animation:zsjErlTW_draw 1500ms ease-in-out 0ms infinite alternate;}.zsjErlTW_38{stroke-dasharray:205 207;stroke-dashoffset:206;animation:zsjErlTW_draw 1500ms ease-in-out 0ms infinite alternate;}.zsjErlTW_39{stroke-dasharray:204 206;stroke-dashoffset:205;animation:zsjErlTW_draw 1500ms ease-in-out 0ms infinite alternate;}.zsjErlTW_40{stroke-dasharray:709 711;stroke-dashoffset:710;animation:zsjErlTW_draw 1500ms ease-in-out 0ms infinite alternate;}.zsjErlTW_41{stroke-dasharray:711 713;stroke-dashoffset:712;animation:zsjErlTW_draw 1500ms ease-in-out 0ms infinite alternate;}.zsjErlTW_42{stroke-dasharray:1437 1439;stroke-dashoffset:1438;animation:zsjErlTW_draw 1500ms ease-in-out 0ms infinite alternate;}.zsjErlTW_43{stroke-dasharray:464 466;stroke-dashoffset:465;animation:zsjErlTW_draw 1500ms ease-in-out 0ms infinite alternate;}.zsjErlTW_44{stroke-dasharray:3409 3411;stroke-dashoffset:3410;animation:zsjErlTW_draw 1500ms ease-in-out 0ms infinite alternate;}.zsjErlTW_45{stroke-dasharray:456 458;stroke-dashoffset:457;animation:zsjErlTW_draw 1500ms ease-in-out 0ms infinite alternate;}.zsjErlTW_46{stroke-dasharray:236 238;stroke-dashoffset:237;animation:zsjErlTW_draw 1500ms ease-in-out 0ms infinite alternate;}.zsjErlTW_47{stroke-dasharray:27 29;stroke-dashoffset:28;animation:zsjErlTW_draw 1500ms ease-in-out 0ms infinite alternate;}.zsjErlTW_48{stroke-dasharray:38 40;stroke-dashoffset:39;animation:zsjErlTW_draw 1500ms ease-in-out 0ms infinite alternate;}.zsjErlTW_49{stroke-dasharray:1108 1110;stroke-dashoffset:1109;animation:zsjErlTW_draw 1500ms ease-in-out 0ms infinite alternate;}.zsjErlTW_50{stroke-dasharray:439 441;stroke-dashoffset:440;animation:zsjErlTW_draw 1500ms ease-in-out 0ms infinite alternate;}.zsjErlTW_51{stroke-dasharray:164 166;stroke-dashoffset:165;animation:zsjErlTW_draw 1500ms ease-in-out 0ms infinite alternate;}.zsjErlTW_52{stroke-dasharray:487 489;stroke-dashoffset:488;animation:zsjErlTW_draw 1500ms ease-in-out 0ms infinite alternate;}.zsjErlTW_53{stroke-dasharray:140 142;stroke-dashoffset:141;animation:zsjErlTW_draw 1500ms ease-in-out 0ms infinite alternate;}@keyframes zsjErlTW_draw{100%{stroke-dashoffset:0;}}</style></svg>
