<svg xmlns="http://www.w3.org/2000/svg" viewBox="0 0 276 276"><g fill="#000"><path d="M0 179.5l1.22-8.465 2.815-2.002-.81-4.433c3.77 1.604 7.79 2.41 12.1 2.41 2.692 0 6.587-.41 11.68-1.2 5.106-.815 9.146-1.208 12.086-1.208l6.046.393 3.63-2.824 2.4.818 5.25-2.42c3.226 0 6.313 3.9 9.254 11.678.81 0 4.316-.132 10.485-.4 4.826-.27 8.05-1.333 9.672-3.224-4.3-3.493-6.45-7.516-6.45-12.092 0-1.074 5.093-8.32 15.308-21.76 11.8-15.032 18.272-23.62 19.347-25.787-2.15-.52-9.955 5.92-23.38 19.35-14.768 14.507-24.174 22.562-28.208 24.162l-2.415-3.616c-16.384-.815-25.372-2.954-26.996-6.444l-6.447-2.02-5.23-8.06c16.647-4.022 33.177-9.796 49.56-17.31 20.408-9.406 34.786-15.585 43.116-18.542l-2.835-.405-9.672 3.63 9.285-8.06-3.628-.804 4.42-3.214-2.004-2.83c-.535 0-1.67.34-3.43 1.015-1.747.66-3.287.87-4.642.598l10.89-7.25c-.266 0-4.71-.538-13.302-1.622-5.1-.528-9.27-1.603-12.495-3.213 14.5-4.562 26.605-9.138 36.262-13.704-1.87-7.25-3.476-12.62-4.83-16.1-5.094-1.347-11.68-5.646-19.736-12.9-8.066-7.252-15.454-11.407-22.16-12.477l11.275-2.825c5.922 0 17.464 3.762 34.657 11.274 17.182 7.522 28.46 13.567 33.836 18.124L191.79 17.94c0 8.6-2.955 16.988-8.875 25.186-5.904 8.185-12.888 14.695-20.932 19.533.52 4.026 2.732 7.4 6.63 10.07 3.89 2.686 5.836 5.1 5.836 7.25v3.23c-2.15-.806-4.013-1.215-5.63-1.215-4.83 0-7.246 2.686-7.246 8.06l1.196 8.044-2.005.82-6.86-5.25-.397 1.218 3.223 5.23-1.605 5.648c10.205 15.85 16.244 24.583 18.13 26.196 4.3 4.297 14.236 9.396 29.816 15.31l10.064-4.837-.8 4.837c1.886.264 20.956-3.227 57.213-10.484H276l-3.227 2.828c-28.755 4.83-47.815 8.448-57.21 10.875-2.96 3.496-5.11 5.23-6.45 5.23-4.564 0-7.922-.792-10.07-2.415l-6.45 4.847-14.105-.405c0 1.348 2.68 9.005 8.055 22.962-5.374 1.884-8.055 7.93-8.055 18.13 0 9.673.266 15.585.79 17.725.776 6.72 3.232 11.687 7.392 14.915 0 3.49 1.686 6.316 5.065 8.457l9.714 6.034c-9.12 1.89-17.84-2.538-26.174-13.295l-3.637 3.64-1.606-.405c0-1.877 1.606-7.12 4.833-15.707-2.415-8.608-4.423-15.182-6.04-19.75-6.447 4.57-11.81 9.936-16.1 16.11-1.35 1.896-5.252 8.2-11.7 18.942 2.415 6.71 4.587 11.22 6.45 13.494 1.894 2.29 5.928 5.046 12.087 8.27l-.785 2.404c-9.695-2.67-18.416-8.188-26.205-16.51l-4.424 1.594c-.542-1.594 1.484-5.696 6.04-12.277 4.565-6.572 7.125-11.215 7.66-13.902l-1.628-1.6c-2.416.798-9.5 2.005-21.338 3.618-9.935 1.346-16.384 2.963-19.344 4.836-.53.266-2.68 2.284-6.445 6.045-2.944 2.957-5.642 4.432-8.06 4.432l-5.634-2.416-6.447 4.03c-8.054-6.45-14.646-9.674-19.754-9.674h-1.197c10.2-4.27 20.28-11.332 30.217-21.2 10.745-10.933 16.65-21.2 17.725-30.802l-8.865-4.4c-10.747 2.416-18.797 4.695-24.17 6.846.266 8.855-1.747 13.29-6.046 13.29-1.334 0-2.82-.398-4.423-1.203l-3.627 3.22-2.82-2.016c-1.62 1.852-8.068 4.46-19.35 7.87-12.615 3.67-20.667 6.42-24.17 8.246C2.15 196.96 0 187.562 0 179.5z"/><path d="M115.64 87.23l-2.008-2.416c-.547 1.084-.807 1.885-.807 2.416h2.815z"/></g></svg>