<?xml version="1.0" standalone="no"?>
<!DOCTYPE svg PUBLIC "-//W3C//DTD SVG 20010904//EN"
 "http://www.w3.org/TR/2001/REC-SVG-20010904/DTD/svg10.dtd">
<svg version="1.0" xmlns="http://www.w3.org/2000/svg"
 width="1598.000000pt" height="1080.000000pt" viewBox="0 0 1598.000000 1080.000000"
 preserveAspectRatio="xMidYMid meet">
<metadata>
Created by potrace 1.14, written by Peter Selinger 2001-2017
</metadata>
<g transform="translate(0.000000,1080.000000) scale(0.100000,-0.100000)"
fill="#000000" stroke="none">
<path d="M150 7096 c15 -40 34 -66 47 -66 8 0 13 -12 13 -29 0 -17 5 -33 10
-36 14 -8 13 -65 -1 -65 -6 0 -39 27 -74 61 -37 36 -66 56 -70 50 -3 -6 7 -25
24 -42 17 -17 31 -38 31 -46 0 -9 7 -21 15 -27 10 -7 20 -39 26 -81 5 -38 19
-85 30 -103 22 -38 18 -53 -9 -34 -9 6 -30 19 -47 28 -16 8 -50 36 -73 62
l-44 47 6 -34 c4 -19 15 -43 26 -53 11 -10 20 -27 20 -37 0 -11 6 -21 14 -24
16 -7 30 -57 19 -68 -5 -5 -24 4 -43 21 -19 16 -39 29 -45 29 -5 1 -4 -3 4 -8
12 -8 12 -12 2 -25 -19 -23 10 -66 44 -66 24 0 25 -2 25 -70 0 -75 7 -83 52
-59 16 9 23 8 29 -2 18 -28 10 -49 -17 -49 -28 0 -144 57 -144 71 0 5 -4 9
-10 9 -22 0 43 -133 75 -154 21 -14 45 -56 60 -105 7 -23 5 -24 -25 -17 -18 3
-53 22 -77 42 l-43 35 0 -66 c0 -51 4 -70 19 -86 10 -11 21 -38 25 -59 4 -26
12 -41 25 -45 11 -3 22 -13 25 -21 3 -8 10 -13 15 -9 16 9 22 -12 7 -24 -11
-9 -21 -6 -46 16 -18 15 -41 41 -52 58 l-18 30 2 -120 c3 -116 4 -120 25 -123
31 -5 30 -37 -2 -58 l-25 -16 0 -2864 0 -2864 7989 0 7990 0 1 2832 1 2832
-28 -25 c-15 -14 -49 -40 -75 -58 -38 -25 -49 -29 -60 -18 -23 21 -79 49 -86
43 -3 -4 -1 -16 6 -26 10 -17 10 -20 -3 -20 -9 0 -29 7 -44 15 -27 13 -29 13
-34 -6 -5 -17 -11 -19 -46 -13 -37 6 -41 5 -41 -15 0 -11 5 -21 11 -21 6 0 9
-7 5 -15 -4 -10 1 -15 14 -15 11 0 20 -7 20 -15 0 -9 9 -15 21 -15 15 0 19 -5
15 -15 -4 -11 2 -15 20 -15 26 0 40 -20 30 -46 -5 -14 -7 -14 -22 0 -17 18
-54 22 -54 5 0 -5 -4 -8 -9 -4 -17 10 -21 -12 -6 -25 19 -15 20 -60 2 -60 -8
0 -24 11 -37 25 -30 32 -44 32 -36 0 7 -26 6 -26 -46 -20 l-53 6 24 -20 c13
-12 29 -21 36 -21 8 0 15 -10 17 -22 2 -15 11 -24 26 -26 12 -2 22 -8 22 -13
0 -5 6 -9 14 -9 8 0 21 -9 29 -20 12 -18 15 -18 20 -6 7 18 37 11 37 -8 0 -7
20 -34 43 -61 32 -35 48 -47 61 -42 9 4 15 3 11 -2 -9 -16 -113 -51 -149 -51
-19 0 -39 7 -46 15 -18 22 -40 18 -40 -6 0 -19 -4 -21 -39 -15 -49 8 -58 -4
-26 -34 14 -13 25 -29 25 -36 0 -7 8 -14 17 -16 10 -2 18 -12 18 -23 0 -16 6
-20 28 -18 18 1 27 -3 27 -13 0 -9 11 -14 31 -14 27 0 30 -2 19 -15 -20 -24
-78 -30 -116 -11 -31 14 -34 14 -34 0 0 -13 -7 -15 -35 -10 -27 5 -35 4 -35
-7 0 -8 9 -17 20 -20 11 -3 24 -17 30 -32 9 -22 15 -26 35 -21 20 5 25 3 25
-14 0 -11 7 -20 15 -20 8 0 15 -7 15 -17 0 -9 3 -13 7 -10 3 4 12 2 20 -5 11
-9 21 -3 47 25 37 41 48 44 66 22 11 -13 8 -15 -14 -15 -19 0 -26 -5 -26 -19
0 -11 4 -23 10 -26 15 -10 12 -25 -7 -32 -10 -3 -25 -12 -34 -19 -33 -29 -188
-49 -232 -31 -17 6 -16 10 12 46 17 21 31 42 31 45 0 3 -13 6 -30 6 -34 0 -37
7 -15 36 15 20 20 54 8 54 -3 0 -19 -15 -35 -33 -26 -29 -29 -31 -39 -14 -15
26 -34 7 -51 -50 -8 -30 -29 -62 -58 -92 l-45 -46 -8 94 c-9 107 -6 121 22
121 14 0 19 -5 15 -15 -4 -9 0 -15 9 -15 8 0 17 7 21 15 4 11 13 14 31 9 49
-12 16 47 -40 72 -15 6 -3 10 45 14 l65 5 -34 21 -33 21 28 26 c37 35 25 44
-26 20 -35 -18 -40 -19 -40 -4 -1 25 -40 -26 -40 -53 0 -12 -10 -27 -21 -35
-22 -13 -22 -12 -16 34 4 27 22 72 42 105 19 32 35 63 35 69 0 23 -31 10 -50
-21 -21 -35 -23 -33 -20 20 2 36 -17 92 -31 92 -5 0 -9 -39 -9 -87 l0 -88 -35
40 c-31 36 -35 38 -35 17 0 -22 25 -70 44 -84 6 -4 12 -37 13 -75 4 -66 3 -67
-11 -38 -8 17 -17 47 -21 67 -7 44 -24 59 -32 29 -6 -25 -25 -27 -43 -6 -15
18 -40 20 -40 3 0 -7 13 -33 30 -58 27 -41 28 -46 13 -62 -8 -9 -13 -24 -10
-33 7 -17 23 -20 32 -5 12 20 25 9 25 -20 0 -29 -13 -40 -25 -20 -3 6 -15 10
-25 10 -23 0 -18 -23 11 -55 18 -20 18 -21 -11 -33 -27 -13 -32 -11 -76 22
-26 20 -51 36 -55 36 -17 0 -9 -37 11 -55 11 -10 20 -22 20 -27 0 -4 -9 -8
-20 -8 -11 0 -20 -7 -20 -15 0 -8 9 -15 20 -15 13 0 22 -9 26 -25 3 -14 13
-29 22 -34 12 -7 7 -11 -22 -21 -38 -12 -41 -17 -27 -39 6 -9 18 -12 36 -7 19
5 33 2 46 -10 17 -15 19 -15 36 1 13 13 18 14 21 5 3 -7 -3 -19 -13 -26 -17
-12 -17 -14 -1 -20 9 -3 23 -1 31 6 13 10 15 8 15 -14 0 -14 4 -26 9 -26 21 0
41 13 41 26 0 23 19 16 26 -10 9 -39 -2 -46 -73 -46 -55 0 -72 4 -99 25 -49
38 -83 33 -47 -7 11 -12 12 -18 4 -18 -16 0 -96 47 -111 65 -19 23 -42 18 -38
-7 3 -20 -3 -24 -39 -29 -24 -3 -46 -9 -50 -13 -12 -12 39 -46 67 -45 48 2 57
-1 38 -12 -22 -12 -24 -49 -3 -49 9 0 26 11 39 25 13 14 30 25 37 25 9 0 5 -8
-10 -19 -21 -16 -22 -20 -10 -42 8 -13 15 -25 16 -27 2 -5 66 29 86 46 9 8 20
13 23 9 3 -3 -8 -18 -25 -33 -32 -28 -41 -54 -18 -54 7 0 18 5 25 12 9 9 12 8
12 -8 1 -18 2 -17 20 4 11 13 24 21 29 18 5 -4 12 -2 16 4 3 5 16 10 28 10 28
1 63 28 76 60 l10 25 0 -26 c1 -20 -13 -40 -54 -78 -86 -78 -100 -82 -157 -52
-44 25 -75 24 -50 -1 23 -23 12 -28 -24 -13 -44 18 -65 19 -61 3 1 -9 -10 -13
-33 -13 -37 0 -60 -10 -60 -26 0 -5 7 -9 16 -9 11 0 14 -6 9 -20 -5 -16 -2
-20 14 -20 13 0 21 -6 21 -16 0 -10 6 -14 15 -10 10 3 15 -1 15 -14 0 -14 6
-18 28 -17 23 2 28 -2 30 -25 2 -16 -1 -28 -7 -28 -6 0 -11 5 -11 10 0 6 -20
9 -45 8 -25 0 -44 -4 -42 -7 27 -52 30 -62 19 -73 -9 -9 -17 -6 -35 10 -30 29
-51 29 -42 1 7 -21 5 -22 -44 -15 -43 6 -50 4 -45 -8 3 -9 21 -21 39 -27 24
-9 31 -17 27 -31 -3 -14 1 -18 21 -18 14 0 27 -7 31 -15 3 -8 12 -15 20 -15 8
0 19 -8 25 -18 9 -16 10 -16 16 0 6 15 8 15 26 0 10 -9 19 -22 19 -28 0 -18
81 -95 93 -87 5 3 7 1 3 -5 -8 -14 -97 -43 -134 -44 -16 -1 -40 6 -53 16 -30
21 -39 20 -39 -2 0 -27 -9 -32 -37 -21 -18 6 -30 6 -39 -2 -12 -10 -10 -16 12
-36 15 -13 23 -30 20 -38 -4 -10 1 -15 15 -15 12 0 23 -10 29 -25 8 -22 13
-24 30 -15 17 9 20 8 20 -11 0 -18 4 -20 25 -15 43 11 29 -19 -16 -34 -32 -11
-44 -11 -57 -2 -31 22 -44 25 -53 11 -5 -8 -20 -13 -39 -11 -36 4 -39 -10 -6
-28 13 -7 27 -21 29 -31 3 -13 14 -19 31 -19 16 0 26 -6 26 -15 0 -8 9 -15 20
-15 13 0 18 -5 14 -15 -4 -9 0 -15 10 -15 9 0 16 -6 16 -12 0 -7 18 6 41 29
35 36 44 41 61 32 22 -12 16 -24 -10 -24 -17 0 -20 -14 -9 -50 5 -16 -3 -25
-47 -47 -30 -15 -80 -30 -115 -34 -52 -6 -64 -11 -71 -29 -12 -32 -100 -49
-100 -20 0 8 5 15 10 15 6 0 10 7 10 15 0 20 -12 19 -43 -5 -22 -17 -26 -18
-37 -5 -7 8 -19 15 -27 15 -11 0 -14 7 -9 23 3 12 6 26 6 30 0 5 4 5 10 2 5
-3 10 -1 10 5 0 6 4 8 10 5 5 -3 12 7 16 22 4 15 12 35 19 43 7 8 16 25 19 37
6 18 3 22 -21 25 -22 2 -27 7 -25 23 2 11 5 30 5 42 2 16 5 19 15 11 17 -14
18 -12 26 52 l6 55 -22 -36 c-34 -53 -93 -119 -107 -119 -18 0 -43 28 -36 40
3 5 11 10 16 10 6 0 28 12 50 28 29 20 39 34 39 55 0 34 -29 37 -67 7 -14 -11
-30 -20 -34 -20 -15 0 -10 47 7 61 8 7 13 21 10 32 -12 45 31 67 49 25 10 -23
55 -35 55 -15 0 5 -20 28 -45 51 -25 24 -45 47 -45 52 0 5 24 8 52 6 l53 -3
-24 19 c-16 13 -27 35 -32 63 -6 37 -8 40 -14 22 -5 -15 -15 -23 -30 -23 -20
0 -23 6 -27 45 -2 25 0 45 4 45 3 0 9 13 13 30 4 16 11 32 16 35 5 4 9 14 9
23 0 13 -6 10 -25 -12 -14 -16 -25 -33 -25 -38 0 -4 -11 -8 -25 -8 -23 0 -24
2 -13 28 7 15 19 36 28 47 9 11 23 43 32 70 29 87 31 98 19 91 -6 -4 -11 -16
-11 -27 0 -12 -7 -19 -20 -19 -11 0 -20 6 -20 14 0 8 -5 16 -11 18 -8 3 -7 14
5 35 20 40 21 72 1 79 -8 4 -15 15 -15 25 0 10 -4 19 -10 19 -15 0 -12 26 5
40 8 7 15 20 14 29 0 10 -2 11 -6 4 -6 -17 -23 -16 -23 0 0 8 -9 24 -19 36
-11 13 -22 28 -24 34 -2 7 -7 9 -10 6 -4 -3 2 -23 13 -45 23 -44 37 -114 24
-114 -5 0 -25 21 -44 47 -19 25 -36 40 -38 34 -2 -7 3 -20 12 -30 9 -10 16
-25 16 -34 0 -9 4 -18 9 -21 4 -3 11 -29 15 -58 4 -29 10 -64 13 -78 l6 -25
-34 29 c-19 16 -42 40 -51 55 -14 20 -18 22 -18 8 0 -9 5 -26 10 -37 6 -11 15
-29 20 -40 6 -11 10 -30 10 -42 l0 -21 -23 21 -23 22 -2 -31 c-2 -24 2 -32 18
-36 17 -4 20 -14 20 -54 0 -50 7 -58 28 -37 9 9 12 6 12 -15 0 -34 -7 -34 -59
3 l-42 30 7 -27 c3 -16 17 -44 30 -64 28 -42 46 -96 34 -104 -13 -8 -64 39
-85 79 -11 20 -23 36 -27 36 -10 0 -4 -47 11 -84 6 -16 9 -37 6 -47 -4 -13 -1
-19 8 -19 17 0 27 -21 27 -54 0 -24 32 -61 43 -49 4 3 7 -1 7 -11 0 -39 -36
-7 -76 68 -45 85 -58 82 -40 -8 6 -34 6 -54 -2 -67 -9 -14 -8 -21 3 -33 8 -8
19 -26 25 -40 5 -14 16 -26 25 -26 8 0 15 -6 15 -14 0 -46 -83 -42 -99 5 -5
16 -15 29 -20 29 -6 0 -11 12 -11 26 0 16 -5 24 -12 21 -13 -4 -19 -74 -9 -92
6 -10 9 -33 14 -96 1 -20 8 -43 15 -51 16 -19 5 -29 -24 -22 -13 4 -24 4 -24
1 0 -10 62 -37 83 -37 20 0 20 0 -1 -20 -27 -25 -27 -35 -4 -57 16 -17 16 -22
2 -65 -8 -27 -20 -48 -26 -48 -20 0 -74 50 -102 94 -20 32 -27 37 -30 23 -2
-10 3 -28 11 -41 9 -13 12 -28 7 -36 -5 -8 -2 -19 7 -28 8 -8 13 -25 10 -38
-2 -13 2 -25 8 -28 7 -2 16 -23 20 -45 4 -22 13 -45 21 -52 15 -12 20 -59 6
-59 -13 0 -87 82 -112 123 -12 21 -27 36 -34 34 -20 -8 -56 11 -50 27 7 18
-13 31 -29 18 -7 -5 -21 -12 -31 -16 -19 -6 -19 -6 -3 12 9 10 14 21 11 24 -3
4 4 9 15 13 33 10 26 35 -10 35 -24 0 -30 4 -27 18 3 11 12 16 26 15 12 -2 22
1 22 6 0 6 9 13 20 16 26 8 26 35 0 35 -11 0 -20 4 -20 9 0 4 9 20 20 34 26
33 25 37 -6 37 -24 0 -24 1 -10 22 27 38 19 57 -10 24 -20 -23 -28 -26 -34
-16 -12 20 -36 -3 -44 -41 -3 -16 -23 -46 -43 -66 l-38 -35 -7 63 c-3 35 -4
71 -2 81 6 21 34 32 34 13 0 -17 16 -20 25 -4 4 6 13 8 21 5 7 -3 16 -2 18 3
9 13 -23 49 -47 54 -12 2 -1 5 26 6 50 1 60 13 26 32 l-21 11 23 24 c26 27 10
32 -26 8 -15 -10 -25 -12 -25 -5 0 26 -20 8 -26 -23 -8 -43 -34 -57 -34 -19 0
28 39 113 52 113 4 0 8 9 8 20 0 26 -16 26 -30 0 -17 -31 -30 -24 -30 18 0 20
-5 44 -10 52 -7 11 -10 3 -10 -30 0 -25 -3 -56 -7 -68 l-6 -24 -23 29 c-21 25
-23 26 -24 8 0 -11 11 -37 25 -57 25 -37 35 -108 15 -108 -10 0 -17 22 -22 69
-3 27 -28 42 -28 17 0 -20 -9 -20 -31 0 -26 23 -31 2 -8 -40 13 -24 17 -45 13
-62 -6 -23 -4 -25 15 -19 18 5 21 2 21 -20 0 -27 0 -27 -25 -11 -23 15 -25 15
-25 0 0 -10 7 -25 15 -34 14 -15 14 -19 -1 -30 -12 -11 -19 -11 -32 -2 -66 48
-77 53 -81 35 -2 -9 6 -25 18 -34 20 -17 20 -17 1 -22 -28 -7 -25 -24 6 -31
15 -4 24 -10 20 -13 -3 -3 -1 -12 5 -19 9 -11 5 -16 -16 -24 -29 -11 -29 -36
1 -33 10 2 29 -3 41 -9 17 -8 26 -8 40 3 15 11 16 11 6 -1 -7 -8 -13 -20 -13
-27 0 -17 27 -17 33 0 3 6 6 2 6 -10 1 -26 13 -29 31 -8 15 18 30 11 30 -15 0
-15 -9 -19 -51 -22 -42 -2 -58 1 -82 19 -17 13 -35 23 -39 23 -13 0 -9 -28 5
-33 9 -4 9 -6 -1 -6 -18 -1 -66 24 -81 43 -18 22 -31 20 -31 -4 0 -11 -3 -19
-7 -18 -5 1 -24 -1 -43 -5 -33 -8 -34 -9 -16 -22 11 -8 36 -15 55 -15 27 0 32
-3 23 -12 -15 -15 -16 -38 -2 -38 6 0 18 9 27 20 10 11 24 20 33 20 11 0 9 -5
-7 -18 -19 -15 -20 -19 -8 -36 14 -18 15 -18 50 3 47 28 57 26 21 -3 -16 -14
-26 -29 -21 -35 5 -9 10 -9 22 0 11 10 16 10 22 0 6 -10 10 -9 15 4 3 9 10 14
15 10 5 -3 13 0 16 6 4 5 14 8 22 5 8 -3 25 5 39 19 13 13 24 18 24 12 0 -15
-52 -65 -94 -91 -28 -18 -30 -18 -68 4 -41 23 -60 21 -38 -5 17 -20 -8 -21
-36 0 -25 19 -38 19 -30 0 4 -12 -3 -15 -29 -15 -24 0 -35 -5 -35 -15 0 -8 5
-15 11 -15 8 0 8 -5 -1 -15 -10 -13 -9 -15 9 -15 11 0 21 -5 21 -11 0 -5 5 -7
10 -4 6 3 10 -1 10 -10 0 -9 7 -15 16 -13 18 3 43 -27 31 -38 -3 -4 -13 -2
-21 5 -8 7 -25 9 -41 5 -24 -6 -25 -7 -9 -25 9 -10 14 -25 10 -34 -5 -15 -9
-14 -35 4 -37 27 -45 26 -30 0 10 -20 9 -21 -30 -14 -49 8 -56 -8 -10 -24 18
-6 28 -15 24 -21 -4 -7 2 -14 14 -17 12 -3 21 -9 21 -14 0 -5 6 -9 14 -9 8 0
17 -6 19 -12 4 -10 7 -10 14 -1 7 9 13 7 23 -9 8 -12 29 -38 47 -58 l32 -36
-33 -12 c-40 -15 -93 -16 -101 -2 -9 15 -25 12 -25 -5 0 -20 -41 -19 -66 1
-10 8 -14 17 -9 20 6 2 26 14 45 27 l35 22 -47 3 c-36 2 -46 6 -41 18 8 21
-11 17 -32 -6 -18 -20 -52 -29 -41 -11 4 5 0 11 -6 14 -10 4 -11 7 0 18 31 33
7 26 -38 -12 -31 -26 -55 -39 -65 -35 -19 7 -11 26 11 26 8 0 14 9 14 20 0 25
-20 25 -53 0 -30 -24 -39 -25 -77 -5 -29 15 -32 45 -5 45 7 0 15 5 17 12 3 8
12 4 26 -10 30 -30 42 -28 42 7 0 42 15 47 51 17 52 -44 64 -33 23 21 -30 39
-24 42 20 8 33 -25 56 -32 56 -17 0 4 -5 13 -12 20 -8 8 -5 14 16 22 23 8 26
13 16 25 -9 11 -6 14 20 13 34 -1 56 14 46 31 -4 6 -21 11 -38 11 -17 0 -36 7
-42 15 -10 14 -16 13 -51 -5 -47 -24 -59 -25 -51 -5 3 8 1 15 -4 15 -6 0 -10
7 -10 15 0 11 -7 14 -25 9 -20 -5 -24 -3 -19 10 8 22 -2 20 -39 -8 -42 -30
-57 -35 -84 -25 -28 10 -29 33 -4 58 13 13 16 23 9 35 -15 27 25 20 52 -9 28
-30 40 -32 40 -6 0 25 17 36 35 21 9 -7 15 -8 20 0 3 5 14 10 24 10 9 0 26 6
36 14 19 13 18 15 -13 44 -17 16 -48 33 -68 36 -32 7 -35 10 -30 32 8 32 -16
42 -49 20 -34 -23 -52 -20 -30 4 10 11 15 23 11 27 -3 4 8 13 25 20 30 13 36
37 8 39 -8 0 -24 2 -36 2 -16 1 -23 8 -23 21 0 25 18 37 33 22 15 -15 27 -14
27 3 0 8 14 20 30 28 33 14 35 31 4 36 -35 7 -38 20 -11 56 35 45 34 56 -3 56
l-29 0 21 36 c28 47 10 69 -21 25 -25 -34 -46 -40 -55 -14 -6 15 -8 15 -20 -3
-7 -10 -19 -37 -26 -59 -7 -22 -19 -48 -27 -57 -14 -16 -17 -16 -31 -1 -14 14
-16 13 -23 -5 -16 -43 -27 -29 -33 44 -5 52 -3 80 5 90 17 20 39 17 39 -6 0
-23 18 -27 26 -5 4 9 19 15 35 15 27 0 29 2 18 21 -6 11 -24 28 -40 37 -42 24
-36 34 15 27 61 -10 75 2 37 29 l-31 23 25 23 c14 13 25 27 25 31 0 11 -51 -9
-72 -28 -17 -15 -18 -14 -18 6 0 32 -18 16 -31 -28 -6 -20 -20 -43 -30 -49
-17 -11 -19 -9 -19 12 0 31 14 65 58 139 19 31 32 60 28 64 -10 10 -39 -10
-51 -35 -16 -35 -22 -26 -27 38 -3 39 -10 67 -21 77 -16 16 -17 11 -17 -76 l0
-93 -35 38 c-26 29 -35 34 -35 21 0 -20 25 -74 47 -98 16 -19 31 -129 17 -129
-12 0 -37 58 -31 73 6 15 -10 57 -21 57 -5 0 -13 -9 -18 -21 l-9 -20 -28 21
c-22 18 -25 25 -17 41 13 23 5 24 -32 5 -24 -13 -114 -36 -139 -36 -6 0 -9 10
-7 23 2 14 9 21 18 18 64 -17 69 -15 72 30 3 38 6 44 28 47 32 5 52 22 46 38
-3 7 0 15 7 18 9 3 8 5 -1 5 -7 1 -31 -8 -53 -18 -36 -18 -41 -18 -46 -4 -4
10 9 29 40 57 59 52 67 93 10 47 -21 -16 -51 -33 -67 -37 -16 -4 -41 -13 -55
-20 -29 -15 -46 2 -18 17 8 5 19 24 23 42 10 41 9 39 18 60 5 9 14 17 22 17 8
0 14 7 14 15 0 8 3 15 8 15 12 1 55 40 49 46 -5 5 -47 -13 -57 -25 -10 -12
-101 -53 -107 -48 -9 10 21 77 38 82 22 7 52 41 47 55 -2 6 -19 0 -40 -15 -58
-40 -81 -26 -36 22 l22 24 -22 6 c-26 6 -29 20 -4 26 16 4 15 5 -1 6 -14 1
-18 8 -17 29 6 80 -1 236 -9 223 -5 -8 -7 -37 -4 -63 5 -40 3 -48 -11 -48 -20
0 -21 -14 0 -34 21 -21 15 -61 -9 -60 -17 2 -17 0 -2 -20 25 -34 29 -48 15
-56 -7 -4 -9 -13 -6 -19 4 -6 2 -11 -5 -11 -8 0 -6 -6 4 -18 17 -19 24 -72 9
-72 -4 0 -13 5 -19 11 -8 8 -13 8 -17 0 -4 -6 -16 -11 -27 -11 -10 0 -19 -4
-19 -10 0 -5 18 -9 40 -8 22 1 43 -2 46 -5 10 -9 -52 -67 -72 -67 -14 0 -16
-6 -11 -37 4 -20 13 -41 22 -45 19 -11 20 -28 1 -28 -7 0 -19 -7 -26 -15 -19
-23 -39 -18 -68 15 -15 17 -30 30 -34 30 -9 0 20 -71 38 -91 8 -8 14 -23 14
-32 0 -8 9 -19 20 -22 22 -7 80 -64 80 -79 0 -12 -72 3 -90 19 -8 7 -30 20
-47 29 -37 18 -44 5 -13 -21 11 -10 20 -23 20 -30 0 -6 7 -16 15 -20 20 -12 9
-83 -14 -84 -38 -3 -67 4 -74 17 -13 22 -36 17 -30 -6 3 -11 1 -20 -5 -20 -6
0 -14 9 -17 20 -3 11 -11 20 -16 20 -15 0 -10 -36 6 -50 14 -11 13 -14 -3 -26
-10 -7 -31 -14 -47 -17 -28 -4 98 -12 138 -9 36 3 14 -19 -48 -48 -35 -16 -68
-30 -73 -30 -15 0 -34 -28 -24 -34 5 -3 12 -2 16 1 4 4 22 6 40 5 26 -3 36 2
50 22 20 31 36 33 67 5 17 -14 20 -22 12 -25 -21 -9 -15 -24 12 -34 18 -7 25
-17 25 -35 0 -30 -1 -30 -70 -6 -30 11 -68 21 -85 23 -26 3 -30 -1 -33 -22 -2
-21 5 -28 40 -44 70 -30 81 -35 116 -41 18 -4 29 -11 26 -16 -3 -6 -8 -8 -11
-5 -3 3 -14 0 -23 -7 -22 -15 -100 -10 -100 7 0 6 -17 20 -37 31 -20 11 -59
37 -85 58 -42 32 -48 35 -48 18 0 -11 4 -22 8 -25 5 -3 7 -20 4 -37 -5 -34 0
-35 50 -14 12 5 17 2 17 -12 -1 -10 2 -28 6 -40 7 -22 4 -23 -39 -23 -41 0
-46 -2 -46 -23 0 -13 9 -26 22 -32 13 -6 28 -20 34 -33 17 -35 22 -37 44 -17
11 10 20 13 20 7 0 -6 -5 -14 -10 -17 -6 -3 -10 -11 -10 -18 0 -8 3 -8 12 1
16 16 28 15 28 -2 0 -8 5 -16 12 -18 22 -8 -3 -28 -33 -28 -17 0 -39 -5 -50
-10 -14 -8 -28 -6 -58 10 -48 24 -71 26 -71 5 0 -8 7 -15 15 -15 8 0 15 -4 15
-10 0 -5 11 -10 25 -10 26 0 33 -14 14 -25 -7 -5 -5 -15 6 -32 13 -19 14 -27
4 -39 -18 -22 -3 -29 26 -10 19 13 25 13 25 3 0 -7 -5 -18 -11 -24 -14 -14
-40 -5 -99 32 -37 23 -40 28 -40 71 0 40 -2 44 -15 30 -8 -8 -15 -22 -15 -30
0 -11 -9 -16 -30 -16 -28 0 -30 3 -32 38 -3 68 3 117 18 150 24 52 9 49 -31
-7 -43 -60 -70 -68 -60 -19 4 18 16 48 26 66 10 18 19 44 19 58 0 14 4 33 9
42 5 9 11 42 15 72 5 45 4 50 -5 30 -20 -46 -25 -54 -38 -58 -7 -2 -15 6 -18
18 -3 11 -11 19 -18 16 -10 -3 -10 7 1 47 15 58 10 85 -17 105 -11 7 -19 22
-19 33 0 10 -7 19 -15 19 -18 0 -18 1 0 36 19 38 20 67 1 42 -14 -19 -26 -14
-26 9 0 8 -16 30 -35 50 -19 20 -35 31 -35 24 0 -19 29 -71 40 -71 6 0 10 -9
10 -19 0 -11 4 -23 10 -26 12 -7 14 -65 2 -65 -4 0 -22 15 -39 33 l-31 32 -11
635 c-7 349 -14 651 -16 670 -5 56 4 -886 11 -1094 4 -130 3 -187 -4 -182 -18
11 -23 -11 -7 -27 11 -12 15 -39 15 -109 l0 -93 -20 25 c-19 24 -20 24 -20 4
0 -12 9 -33 20 -47 25 -32 29 -107 5 -87 -9 7 -18 10 -22 6 -3 -3 -2 -6 4 -6
6 0 8 -11 6 -23 -3 -14 2 -31 11 -40 11 -10 16 -34 16 -73 0 -49 -2 -55 -15
-44 -22 18 -20 -6 5 -53 21 -39 28 -127 10 -127 -5 0 -10 3 -10 8 0 4 -16 25
-36 47 l-35 40 6 -35 c4 -19 15 -52 26 -73 10 -21 19 -45 19 -53 0 -9 9 -23
21 -33 15 -12 20 -25 17 -50 l-3 -33 -40 62 c-37 57 -40 60 -43 36 -2 -15 4
-47 13 -71 10 -26 15 -59 13 -82 -3 -24 0 -44 8 -53 47 -52 64 -81 64 -110 0
-30 -1 -31 -32 -25 -34 8 -99 72 -108 107 -3 11 -9 18 -15 16 -14 -4 -14 -97
0 -106 11 -7 25 -58 30 -112 3 -42 16 -70 31 -70 8 0 14 -7 14 -15 0 -11 -11
-15 -42 -15 -30 0 -39 -3 -31 -11 10 -10 72 -30 105 -32 14 -1 14 -4 2 -21
-19 -28 -18 -52 6 -76 23 -23 26 -63 8 -104 -11 -23 -17 -26 -42 -21 -32 6
-96 50 -96 66 0 15 -54 62 -58 50 -5 -16 23 -66 36 -63 15 3 15 0 2 -33 -8
-21 -13 -25 -23 -17 -7 6 -23 9 -35 5 -18 -4 -21 -2 -16 11 8 21 -3 20 -51 -4
-48 -24 -84 -27 -65 -5 6 8 9 23 5 34 -6 19 -7 19 -43 -5 -32 -22 -43 -24 -87
-18 -55 7 -185 67 -185 85 0 8 5 7 15 -1 13 -11 19 -7 17 11 -1 4 15 -1 36
-11 40 -20 52 -18 52 7 0 15 2 14 18 0 26 -23 42 -21 43 6 0 22 0 22 9 1 13
-33 46 -36 65 -7 9 13 14 31 11 40 -5 12 0 13 25 8 29 -7 30 -6 20 14 -9 16
-9 21 1 21 9 0 9 3 0 12 -7 7 -12 19 -12 27 0 12 3 11 18 -2 10 -10 28 -17 40
-17 19 0 21 4 16 25 -4 18 -2 25 8 25 8 0 25 11 38 25 l24 25 -47 -6 c-41 -6
-47 -4 -47 11 0 17 -2 16 -23 -3 -27 -26 -40 -27 -56 -8 -8 10 -9 16 -1 21 5
3 10 11 10 18 0 6 -19 -8 -43 -31 -27 -26 -52 -42 -67 -42 -55 0 -170 61 -170
90 0 15 21 12 41 -6 21 -19 41 -10 32 14 -4 11 4 7 22 -11 33 -32 51 -30 48 4
-3 46 4 50 43 24 20 -14 41 -25 45 -25 17 0 9 23 -17 47 -14 13 -24 26 -21 29
2 3 12 -2 20 -11 20 -20 88 -34 70 -14 -18 19 -16 24 15 39 25 12 26 13 7 21
-18 7 -17 8 7 8 26 1 58 24 58 42 0 5 -20 9 -45 9 -34 0 -45 4 -45 16 0 13 -8
11 -46 -10 -55 -30 -54 -30 -54 -11 0 8 -4 15 -10 15 -5 0 -10 7 -10 15 0 12
-4 13 -19 5 -25 -13 -34 -13 -26 0 15 24 -8 29 -27 5 -11 -14 -34 -33 -51 -41
-27 -14 -32 -14 -41 -2 -6 8 -18 13 -26 10 -12 -4 -13 -2 -2 9 25 27 14 42
-27 35 -35 -5 -42 -3 -65 25 -14 17 -26 36 -26 42 0 7 -3 23 -7 36 -4 17 -3
22 5 17 7 -4 12 -20 12 -35 0 -28 41 -77 53 -64 4 3 7 18 7 32 l1 26 15 -27
c10 -19 23 -28 40 -28 22 0 24 2 13 21 -9 17 -8 23 2 30 9 5 23 -3 42 -26 33
-41 57 -45 57 -12 0 30 10 40 25 27 8 -7 24 -5 48 5 40 16 57 37 38 43 -8 3
-21 12 -31 22 -20 20 -77 33 -85 20 -10 -16 -35 -11 -35 6 0 10 6 14 14 11 9
-4 13 2 12 16 -1 24 -32 35 -49 18 -8 -8 -8 -11 1 -11 7 0 12 -4 12 -9 0 -12
-27 -22 -43 -15 -18 7 -17 34 1 34 9 0 13 7 9 19 -3 13 3 22 19 30 13 6 24 17
24 25 0 25 -29 26 -57 0 -15 -13 -30 -21 -35 -16 -13 13 1 40 20 37 9 -1 11 0
5 2 -16 5 -17 29 -2 39 6 3 15 2 21 -4 7 -7 21 0 44 25 36 38 36 53 0 53 -12
0 -25 3 -29 6 -6 6 8 37 31 66 19 23 5 41 -24 34 -27 -7 -29 -1 -9 34 32 56 8
69 -28 15 -21 -31 -26 -33 -37 -20 -20 24 -28 18 -40 -27 -6 -24 -17 -57 -24
-74 -9 -19 -11 -36 -5 -45 5 -8 9 -23 9 -33 0 -18 -1 -18 -20 -1 -19 17 -21
17 -40 0 -23 -21 -25 -17 -35 60 -4 28 -9 66 -12 87 -4 30 -1 38 16 47 18 10
21 9 21 -9 0 -11 7 -20 15 -20 8 0 15 5 15 10 0 25 19 6 29 -27 l11 -38 -4 43
c-3 31 -1 42 10 42 8 0 14 4 14 8 0 13 -43 50 -63 54 -30 5 -14 23 19 20 17
-1 42 1 55 6 l24 9 -33 17 c-38 20 -38 20 -11 54 28 36 7 40 -36 7 -34 -25
-35 -25 -35 -5 0 33 -18 14 -32 -33 -7 -23 -18 -48 -25 -55 -11 -11 -13 -5
-13 32 0 31 10 66 32 110 18 36 29 69 25 73 -12 12 -42 -12 -45 -36 -7 -47
-32 -14 -32 44 0 18 -9 43 -20 56 l-20 24 6 -90 6 -90 -36 34 c-35 34 -36 35
-36 10 0 -13 16 -43 34 -67 21 -26 39 -63 45 -93 13 -60 13 -59 3 -59 -13 0
-39 52 -46 93 -7 39 -36 53 -36 17 0 -24 -8 -25 -39 -4 -16 12 -26 13 -33 6
-8 -8 -1 -24 25 -57 31 -41 34 -50 25 -71 -16 -34 5 -57 26 -28 14 18 15 18
21 -9 9 -36 1 -43 -30 -29 -21 10 -25 9 -25 -5 0 -9 9 -27 21 -39 l21 -22 -20
-20 -20 -20 -46 28 c-25 16 -53 30 -62 32 -28 5 -27 -20 0 -45 31 -29 32 -33
6 -40 -30 -8 -24 -24 10 -30 16 -4 30 -13 30 -21 0 -7 7 -19 16 -26 13 -12 11
-15 -16 -27 -21 -8 -30 -19 -28 -29 2 -13 16 -17 61 -19 32 -1 60 2 63 7 3 4
12 8 21 8 14 0 14 -2 -1 -19 -23 -25 -13 -45 15 -31 16 9 19 7 19 -10 0 -11 7
-20 15 -20 8 0 15 5 15 11 0 5 4 8 9 4 5 -3 13 4 16 16 7 20 8 19 22 -7 13
-26 12 -30 -3 -41 -17 -13 -62 -18 -114 -15 -14 1 -43 11 -65 22 -46 23 -63 9
-25 -22 12 -10 17 -18 11 -18 -18 0 -118 47 -125 59 -4 6 -16 11 -27 11 -15 0
-19 -6 -17 -22 2 -17 -4 -23 -36 -32 -22 -6 -41 -16 -43 -23 -7 -20 37 -36 84
-30 41 4 43 3 28 -12 -18 -21 -20 -51 -2 -51 7 0 26 13 42 30 16 16 33 30 39
30 6 0 0 -7 -12 -16 -22 -15 -30 -44 -12 -44 6 0 10 -7 10 -16 0 -9 3 -14 7
-12 5 2 25 12 45 21 20 9 42 25 47 34 6 10 11 13 11 6 0 -6 -12 -26 -26 -43
-29 -33 -25 -52 6 -32 17 10 20 10 20 -3 0 -24 20 -17 30 10 6 15 15 23 24 19
8 -3 17 -1 21 5 3 6 15 11 25 11 10 0 32 17 49 37 25 30 31 33 31 18 0 -11
-32 -51 -74 -92 l-75 -73 -56 25 -57 25 6 -26 c7 -28 4 -29 -62 -8 -19 5 -23
3 -20 -12 2 -16 -3 -19 -37 -19 -34 0 -40 -3 -43 -23 -2 -14 2 -22 12 -22 10
0 13 -6 10 -15 -4 -10 0 -15 15 -15 12 0 21 -6 21 -15 0 -8 9 -15 20 -15 12 0
20 -7 20 -16 0 -14 2 -14 16 -3 14 11 18 10 30 -6 21 -29 13 -37 -38 -39 -55
-2 -68 -11 -44 -29 12 -8 17 -23 14 -41 l-3 -28 -24 21 c-32 28 -61 28 -54 1
5 -18 0 -20 -42 -20 -40 0 -46 -2 -36 -14 7 -8 26 -18 42 -21 24 -5 29 -11 24
-26 -5 -15 -1 -19 19 -19 14 0 28 -5 31 -10 3 -5 15 -10 25 -10 10 0 23 -8 29
-17 9 -17 10 -17 16 0 8 19 16 12 71 -54 11 -13 28 -29 39 -35 31 -17 28 -30
-12 -50 -39 -19 -97 -22 -147 -9 -26 7 -28 6 -21 -14 6 -21 4 -22 -29 -20 -49
5 -66 -14 -32 -36 14 -10 26 -26 26 -36 0 -12 7 -19 20 -19 11 0 20 -7 20 -15
0 -21 27 -30 45 -15 13 10 15 9 15 -10 0 -18 4 -21 25 -18 38 8 30 -11 -12
-29 -35 -14 -40 -14 -68 2 -26 15 -30 15 -41 1 -6 -9 -25 -16 -43 -16 -39 0
-40 -18 -1 -31 20 -7 30 -18 30 -31 0 -17 5 -20 29 -16 22 3 31 0 34 -14 3
-10 12 -18 21 -18 9 0 16 -6 16 -13 0 -27 48 -12 81 26 32 35 35 37 54 23 19
-15 19 -15 -9 -16 -24 0 -28 -3 -23 -22 2 -13 8 -31 12 -40 4 -12 3 -18 -5
-18 -7 0 -29 -13 -49 -29 -20 -15 -51 -31 -68 -35 -18 -3 -47 -9 -63 -12 -20
-4 -32 -14 -36 -29 -4 -18 -15 -25 -45 -30 -21 -4 -41 -10 -44 -14 -9 -15 43
-50 65 -44 20 5 21 4 11 -15 -15 -28 -14 -32 9 -32 11 0 20 -4 20 -9 0 -5 18
-7 40 -4 38 5 40 4 40 -20 0 -14 -4 -29 -10 -32 -5 -3 -10 -13 -10 -22 0 -11
6 -14 23 -9 13 3 32 -1 44 -9 12 -9 23 -11 25 -5 2 6 20 7 48 2 l45 -8 -57
-17 c-51 -15 -148 -17 -1068 -17 l-1011 0 6 62 c3 35 8 82 11 106 l5 42 53 -1
c41 -2 60 3 84 21 18 13 32 29 32 35 0 21 -59 62 -97 68 -21 3 -49 8 -62 11
-14 3 -65 9 -115 12 l-91 7 20 -24 c11 -13 24 -27 29 -31 5 -3 -4 -18 -19 -32
-15 -14 -26 -28 -23 -31 2 -3 27 -7 54 -11 95 -11 92 -9 84 -56 -4 -24 -11
-73 -15 -111 l-7 -67 -231 1 c-201 0 -237 3 -272 18 l-40 18 58 8 c38 5 57 12
57 21 0 10 15 14 54 14 51 0 54 1 49 22 -3 13 -2 20 2 16 10 -9 68 38 77 64 4
10 20 21 35 24 26 5 71 50 61 60 -3 2 -29 -3 -59 -10 -36 -10 -58 -11 -66 -4
-6 5 -31 7 -55 5 -24 -2 -34 -2 -23 0 11 3 27 11 36 19 11 10 26 13 43 8 22
-5 28 -3 33 15 3 11 10 21 17 21 16 0 66 65 66 86 0 15 -3 15 -20 -4 -21 -22
-61 -28 -107 -16 -42 12 -26 29 23 25 43 -3 45 -2 35 17 -8 16 -6 25 11 47 12
15 25 48 28 72 l7 44 -41 -39 c-35 -35 -93 -72 -111 -72 -3 0 -5 5 -5 10 0 6
7 10 16 10 10 0 14 6 10 15 -3 10 1 15 13 15 10 0 21 9 24 20 3 13 10 18 21
14 12 -4 15 -2 10 9 -4 11 3 17 25 22 34 7 47 34 32 64 -15 26 -14 64 1 79 9
9 8 12 -5 12 -9 0 -46 -27 -83 -60 -36 -33 -70 -60 -75 -60 -14 0 -11 28 4 33
10 4 10 7 0 18 -14 14 -17 30 -5 27 4 -1 18 2 30 6 19 6 22 13 18 32 -6 22 -4
24 12 15 15 -8 18 -6 17 9 -1 11 -4 22 -8 26 -3 4 4 15 16 24 12 10 19 22 15
26 -8 8 -20 3 -112 -50 -44 -24 -63 -30 -72 -22 -8 8 -6 17 9 38 12 16 26 28
31 28 23 0 96 80 96 104 0 14 8 30 18 35 16 10 16 10 -2 11 -10 0 -46 -17 -80
-38 -63 -39 -110 -62 -126 -62 -19 0 -10 28 14 44 14 8 27 24 31 35 3 11 15
23 26 26 10 4 19 14 19 24 0 9 5 22 10 27 8 8 7 14 -3 22 -11 9 -24 8 -58 -7
-83 -35 -95 -35 -113 3 -20 43 -20 46 4 46 27 0 25 29 -2 39 -19 7 -15 10 27
16 28 3 61 11 75 16 20 7 18 8 -13 4 -47 -7 -67 3 -37 19 16 8 24 22 26 50 2
22 9 43 15 47 17 10 21 46 7 55 -6 4 -16 0 -23 -9 -7 -10 -17 -17 -23 -17 -6
0 -20 -9 -30 -21 -16 -16 -29 -20 -68 -17 -45 3 -78 28 -36 28 10 0 27 9 37
20 10 11 24 20 32 20 16 0 17 12 2 27 -9 9 -8 18 5 38 10 14 16 36 14 48 -3
20 -7 18 -53 -24 -67 -62 -115 -86 -115 -58 0 5 4 8 10 4 12 -7 50 25 50 43 0
7 14 19 30 26 17 7 27 15 23 19 -3 4 3 17 14 30 20 22 37 57 28 57 -3 0 -29
-15 -58 -34 -50 -33 -117 -56 -117 -40 0 4 26 32 57 60 31 29 55 56 52 59 -3
3 -22 -2 -42 -10 -48 -20 -98 -20 -91 0 5 11 11 12 25 4 26 -14 39 -4 39 31 0
23 5 30 29 35 21 4 29 12 28 25 -1 10 -4 18 -7 16 -3 -1 -17 -8 -32 -16 -46
-22 -45 -2 0 42 47 44 50 62 5 31 -15 -11 -40 -23 -55 -26 -14 -4 -34 -10 -44
-14 -17 -6 -17 -5 -1 17 9 14 17 33 17 43 0 10 18 36 41 58 22 21 38 39 34 39
-3 0 -30 -13 -59 -30 -30 -16 -56 -27 -59 -24 -8 8 16 64 29 64 6 0 19 9 29
20 22 24 16 25 -30 3 -19 -9 -35 -23 -35 -30 0 -16 -12 -17 -28 -1 -9 9 -12 8
-12 -4 0 -9 7 -18 15 -22 22 -8 18 -19 -15 -41 -34 -22 -38 -49 -13 -77 14
-16 14 -18 1 -13 -9 4 -18 0 -21 -9 -9 -22 -23 -20 -48 5 -27 27 -38 15 -15
-19 9 -15 20 -34 22 -43 3 -9 16 -22 28 -28 12 -7 27 -21 34 -32 11 -17 9 -19
-13 -19 -14 0 -39 10 -55 22 -16 12 -33 18 -37 14 -5 -4 0 -13 10 -20 9 -7 17
-18 17 -24 0 -6 4 -12 9 -14 5 -1 7 -15 4 -31 -4 -21 -11 -27 -31 -27 -14 0
-34 7 -44 17 -17 15 -18 15 -18 -5 0 -21 -24 -52 -41 -52 -6 0 -7 5 -3 11 4 7
7 26 6 43 0 17 6 39 15 48 25 27 9 32 -46 14 -68 -22 -133 -21 -154 2 -29 32
-21 43 26 36 40 -7 41 -6 26 12 -33 39 -34 47 -6 40 26 -6 48 9 25 16 -8 3 -4
9 10 17 12 6 22 16 22 22 0 6 -7 6 -19 -1 -11 -5 -35 -10 -53 -10 -36 0 -162
23 -190 35 -19 8 -24 25 -8 25 6 0 10 7 10 17 0 15 1 15 18 0 10 -9 29 -15 42
-13 67 9 87 30 55 56 -25 21 -17 28 29 23 38 -5 44 -3 49 16 3 14 16 23 36 27
17 4 28 10 25 15 -3 5 1 9 9 9 14 0 27 20 27 41 0 5 -9 9 -21 9 -11 0 -17 5
-14 10 3 6 -1 10 -10 10 -8 0 -18 6 -21 14 -3 8 -13 12 -22 11 -9 -2 -33 -6
-52 -10 l-34 -5 29 31 c24 26 26 29 8 20 -32 -16 -48 -15 -33 4 21 25 3 29
-26 6 -35 -28 -104 -28 -161 0 -41 20 -71 54 -59 66 3 4 0 13 -6 22 -12 15
-11 15 7 0 11 -8 37 -20 58 -26 31 -9 39 -9 46 4 8 14 11 14 32 -1 30 -20 43
-21 35 0 -5 14 1 15 55 9 l62 -7 -7 25 c-5 20 -2 27 15 32 15 5 18 10 11 17
-8 8 2 20 34 40 47 32 56 48 25 48 -10 0 -24 7 -31 15 -7 8 -19 15 -26 15 -8
0 -14 7 -14 15 0 19 -9 19 -49 -1 -36 -18 -101 -11 -68 7 9 6 17 21 17 34 0
23 0 23 -32 7 -64 -32 -123 -16 -222 59 -49 37 -71 68 -36 49 15 -8 20 -8 20
2 0 9 3 9 8 2 9 -13 72 -45 71 -36 -4 29 1 35 19 20 33 -29 42 -30 51 -6 9 21
10 21 10 3 1 -11 10 -26 22 -33 18 -11 24 -11 40 4 10 9 19 25 19 36 0 14 5
17 24 12 21 -5 24 -3 19 15 -3 13 -1 21 7 21 10 0 10 3 0 15 -18 22 -4 31 18
12 24 -22 56 -23 48 -2 -4 10 5 19 28 29 52 21 54 36 6 36 -38 0 -41 2 -35 22
l7 21 -35 -21 c-41 -26 -51 -27 -43 -6 3 8 2 12 -4 9 -14 -9 -12 19 3 34 15
17 1 9 -60 -32 l-42 -29 -66 33 c-65 32 -105 68 -105 95 0 23 26 16 44 -11 19
-29 36 -33 36 -8 0 14 3 13 16 -5 23 -34 54 -29 54 8 0 20 5 30 15 30 8 0 15
-4 15 -10 0 -13 49 -44 57 -36 4 3 -4 20 -16 37 -29 39 -19 50 15 16 28 -28
67 -39 45 -13 -9 11 -5 16 19 26 26 11 28 15 18 28 -11 13 -9 14 14 9 31 -8
58 0 58 18 0 14 -22 25 -51 25 -10 0 -19 7 -19 15 0 19 -27 19 -64 0 -39 -21
-43 -19 -51 16 -6 26 -10 30 -31 25 -20 -5 -24 -3 -24 15 0 22 0 22 -21 3 -34
-31 -71 -42 -99 -30 -35 14 -34 14 -21 30 18 21 7 32 -38 40 -34 5 -41 11 -49
38 -18 60 -22 87 -13 92 5 3 11 -15 14 -40 6 -55 19 -73 42 -54 9 7 14 19 11
27 -3 8 -1 11 4 8 6 -3 10 -12 10 -20 0 -18 28 -45 45 -45 11 0 12 6 5 24 -7
19 -5 26 6 30 21 8 24 8 24 -5 0 -15 39 -69 51 -69 5 0 14 12 19 26 8 20 13
24 24 15 14 -12 73 -5 93 11 9 8 6 18 -15 44 -15 19 -34 34 -42 34 -9 0 -26 7
-38 16 -17 11 -20 19 -13 28 6 7 8 16 4 19 -10 11 -51 8 -58 -3 -8 -12 -35
-13 -35 -1 0 5 9 11 20 14 13 3 18 11 14 20 -3 10 3 17 19 21 43 10 41 34 -4
41 -46 8 -52 14 -33 39 11 16 16 17 29 6 13 -11 18 -10 31 8 8 12 24 22 35 22
30 0 22 27 -12 39 l-30 10 22 30 c12 17 28 32 36 35 24 10 14 26 -17 26 -35 0
-37 9 -10 40 20 24 27 50 12 50 -5 0 -19 -11 -32 -25 -27 -29 -45 -32 -54 -8
-6 14 -11 10 -30 -18 -13 -19 -26 -44 -30 -56 -4 -11 -28 -41 -54 -65 l-47
-43 -3 85 c-3 102 1 126 28 133 16 4 20 0 20 -19 0 -26 17 -33 26 -9 4 10 15
12 35 8 16 -3 29 -3 29 0 0 21 -27 57 -53 71 l-32 17 57 -6 c65 -6 79 4 43 31
-32 24 -32 30 8 55 l32 20 -40 -7 c-22 -4 -48 -11 -57 -16 -14 -7 -16 -5 -12
9 4 12 -3 8 -20 -10 -14 -15 -26 -35 -26 -43 0 -8 -6 -14 -14 -14 -8 0 -17 -6
-20 -12 -3 -7 -3 5 0 27 6 43 19 68 64 130 37 51 37 59 0 40 -16 -9 -30 -20
-30 -26 0 -6 -5 -7 -10 -4 -7 4 -8 24 -4 52 7 45 -10 98 -28 87 -4 -3 -6 -9
-3 -14 3 -5 0 -41 -6 -80 l-12 -71 -26 27 c-22 24 -26 26 -29 11 -2 -10 8 -38
22 -63 27 -48 34 -115 17 -143 -7 -11 -11 -4 -17 25 -10 55 -34 101 -44 84 -7
-11 -13 -10 -32 2 l-24 16 10 -54 c8 -45 7 -57 -7 -72 -20 -22 -7 -47 22 -39
18 4 21 1 21 -24 0 -32 -11 -37 -30 -14 -7 8 -16 15 -21 15 -15 0 -10 -47 5
-59 13 -11 12 -15 -5 -32 -22 -22 -39 -17 -79 26 -14 15 -33 31 -42 36 -15 8
-18 5 -18 -16 0 -14 9 -33 20 -43 l21 -17 -23 -5 c-29 -7 -37 -40 -11 -40 12
0 25 -13 35 -35 l16 -36 -30 -6 c-22 -4 -28 -10 -26 -27 2 -16 9 -20 27 -18
13 1 32 -5 43 -15 14 -13 21 -14 30 -5 7 7 21 12 32 12 19 0 19 -1 -3 -21 -29
-27 -13 -51 20 -31 19 12 20 11 14 -7 -6 -21 9 -38 20 -21 4 6 10 8 15 5 5 -3
13 3 19 12 9 17 10 17 16 1 4 -9 5 -25 3 -35 -3 -15 -14 -18 -70 -18 -59 0
-70 3 -104 31 -46 37 -78 35 -43 -2 12 -13 20 -24 16 -24 -19 0 -67 29 -102
62 -47 45 -55 46 -55 13 0 -23 -4 -25 -40 -25 -27 0 -43 -5 -47 -15 -8 -24 26
-44 75 -45 l43 0 -28 -25 c-23 -20 -25 -26 -13 -34 14 -10 70 15 70 31 0 4 8
8 18 8 13 0 10 -6 -13 -25 -16 -13 -24 -24 -17 -25 6 0 12 -8 12 -18 0 -31 9
-31 65 -2 30 16 55 24 55 19 0 -5 -13 -15 -30 -24 -38 -20 -41 -49 -5 -43 18
4 25 1 25 -11 1 -12 5 -11 20 7 11 13 24 21 30 17 6 -4 16 -2 23 3 7 6 25 12
42 14 20 2 36 14 52 37 22 33 23 33 23 9 0 -31 -42 -71 -124 -117 l-56 -33
-42 31 c-49 36 -62 39 -55 11 6 -25 -26 -28 -49 -5 -20 19 -34 19 -34 -1 0
-12 -9 -15 -42 -12 -34 2 -43 -1 -46 -14 -2 -12 3 -18 14 -18 14 0 15 -3 6
-12 -18 -18 -15 -28 9 -28 15 0 19 -5 15 -15 -4 -10 1 -15 14 -15 11 0 20 -7
20 -15 0 -9 9 -15 25 -15 20 0 25 -5 25 -24 0 -31 -16 -42 -28 -20 -7 13 -17
15 -47 10 -28 -6 -35 -10 -26 -19 13 -13 15 -77 3 -77 -5 0 -19 11 -32 25 -30
32 -56 35 -39 4 12 -24 8 -24 -77 -3 -29 7 -29 7 -10 -14 10 -12 27 -24 38
-28 12 -4 18 -13 16 -27 -2 -17 3 -23 25 -25 15 -2 27 -9 27 -18 0 -8 9 -14
20 -14 14 0 20 -7 20 -22 l0 -22 16 22 16 23 24 -43 c14 -24 27 -50 30 -58 9
-24 53 -53 67 -43 7 4 5 0 -5 -9 -17 -15 -98 -38 -137 -38 -10 0 -30 9 -44 20
-32 26 -47 25 -47 -1 0 -19 -4 -20 -39 -14 -46 8 -59 -5 -31 -30 11 -10 20
-26 20 -37 0 -10 6 -18 14 -18 8 0 16 -10 18 -22 2 -18 9 -23 30 -23 20 1 27
-4 25 -15 -1 -10 7 -16 26 -18 38 -5 34 -17 -13 -32 -37 -12 -43 -12 -70 8
-30 23 -56 29 -45 12 4 -6 -11 -10 -37 -10 l-43 -1 28 -22 c15 -13 27 -30 27
-40 0 -17 9 -21 43 -18 11 2 17 -5 17 -18 0 -12 7 -21 15 -21 8 0 12 -6 9 -14
-7 -17 33 -28 58 -15 10 5 18 13 18 18 0 15 46 29 63 19 22 -12 11 -31 -13
-23 -24 8 -32 -7 -21 -38 8 -22 6 -26 -32 -42 -44 -20 -123 -36 -171 -36 -19
0 -30 -6 -33 -18 -5 -20 -64 -38 -83 -26 -21 13 -9 -21 13 -35 22 -14 28 -16
49 -19 7 -1 5 -8 -6 -20 -16 -17 -16 -19 5 -24 11 -3 18 -10 14 -16 -4 -7 8
-11 34 -11 36 0 41 -3 41 -22 l1 -23 19 24 c20 23 20 23 20 2 0 -17 6 -21 35
-21 27 0 37 6 49 28 l15 27 1 -30 0 -30 20 25 c16 20 20 22 20 8 0 -25 16 -22
25 5 3 12 8 17 11 11 3 -6 16 -9 31 -6 18 3 24 1 21 -9 -6 -19 -59 -47 -90
-48 -15 -1 -30 -5 -33 -11 -3 -5 -22 -10 -41 -10 -28 0 -35 -4 -32 -17 2 -11
15 -20 32 -23 16 -3 31 -11 34 -17 4 -15 -6 -16 -213 -18 -160 -2 -194 -5
-198 -19 -1 -5 13 -16 30 -26 l33 -17 -33 -26 c-31 -25 -31 -26 -9 -27 13 0
39 -7 58 -16 27 -13 37 -14 49 -4 10 8 15 9 15 2 0 -6 -5 -14 -10 -17 -17 -10
-11 -25 10 -25 11 0 20 5 20 10 0 21 20 9 26 -15 l6 -25 34 21 34 21 -6 -31
c-5 -24 -3 -31 9 -31 8 0 20 7 27 15 17 20 29 19 24 -2 -3 -12 4 -22 21 -30
14 -6 25 -7 25 -2 0 5 5 9 10 9 6 0 10 -7 10 -15 0 -10 10 -15 31 -15 26 0 29
-2 19 -15 -15 -18 -97 -42 -172 -51 -49 -6 -60 -4 -84 15 -15 11 -31 21 -35
21 -14 0 -11 -28 4 -33 33 -14 -75 9 -122 25 -30 10 -59 18 -64 18 -15 0 33
-49 55 -56 18 -5 18 -7 2 -18 -20 -15 -11 -36 16 -36 22 0 35 -16 20 -25 -20
-12 -10 -26 10 -15 16 9 20 8 20 -6 0 -13 8 -15 39 -12 31 3 37 1 29 -9 -8
-10 -6 -13 5 -13 9 0 21 -8 26 -17 9 -16 12 -16 21 -3 8 11 9 8 4 -13 -7 -32
12 -37 52 -11 l25 17 -13 -28 c-23 -51 -165 -92 -212 -62 -12 9 -40 19 -61 23
-35 6 -37 5 -30 -15 7 -22 6 -22 -24 -7 -38 20 -71 21 -71 1 0 -8 6 -15 13
-15 8 0 8 -3 -2 -9 -42 -27 -81 48 -40 77 10 7 19 17 19 23 0 14 -22 11 -41
-7 -12 -11 -24 -14 -36 -8 -10 4 -24 8 -30 9 -7 0 -13 4 -13 8 0 40 -1 40 17
26 15 -13 15 -12 5 8 -17 30 -14 42 3 19 14 -19 15 -19 15 5 0 14 7 34 15 45
23 30 19 56 -7 52 -20 -3 -23 2 -26 34 -3 31 0 36 15 32 15 -4 18 2 20 45 0
28 -3 48 -8 45 -5 -3 -9 -10 -9 -16 0 -6 -16 -30 -35 -54 -19 -23 -35 -47 -35
-52 0 -16 -41 -22 -64 -10 -20 11 -20 11 4 22 42 18 94 72 87 90 -9 22 -39 20
-70 -4 -14 -11 -30 -20 -36 -20 -16 0 -13 36 4 50 9 8 13 21 9 36 -8 30 21 45
39 19 9 -11 23 -16 42 -13 30 3 30 3 -22 36 -54 34 -72 58 -44 58 9 0 32 2 51
3 34 2 34 3 10 12 -30 12 -39 26 -40 59 l-1 25 -16 -22 c-21 -30 -41 -29 -53
3 -11 28 -4 90 11 100 5 3 9 12 9 21 0 14 -3 14 -20 -2 -11 -10 -20 -24 -20
-30 0 -12 -40 -29 -47 -21 -5 5 18 58 33 76 14 18 35 132 22 124 -4 -3 -8 -11
-8 -19 0 -21 -26 -25 -42 -5 -10 11 -13 23 -7 31 18 28 9 62 -23 91 -25 22
-29 31 -20 40 14 14 16 42 3 33 -6 -3 -13 0 -18 7 -4 7 -20 24 -36 37 -34 31
-36 9 -2 -25 26 -26 46 -84 29 -84 -5 1 -25 14 -44 30 -38 33 -65 41 -34 10
35 -35 42 -47 59 -96 9 -27 21 -54 27 -61 7 -9 7 -13 -1 -13 -19 0 -53 20 -83
48 -37 35 -36 10 2 -38 41 -52 41 -72 -1 -50 -16 9 -19 7 -19 -10 0 -13 10
-24 25 -30 20 -8 25 -16 25 -45 0 -33 2 -36 26 -33 15 2 29 -3 31 -9 6 -16
-37 -17 -71 -2 -13 6 -27 20 -29 30 -5 20 -27 27 -27 9 0 -25 -126 -131 -185
-156 -42 -17 -45 -17 -45 0 0 7 36 31 80 52 44 22 80 44 80 51 0 6 14 25 30
41 16 17 30 35 30 41 0 18 -28 12 -43 -9 -8 -11 -17 -17 -21 -13 -3 4 8 21 25
39 30 31 31 32 14 58 -16 23 -16 28 -2 49 23 35 28 102 6 80 -14 -14 -36 -52
-45 -75 -3 -10 -10 -18 -15 -18 -5 0 -14 -11 -19 -25 -8 -20 -15 -24 -32 -20
-14 4 -47 -4 -83 -21 -46 -20 -80 -27 -145 -30 -68 -3 -76 -2 -40 5 67 13 111
34 148 72 63 65 55 108 -14 79 -25 -11 -55 -20 -66 -20 -17 0 -20 5 -16 30 3
17 1 33 -3 36 -5 2 -4 15 1 28 6 16 4 30 -6 44 -13 19 -10 22 41 48 46 23 120
90 171 156 15 20 48 108 42 114 -3 2 -27 -17 -52 -43 -26 -26 -62 -56 -79 -65
-41 -22 -133 -66 -173 -84 -30 -13 -32 -12 -27 7 6 23 58 49 96 49 36 0 75 36
87 81 6 21 15 39 20 39 6 0 10 4 10 9 0 6 14 30 30 54 30 46 38 81 20 92 -5 3
-10 -3 -10 -15 0 -11 -8 -23 -17 -27 -10 -4 -33 -19 -50 -34 -18 -16 -52 -33
-74 -39 -23 -7 -52 -18 -63 -25 -20 -13 -39 -17 -133 -31 -47 -7 -55 2 -23 31
11 10 20 24 20 32 0 9 15 13 53 12 60 -2 91 11 108 44 7 12 20 28 31 35 10 7
18 19 18 26 0 8 7 16 15 20 8 3 15 10 15 15 0 6 14 30 30 55 18 26 33 63 36
93 l7 48 -29 -37 c-16 -20 -46 -44 -66 -52 -21 -9 -38 -20 -38 -25 0 -5 -8
-12 -19 -16 -10 -3 -28 -14 -40 -24 -22 -19 -88 -37 -98 -27 -10 9 17 35 40
38 14 2 22 10 22 23 0 14 -6 19 -20 17 -68 -12 -98 -13 -107 -4 -7 7 -4 12 8
16 11 3 32 26 48 52 22 34 34 44 48 41 11 -3 22 0 25 9 3 8 13 14 23 14 10 0
23 7 30 15 17 21 51 188 40 199 -12 12 -52 -15 -87 -59 -15 -19 -34 -35 -41
-35 -7 0 -20 -7 -28 -15 -38 -38 -60 -2 -24 38 12 12 26 41 32 64 5 23 16 48
24 54 16 13 19 55 5 63 -5 4 -11 1 -13 -5 -6 -17 -46 -1 -51 19 -2 9 8 29 21
44 l25 27 -24 9 c-20 8 -24 16 -24 48 0 31 -5 41 -23 49 -19 8 -22 15 -18 37
4 20 -4 44 -31 89 -21 34 -39 56 -41 48 -8 -29 -33 -79 -40 -79 -4 0 -14 -5
-22 -10 -13 -8 -12 -11 5 -24 15 -11 17 -18 9 -26 -7 -7 -10 -29 -6 -53 l5
-42 -22 19 c-21 19 -21 19 -21 0 0 -11 -10 -25 -21 -32 -16 -10 -18 -17 -10
-25 6 -6 11 -18 11 -26 0 -11 -3 -12 -8 -4 -10 15 -92 43 -92 31 0 -5 10 -22
21 -38 13 -17 20 -37 16 -49 -2 -11 0 -22 7 -25 6 -2 -1 -5 -15 -5 -33 -1 -56
-20 -64 -53 -6 -25 -5 -27 31 -30 27 -2 40 -8 42 -20 2 -11 -3 -18 -11 -18 -8
0 -18 -7 -21 -16 -5 -12 -14 -15 -36 -10 -17 3 -30 3 -30 0 0 -14 113 -176
126 -181 27 -10 14 -20 -30 -21 -41 -2 -48 1 -77 38 -40 50 -64 54 -55 9 3
-17 6 -49 6 -71 0 -35 4 -41 30 -51 17 -6 30 -15 30 -20 0 -12 -110 -3 -118 9
-16 22 -71 53 -77 43 -6 -9 3 -25 33 -59 8 -8 31 -43 52 -76 26 -43 49 -67 76
-80 32 -16 39 -24 39 -48 0 -16 -6 -31 -12 -33 -7 -3 -13 3 -13 11 0 19 -56
56 -86 56 -12 0 -26 11 -34 25 -7 14 -17 25 -22 25 -4 0 -8 14 -8 30 0 33 -11
38 -30 15 -9 -11 -9 -21 4 -46 20 -40 20 -48 0 -70 -15 -16 -14 -19 12 -41 16
-13 42 -37 59 -54 16 -17 40 -35 52 -38 26 -8 33 -24 22 -53 -11 -30 -66 -31
-128 -3 -48 22 -67 25 -76 10 -9 -14 15 -35 50 -44 16 -4 49 -25 72 -47 29
-26 52 -39 71 -39 15 0 37 -6 47 -14 17 -12 14 -14 -28 -20 -25 -4 -62 -4 -81
0 -28 5 -37 3 -42 -10 -4 -10 -18 -16 -40 -16 -27 0 -48 12 -104 61 -49 42
-69 66 -65 77 3 8 -3 23 -16 35 -13 12 -19 27 -15 39 4 19 1 20 -35 15 -37 -5
-39 -4 -33 16 6 18 1 17 -30 -11 -40 -35 -51 -40 -42 -17 3 9 -1 15 -11 15
-13 0 -13 3 -3 15 25 31 1 26 -27 -5 -43 -48 -58 -53 -116 -39 -60 14 -113 44
-128 70 -8 16 -6 19 9 19 11 0 25 -7 32 -15 20 -24 43 -19 35 8 l-7 22 21 -22
c12 -13 30 -23 40 -23 14 0 17 6 13 30 -5 34 7 38 43 14 13 -9 32 -14 42 -12
15 3 13 7 -12 30 -16 15 -26 30 -23 33 3 3 13 -1 21 -10 9 -8 31 -18 49 -22
30 -6 32 -5 19 10 -12 15 -10 19 10 37 13 10 18 19 12 20 -27 0 -11 20 16 20
29 0 57 21 44 33 -3 4 -24 7 -45 7 -21 0 -38 5 -38 10 0 17 -30 11 -57 -10
-31 -24 -43 -25 -43 -5 0 8 -4 15 -10 15 -5 0 -10 7 -10 15 0 12 -4 13 -19 5
-26 -14 -31 -13 -31 6 0 12 -9 8 -35 -15 -47 -41 -137 -44 -103 -4 16 19 0 31
-47 35 -32 2 -44 9 -62 37 -23 34 -32 88 -13 76 6 -3 10 -16 10 -28 0 -12 8
-34 18 -49 14 -22 21 -25 30 -16 7 7 12 21 13 33 0 14 2 15 6 5 6 -17 43 -49
57 -50 5 0 6 13 3 29 -9 43 15 45 47 5 30 -38 46 -43 46 -15 0 26 23 44 38 29
8 -8 21 -5 48 9 47 24 53 40 20 53 -14 5 -26 13 -26 18 0 4 -19 12 -42 18 -36
8 -43 13 -41 32 2 17 -2 22 -21 22 -13 0 -29 -7 -36 -15 -7 -8 -19 -15 -28
-15 -13 0 -12 3 3 20 10 11 15 23 12 26 -4 4 5 15 18 26 31 24 24 38 -19 38
-40 0 -48 7 -35 31 5 11 16 16 25 12 9 -3 23 3 34 15 11 12 28 25 37 31 22 12
6 33 -29 37 -13 1 -24 3 -26 3 -1 1 9 19 23 41 14 22 25 42 25 45 0 3 -13 5
-30 5 l-29 0 14 40 c8 22 10 42 5 45 -8 5 -43 -33 -54 -58 -3 -8 -8 -6 -16 6
-6 9 -15 17 -19 17 -10 0 -27 -43 -35 -88 -3 -18 -10 -38 -16 -45 -6 -6 -19
-24 -31 -39 -31 -42 -46 -35 -53 25 -3 28 -9 71 -12 94 -5 35 -3 43 15 52 18
10 21 9 21 -9 0 -23 25 -27 34 -5 3 8 17 15 31 15 14 0 25 4 25 8 0 14 -45 52
-63 52 -9 0 -18 4 -22 9 -3 6 17 11 46 13 31 2 54 8 57 16 2 6 -2 12 -10 12
-7 0 -21 7 -31 14 -17 13 -16 15 9 45 14 17 21 31 15 31 -14 0 -63 -30 -73
-45 -4 -5 -8 0 -8 13 0 34 -18 17 -31 -31 -14 -47 -26 -67 -42 -67 -18 0 -1
84 33 153 18 37 30 70 27 74 -12 11 -38 -7 -48 -34 -8 -22 -12 -24 -19 -13 -6
8 -10 31 -10 50 0 19 -9 46 -20 60 l-19 25 6 -90 6 -90 -38 34 c-48 41 -56 27
-18 -29 50 -75 63 -104 63 -145 l0 -40 -20 30 c-11 17 -20 40 -20 52 0 32 -10
53 -26 53 -8 0 -14 -9 -14 -20 0 -24 -17 -26 -41 -4 -21 19 -41 10 -32 -14 4
-9 19 -32 35 -50 33 -38 33 -41 11 -58 -17 -12 -17 -14 0 -31 18 -17 19 -17
33 1 11 16 14 17 14 4 0 -9 3 -24 7 -34 7 -18 -5 -17 -49 1 -30 12 -21 -19 14
-54 23 -22 27 -31 15 -31 -9 0 -20 -7 -25 -16 -7 -13 -17 -11 -68 20 -32 20
-62 36 -66 36 -18 0 -6 -40 16 -58 l24 -19 -41 -27 c-30 -19 -52 -26 -77 -24
-39 3 -48 21 -13 26 16 2 25 12 28 30 3 15 9 45 14 67 5 22 7 43 5 47 -10 16
-31 7 -44 -18 -19 -34 -37 -42 -83 -36 -37 4 -37 5 -17 19 11 8 32 31 45 51
13 21 41 58 61 85 36 47 36 47 9 37 -30 -11 -45 -6 -45 16 0 8 -7 14 -15 14
-8 0 -15 4 -15 9 0 16 23 25 52 22 24 -2 28 1 28 23 0 29 -31 66 -55 66 -21 0
-9 45 24 89 l25 34 -34 -8 c-19 -4 -41 -12 -48 -18 -19 -15 -25 -2 -10 22 10
16 10 23 0 33 -6 6 -12 20 -12 30 0 23 -16 23 -29 1 -10 -17 -10 -17 -11 -1 0
9 5 28 11 42 9 20 9 29 -1 41 -10 12 -9 16 4 21 21 8 20 22 -4 42 -12 11 -21
32 -23 54 -2 35 -17 56 -17 25 0 -8 -9 -22 -20 -32 -11 -10 -20 -24 -20 -30 0
-7 -7 -16 -16 -19 -13 -5 -15 -15 -11 -41 5 -29 2 -35 -16 -41 -30 -9 -37 -23
-26 -51 8 -21 5 -26 -21 -37 -30 -12 -30 -12 -10 -31 11 -10 20 -26 20 -36 0
-23 -39 -46 -50 -30 -5 9 -10 8 -20 -3 -10 -13 -10 -22 3 -48 8 -18 18 -51 22
-73 4 -22 14 -50 22 -63 21 -35 0 -57 -29 -29 -7 7 -21 16 -30 20 -10 3 -18
15 -18 25 0 17 -58 82 -73 82 -8 0 0 -170 9 -194 4 -10 18 -22 31 -27 14 -5
21 -14 17 -20 -4 -7 0 -9 14 -5 17 6 23 -1 37 -44 9 -28 23 -54 31 -57 8 -3
14 -9 14 -14 0 -14 -48 -10 -81 6 -27 14 -30 14 -36 -1 -4 -12 4 -25 27 -44
37 -30 27 -50 -13 -28 -29 16 -97 75 -97 84 0 4 -7 12 -16 19 -14 10 -18 45
-25 221 -13 328 -15 336 -17 69 -2 -249 -2 -250 -21 -221 -11 17 -22 57 -26
100 -4 39 -9 79 -10 89 -2 9 0 17 4 17 4 0 7 9 7 20 0 11 -3 20 -6 20 -4 0 -5
14 -2 30 3 24 1 29 -11 24 -21 -8 -26 -23 -21 -65 2 -19 6 -92 8 -164 2 -71 5
-134 6 -140 7 -30 -1 -175 -10 -175 -5 0 -10 10 -10 23 0 16 -3 18 -9 8 -9
-14 4 -77 20 -97 10 -12 25 -144 17 -144 -22 0 -84 92 -74 109 3 3 7 29 10 56
l6 50 -19 -30 c-10 -16 -33 -43 -50 -59 -17 -17 -31 -36 -31 -43 0 -18 -38
-16 -57 3 -14 14 -14 16 6 21 11 3 21 9 21 14 0 5 6 9 13 9 20 0 47 33 47 58
0 27 -9 27 -60 1 -49 -26 -61 -18 -38 22 10 16 15 35 12 43 -3 7 2 19 11 26
15 12 19 11 33 -8 15 -19 62 -28 62 -12 0 4 -20 21 -45 39 -40 29 -58 53 -37
50 4 -1 25 -1 47 0 35 1 38 3 20 13 -28 16 -35 28 -35 62 l0 30 -20 -22 c-28
-30 -34 -28 -49 15 -10 27 -11 38 -2 41 6 2 11 10 11 18 0 8 7 26 16 39 23 35
8 31 -27 -6 -16 -17 -35 -29 -44 -27 -13 3 -12 8 4 38 35 64 52 105 57 135 4
27 3 28 -5 8 -24 -53 -64 -13 -49 47 9 33 7 40 -16 65 -27 29 -33 50 -16 60
12 7 14 26 2 23 -4 -2 -22 13 -40 32 -23 25 -31 30 -32 18 0 -9 8 -23 18 -30
23 -16 38 -78 19 -78 -7 0 -26 14 -42 30 -16 17 -33 30 -37 30 -9 0 32 -63 45
-68 4 -2 7 -18 7 -35 1 -18 7 -43 15 -57 8 -14 14 -30 15 -37 0 -15 -63 26
-90 59 -28 33 -24 5 5 -42 14 -22 25 -47 25 -56 0 -16 -2 -16 -20 1 -17 16
-20 16 -26 2 -7 -20 3 -37 22 -37 10 0 14 -12 14 -45 0 -42 11 -58 25 -35 10
17 25 11 25 -10 0 -11 -4 -20 -9 -20 -18 0 -71 22 -71 30 0 4 -7 10 -15 13
-12 5 -12 1 -4 -21 6 -15 20 -38 32 -52 48 -55 60 -96 26 -85 -31 10 -58 36
-52 51 7 18 -52 46 -82 38 -19 -5 -25 -2 -25 10 0 10 6 13 15 10 11 -4 15 1
15 17 0 13 3 35 6 49 5 22 2 21 -26 -12 -18 -21 -36 -38 -41 -38 -5 0 -18 -9
-29 -20 -20 -20 -77 -29 -65 -10 3 6 13 10 21 10 8 0 14 5 14 10 0 6 6 10 13
10 21 0 60 49 53 66 -4 10 1 22 11 30 13 9 14 13 4 14 -7 0 1 12 18 27 17 15
31 31 31 34 0 4 -18 10 -40 14 -22 4 -38 11 -34 16 8 14 -20 11 -34 -3 -10
-10 -15 -10 -22 2 -15 24 -13 25 35 22 28 -3 45 0 45 7 0 6 -7 11 -15 11 -17
0 -35 30 -35 61 l0 23 -20 -22 c-27 -29 -40 -28 -40 2 0 13 -3 31 -6 40 -5 13
-1 15 26 9 25 -5 31 -3 25 7 -5 8 3 21 21 36 l29 23 -32 1 c-24 0 -33 5 -33
17 0 13 -7 10 -32 -13 -17 -16 -28 -24 -24 -17 3 6 2 13 -4 15 -6 2 -4 14 4
30 8 15 17 40 21 56 3 17 15 38 25 47 23 21 17 35 -15 35 -42 0 -55 10 -49 39
4 18 0 32 -10 40 -9 8 -16 19 -16 26 0 8 -6 15 -12 18 -10 3 -8 9 5 24 21 24
23 40 2 23 -12 -10 -15 -10 -15 1 0 8 -14 28 -32 44 -30 30 -30 30 -23 5 4
-14 13 -30 20 -35 17 -14 29 -55 16 -55 -6 0 -11 5 -11 10 0 6 -9 10 -20 10
-11 0 -25 9 -32 20 -14 21 -43 27 -53 10 -3 -5 -14 -10 -23 -10 -16 1 -16 2 0
14 10 7 15 16 11 20 -4 3 4 14 18 24 l24 17 -35 5 c-35 5 -52 35 -20 35 20 0
71 40 63 49 -3 3 -15 6 -25 6 -22 0 -23 19 -3 46 20 26 19 34 -5 34 -16 0 -19
5 -14 33 l5 32 -20 -24 c-16 -18 -24 -21 -34 -12 -11 8 -16 5 -25 -15 -7 -14
-12 -33 -12 -42 0 -20 -46 -92 -59 -92 -11 0 -35 125 -27 145 7 19 26 19 26 0
0 -8 4 -15 9 -15 5 0 11 7 15 15 3 8 13 15 22 15 21 0 13 22 -14 36 -37 18
-39 26 -6 21 39 -6 67 8 44 23 -8 5 -19 11 -25 13 -5 2 -2 13 8 24 27 31 20
36 -18 13 -25 -16 -35 -18 -36 -8 0 7 -8 -6 -17 -29 -24 -57 -32 -63 -32 -19
0 20 12 59 26 87 27 55 24 78 -6 42 -24 -30 -30 -29 -30 5 0 16 -7 37 -15 48
-15 18 -16 14 -12 -49 l3 -69 -19 26 c-10 14 -23 26 -28 26 -15 0 -10 -27 8
-41 21 -18 52 -87 53 -117 0 -33 -16 -19 -30 26 -22 71 -20 69 -34 43 -9 -15
-16 -20 -20 -12 -10 15 -36 14 -36 -2 0 -8 9 -22 20 -32 16 -14 19 -26 14 -48
-5 -26 -4 -29 14 -25 15 4 21 0 25 -18 3 -20 1 -22 -14 -14 -24 13 -29 13 -29
-5 0 -8 9 -20 19 -27 16 -9 17 -14 6 -25 -19 -18 -30 -17 -75 10 -46 25 -54
52 -15 45 19 -4 25 -1 25 12 0 10 7 20 15 24 8 3 15 12 15 21 0 29 -29 28 -65
-4 -42 -37 -45 -37 -75 -11 -13 11 -34 20 -47 20 -23 0 -32 23 -13 35 5 3 10
18 10 33 l1 27 15 -28 c22 -41 27 -28 9 24 l-15 44 23 -27 c13 -16 26 -28 29
-28 3 0 9 19 13 42 4 24 17 50 31 63 17 16 24 33 24 58 0 35 0 36 -36 30 -44
-7 -55 7 -42 54 5 18 6 43 3 53 -7 24 7 26 25 5 7 -8 19 -15 27 -15 12 0 13 8
8 40 -4 23 -3 46 3 53 8 10 22 87 16 87 -1 0 -14 -19 -29 -42 -16 -24 -51 -67
-79 -96 -28 -30 -51 -61 -51 -69 0 -29 -73 -44 -97 -20 -7 8 -19 12 -27 9 -8
-3 -12 2 -9 14 2 12 13 20 31 22 15 2 38 13 51 25 13 12 40 33 59 47 31 21 36
31 37 63 0 35 -2 37 -30 37 -17 0 -47 -11 -68 -24 -20 -12 -47 -26 -59 -30
-21 -7 -23 -4 -23 25 0 22 9 43 28 62 18 20 23 31 15 34 -20 7 -15 48 7 68 24
22 44 15 62 -21 18 -38 45 -53 59 -34 8 11 12 12 16 3 7 -19 23 -15 23 5 0 12
-27 37 -71 67 -39 27 -75 59 -80 72 -12 32 -11 37 4 25 8 -7 39 -8 87 -3 l75
7 -38 17 c-45 19 -70 68 -61 119 l5 33 -19 -23 c-11 -12 -22 -27 -24 -32 -2
-6 -16 -12 -32 -13 -27 -2 -30 1 -47 61 -15 52 -15 62 -3 62 9 0 14 11 14 30
0 18 8 37 20 47 11 10 20 29 20 43 -1 23 -4 21 -50 -27 -39 -43 -55 -53 -81
-53 -31 0 -31 0 -15 25 9 13 16 30 16 38 0 7 16 28 35 47 26 25 35 42 35 67 0
18 4 33 8 33 9 0 42 101 42 127 0 13 -3 13 -15 3 -8 -7 -15 -20 -15 -29 0 -40
-52 -55 -70 -21 -6 11 -18 20 -27 20 -11 0 -13 4 -6 13 18 22 45 116 38 136
-3 10 -15 21 -25 24 -13 3 -22 17 -26 36 -4 17 -13 31 -20 31 -20 0 -17 24 6
45 11 10 20 30 20 44 l0 25 -16 -22 c-17 -25 -34 -21 -34 9 0 19 -72 99 -90
99 -6 0 -6 -9 0 -24z m530 -1925 c0 -5 -7 -11 -15 -15 -15 -5 -20 5 -8 17 9
10 23 9 23 -2z m17 -58 c6 -16 -44 -73 -64 -73 -7 0 -18 12 -23 26 -16 41 -12
49 13 26 38 -36 43 -27 20 34 -3 7 5 10 22 6 15 -2 29 -11 32 -19z m85 -75
c-18 -18 -14 -31 8 -25 13 3 20 0 20 -9 0 -18 15 -18 34 1 20 20 26 19 26 -4
0 -26 -10 -31 -63 -33 -46 -2 -117 30 -87 40 8 3 23 13 34 24 22 20 48 26 28
6z m-62 -78 c0 -5 -2 -10 -4 -10 -3 0 -8 5 -11 10 -3 6 -1 10 4 10 6 0 11 -4
11 -10z m207 -27 c-3 -10 -5 -4 -5 12 0 17 2 24 5 18 2 -7 2 -21 0 -30z m-37
-4 c0 -20 -21 -49 -36 -49 -14 0 -14 2 0 16 9 8 16 22 16 30 0 8 5 14 10 14 6
0 10 -5 10 -11z m175 -49 c1 -8 6 -22 9 -31 8 -20 -13 -30 -43 -22 -16 4 -20
11 -16 24 5 16 1 19 -23 19 -16 0 -37 9 -47 20 -10 11 -15 20 -10 20 4 0 14
-8 21 -17 12 -17 13 -16 22 6 7 20 10 21 15 8 4 -10 16 -17 29 -17 16 0 19 3
11 11 -9 9 -8 15 0 24 10 10 14 8 21 -9 5 -11 10 -28 11 -36z m76 13 c7 -18 6
-30 -1 -37 -7 -7 -10 -4 -10 8 0 16 -2 16 -16 6 -12 -11 -18 -10 -32 5 -15 16
-15 17 0 12 10 -4 18 1 21 14 7 27 26 24 38 -8z m-66 -193 c4 -6 11 -8 16 -5
5 4 9 -4 9 -15 0 -18 4 -21 24 -16 16 4 26 1 30 -9 4 -12 0 -14 -21 -8 -35 8
-93 42 -93 54 0 12 27 11 35 -1z m14372 -176 c-3 -3 -12 -4 -19 -1 -8 3 -5 6
6 6 11 1 17 -2 13 -5z m-70 -44 c14 -11 34 -20 45 -20 15 0 17 -3 8 -19 -14
-27 -13 -31 11 -31 11 0 18 -4 14 -9 -3 -6 13 -9 37 -8 36 2 43 -1 40 -15 -2
-10 1 -18 6 -18 6 0 13 8 17 18 6 16 7 16 16 0 16 -28 61 -23 81 10 l17 27 1
-25 1 -25 16 23 c19 26 33 29 34 5 0 -15 2 -14 9 3 6 16 15 20 38 16 18 -2 29
-9 26 -16 -6 -15 -61 -46 -84 -46 -9 0 -23 -7 -30 -15 -7 -8 -28 -15 -46 -15
-19 0 -34 -4 -34 -10 0 -13 34 -30 59 -30 28 0 27 -18 -1 -24 -87 -18 -95 -17
-127 13 -17 16 -43 32 -58 36 -39 9 -52 22 -46 45 4 16 0 20 -20 20 -13 0 -30
-7 -37 -15 -7 -8 -20 -15 -29 -15 -12 1 -11 5 7 20 13 11 21 24 18 29 -4 5 2
12 13 16 11 3 25 12 31 20 10 12 4 16 -33 26 -37 9 -44 14 -40 30 7 24 9 24
40 -1z m-171 -207 c-7 -17 21 -83 35 -83 5 0 13 15 18 33 9 31 10 30 15 -22 0
-8 16 -19 35 -23 26 -7 31 -12 22 -21 -9 -9 -14 -9 -19 0 -4 6 -25 13 -47 15
-32 2 -42 8 -53 31 -20 41 -28 102 -13 93 7 -5 10 -15 7 -23z m-13728 -160
c-4 -22 -22 -20 -26 1 -2 10 3 16 13 16 10 0 15 -7 13 -17z m531 -155 c1 -82
-7 -105 -25 -76 -4 6 -8 66 -10 132 l-2 121 18 -45 c13 -32 19 -71 19 -132z
m-489 91 c0 -10 11 -27 25 -37 14 -11 22 -23 17 -26 -19 -11 -99 85 -87 104 9
15 45 -17 45 -41z m-72 9 c11 -30 10 -34 -10 -50 -28 -21 -37 -22 -62 -3 -18
14 -18 15 8 26 17 8 25 18 21 27 -3 7 -3 18 1 23 11 18 30 8 42 -23z m802 -79
c0 -5 -5 -9 -12 -9 -6 0 -8 3 -5 7 4 3 1 13 -6 22 -11 14 -10 14 6 2 9 -7 17
-17 17 -22z m478 2 l21 -29 -37 -9 c-29 -7 -38 -14 -40 -33 -5 -34 -39 -69
-62 -63 -18 5 -28 -1 -71 -39 -24 -23 -39 -23 -39 -1 0 24 30 53 54 53 14 0
33 17 56 50 82 117 83 118 118 71z m12948 17 c3 -4 16 -8 30 -8 55 0 14 -30
-89 -64 -49 -16 -113 -21 -141 -10 -19 7 -21 54 -3 54 8 0 22 -9 32 -20 10
-11 27 -20 38 -20 19 0 18 3 -8 30 -34 36 -27 51 11 21 15 -11 36 -21 48 -21
20 1 20 1 3 14 -18 14 -18 15 0 24 21 12 72 12 79 0z m-13606 -81 c0 -28 48
-68 80 -66 43 2 47 0 64 -35 9 -19 16 -37 16 -40 0 -10 -48 -7 -55 4 -3 6 -16
10 -29 10 -12 0 -41 14 -64 32 -39 30 -42 36 -42 80 0 38 3 46 15 42 8 -4 15
-16 15 -27z m13286 18 c8 -21 34 -19 34 3 1 16 1 16 11 -1 6 -10 20 -22 32
-27 14 -5 0 -6 -38 -3 -58 6 -85 16 -85 34 0 15 40 10 46 -6z m-13858 -21 c25
-7 31 -34 7 -34 -8 0 -15 8 -15 17 0 13 -3 14 -12 5 -16 -16 -25 -15 -32 3 -6
16 12 19 52 9z m1275 -21 c18 -17 19 -17 32 0 6 9 17 17 24 17 14 0 14 -6 -1
-30 -16 -25 -3 -38 22 -22 17 11 20 10 20 -8 0 -11 4 -20 9 -20 21 0 41 13 41
26 0 24 19 15 26 -12 8 -32 -3 -40 -68 -48 -40 -6 -58 -3 -89 14 -22 11 -49
20 -61 20 -20 0 -21 -1 -3 -20 18 -19 17 -20 -3 -20 -12 0 -29 11 -38 25 -14
22 -14 26 -1 46 13 18 49 44 66 48 3 1 13 -7 24 -16z m-923 -99 c0 -8 -5 -12
-10 -9 -6 4 -8 11 -5 16 9 14 15 11 15 -7z m1106 -87 c-27 -46 -45 -65 -95
-98 -33 -23 -50 -29 -72 -24 -16 4 -31 11 -34 16 -4 5 -15 9 -26 9 -10 0 -19
7 -19 15 0 8 -2 15 -4 15 -2 0 -20 -7 -39 -15 -46 -19 -111 -19 -127 0 -29 34
22 86 62 62 17 -10 24 -7 48 22 16 18 34 31 42 29 9 -3 6 -9 -10 -17 -22 -12
-31 -41 -12 -41 6 0 10 -7 10 -16 0 -9 3 -14 8 -12 4 2 21 10 37 18 17 8 38
24 47 35 10 11 17 15 18 9 0 -6 -11 -21 -25 -34 -14 -13 -25 -29 -25 -37 0
-15 26 -18 35 -3 10 16 25 12 19 -5 -10 -25 16 -17 27 9 7 14 17 22 25 19 8
-3 14 0 14 6 0 6 10 11 22 11 28 0 68 38 68 64 0 16 3 17 12 8 10 -10 8 -19
-6 -45z m-1061 -27 c14 -28 34 -59 45 -70 16 -16 19 -33 18 -119 0 -81 -3 -99
-14 -94 -24 9 -36 40 -19 47 16 6 22 66 7 66 -5 0 -19 -11 -32 -25 -27 -29
-50 -33 -50 -9 0 13 3 14 14 5 12 -10 14 -6 15 21 2 63 4 73 23 90 11 9 17 22
13 28 -5 8 -15 4 -31 -11 -22 -20 -25 -21 -41 -7 -10 8 -24 13 -30 11 -7 -3
-13 1 -13 9 1 18 28 76 29 61 2 -25 19 -13 26 17 4 17 8 30 11 30 2 0 15 -23
29 -50z m125 -2 c0 -6 -7 -5 -15 2 -8 7 -15 17 -15 22 0 6 7 5 15 -2 8 -7 15
-17 15 -22z m13555 23 c3 -5 1 -12 -5 -16 -5 -3 -10 1 -10 9 0 18 6 21 15 7z
m-183 -45 c5 -6 8 -1 8 12 0 26 19 30 21 5 2 -22 -2 -47 -7 -52 -2 -2 -19 4
-38 13 -19 9 -38 16 -43 16 -6 0 -18 9 -28 20 -17 18 -17 20 -2 14 9 -3 17 -2
17 4 0 12 61 -15 72 -32z m105 7 c12 -9 11 -12 -7 -18 -28 -9 -29 -6 -22 30 3
17 7 24 10 15 2 -8 11 -20 19 -27z m-13421 11 c15 -4 23 -16 26 -34 5 -31 -2
-31 -39 3 -36 32 -31 43 13 31z m2272 -14 c-14 -22 -24 -19 -15 5 4 8 11 15
17 15 6 0 6 -7 -2 -20z m-1629 -82 c12 -16 10 -16 -21 -8 -18 6 -35 10 -38 11
-3 1 6 4 20 8 14 4 25 7 25 7 1 -1 7 -9 14 -18z m-79 -18 c0 -5 -7 -10 -16
-10 -8 0 -12 5 -9 10 3 6 10 10 16 10 5 0 9 -4 9 -10z m-610 -37 c0 -6 -5 -15
-11 -19 -6 -3 -9 -17 -6 -30 2 -12 1 -40 -3 -61 -5 -30 -8 -19 -11 53 -4 85
-3 90 14 80 9 -6 17 -16 17 -23z m10421 -69 c-28 -20 -120 -49 -128 -41 -12
13 23 61 57 79 18 9 37 21 43 27 7 7 16 0 27 -22 16 -29 16 -33 1 -43z m-9875
39 c-1 -27 -7 -27 -60 -9 -35 12 -37 15 -20 24 10 6 33 10 50 9 26 -2 31 -6
30 -24z m-491 -9 c16 -25 16 -25 -4 -14 -12 6 -21 17 -21 25 0 21 5 19 25 -11z
m565 -34 c0 -5 -4 -10 -9 -10 -6 0 -13 5 -16 10 -3 6 1 10 9 10 9 0 16 -4 16
-10z m9510 -16 c0 -11 -5 -14 -16 -10 -9 3 -22 6 -30 6 -8 0 -14 5 -14 10 0 6
14 10 30 10 21 0 30 -5 30 -16z m-760 -139 c0 -17 9 -48 21 -69 11 -21 18 -40
16 -43 -3 -2 -24 8 -46 23 l-41 27 0 86 1 86 24 -40 c14 -22 25 -54 25 -70z
m1106 66 c-10 -11 -24 -17 -32 -14 -9 3 -14 -2 -14 -14 0 -22 -54 -58 -71 -47
-8 4 -2 12 15 21 14 7 26 20 26 27 0 19 30 42 51 38 9 -2 20 2 24 8 4 6 10 9
13 6 3 -3 -3 -15 -12 -25z m-8928 -102 c2 -27 11 -54 18 -60 8 -6 14 -17 14
-25 0 -18 56 -56 77 -52 10 2 33 -14 55 -38 44 -47 110 -74 183 -74 l46 0 -41
-38 c-28 -28 -40 -47 -40 -67 l0 -28 -26 24 c-23 21 -24 25 -8 36 9 7 14 19
11 28 -7 17 -42 21 -52 5 -4 -7 -14 -5 -28 5 -12 8 -29 15 -38 15 -10 0 -32
12 -49 26 -28 25 -30 28 -15 44 15 16 14 18 -17 24 -18 4 -43 7 -56 8 -12 0
-21 5 -20 12 4 16 -13 16 -38 0 -11 -8 -36 -17 -55 -21 -30 -6 -33 -5 -21 10
8 9 11 25 7 37 l-7 22 -25 -24 c-38 -36 -119 -32 -205 11 -70 35 -108 64 -69
54 12 -3 21 -1 21 5 0 6 17 2 38 -8 l37 -18 5 25 c5 24 6 25 19 10 18 -22 51
-22 52 1 1 14 2 15 6 1 2 -9 15 -21 28 -27 19 -9 26 -7 40 8 10 11 15 28 12
40 -4 16 0 20 20 20 18 0 24 4 19 15 -3 8 0 15 6 15 9 0 9 3 0 12 -7 7 -12 18
-12 25 0 11 5 10 24 -2 30 -20 55 -11 49 18 -5 21 -5 21 12 -2 10 -13 20 -46
23 -72z m-948 41 c0 -5 -5 -10 -11 -10 -5 0 -7 5 -4 10 3 6 8 10 11 10 2 0 4
-4 4 -10z m9710 -60 c0 -5 -9 -10 -21 -10 -11 0 -17 5 -14 10 3 6 13 10 21 10
8 0 14 -4 14 -10z m-9775 -60 c-24 -26 -34 -25 -27 3 6 27 23 40 36 27 6 -6 3
-17 -9 -30z m1925 -25 c8 -9 8 -15 2 -15 -6 0 -17 -3 -25 -6 -12 -4 -14 0 -10
15 6 25 16 27 33 6z m6880 -21 c0 -14 -4 -22 -10 -19 -5 3 -10 17 -10 31 0 14
4 22 10 19 6 -3 10 -17 10 -31z m-8611 -45 c10 -4 3 -16 -24 -42 -41 -40 -84
-48 -118 -23 -16 12 -15 15 9 40 15 14 34 26 43 26 10 0 26 7 37 15 15 11 21
12 29 1 6 -7 16 -15 24 -17z m7781 -34 c10 -12 10 -15 -3 -15 -8 0 -17 7 -21
15 -3 8 -2 15 3 15 5 0 14 -7 21 -15z m830 -45 c0 -52 2 -60 19 -60 10 0 22 8
26 18 6 15 8 14 16 -7 6 -14 8 -30 5 -37 -5 -14 -51 -7 -64 10 -14 17 -24 136
-12 136 6 0 10 -27 10 -60z m3134 25 c16 -14 40 -25 53 -25 26 0 27 -3 13 -30
-8 -16 -8 -18 5 -14 9 4 17 -1 21 -11 5 -13 14 -15 36 -11 24 5 31 2 35 -14 7
-26 23 -26 30 0 3 11 9 20 14 20 5 0 9 -9 9 -20 0 -16 7 -20 30 -20 24 0 33 6
42 28 9 21 12 23 15 10 3 -10 9 -18 14 -18 5 0 13 8 16 18 6 14 8 13 13 -8 l6
-25 17 30 c9 17 16 24 17 17 0 -8 8 -10 25 -6 15 4 25 2 25 -5 0 -13 -46 -44
-72 -48 -10 -2 -32 -10 -48 -18 -16 -8 -41 -15 -55 -15 -23 0 -24 -2 -15 -20
7 -13 21 -20 41 -20 41 0 33 -22 -12 -32 -19 -3 -74 -8 -123 -9 -74 -2 -90 0
-101 14 -7 9 -24 17 -39 17 -30 0 -47 27 -25 40 7 5 10 12 7 16 -4 3 -1 13 7
21 16 15 21 73 7 73 -5 0 -21 -13 -37 -30 -34 -35 -45 -38 -45 -10 0 12 5 17
14 14 9 -4 14 2 15 18 0 13 1 40 2 61 0 20 4 37 7 37 4 0 20 -11 36 -25z
m-2607 -21 c2 -6 -8 -16 -22 -22 -22 -10 -25 -9 -25 7 0 10 3 21 7 25 10 9 36
3 40 -10z m-9307 -13 c0 -5 -7 -11 -15 -15 -15 -5 -20 5 -8 17 9 10 23 9 23
-2z m9356 -30 c-4 -5 -13 -8 -22 -4 -11 4 -12 8 -3 20 14 16 36 2 25 -16z m84
5 c0 -2 -7 -9 -15 -16 -12 -10 -15 -10 -15 4 0 9 7 16 15 16 8 0 15 -2 15 -4z
m1567 -28 c-3 -7 -5 -2 -5 12 0 14 2 19 5 13 2 -7 2 -19 0 -25z m-1014 15 c-7
-2 -21 -2 -30 0 -10 3 -4 5 12 5 17 0 24 -2 18 -5z m-8932 -50 c28 -64 45 -81
85 -89 19 -3 34 -12 34 -18 0 -7 43 -58 96 -114 83 -89 93 -102 71 -102 -13 0
-36 9 -50 20 -14 11 -28 20 -32 20 -6 0 -71 48 -101 75 -8 7 -4 15 13 28 25
20 22 37 -7 37 -10 0 -20 5 -22 12 -2 6 -24 11 -51 11 -43 0 -52 6 -48 30 0 4
-6 7 -14 7 -8 0 -15 5 -15 11 0 6 -7 17 -15 25 -20 21 -19 31 5 39 16 5 18 10
10 24 -9 18 -4 31 11 31 5 0 18 -21 30 -47z m-1104 22 c7 -20 -20 -41 -71 -54
l-39 -10 39 40 c41 42 61 48 71 24z m10123 -30 c0 -20 8 -47 17 -62 13 -20 14
-25 3 -21 -25 8 -53 118 -30 118 6 0 10 -16 10 -35z m1082 -15 c5 0 11 0 16 0
4 0 7 5 7 10 0 6 3 10 8 10 4 0 15 0 26 0 19 0 29 -20 37 -73 3 -23 2 -26 -10
-15 -7 7 -11 18 -9 25 3 7 -3 10 -16 6 -13 -3 -21 -1 -21 7 0 7 -12 3 -29 -9
-30 -22 -76 -28 -86 -12 -3 5 -1 12 5 16 18 11 0 25 -30 25 -19 0 -33 7 -40
19 -13 25 -13 42 1 19 12 -22 29 -23 29 -3 0 22 17 18 23 -5 3 -11 13 -20 22
-20 12 0 16 6 12 20 -7 28 16 31 33 4 8 -13 18 -24 22 -24z m-1157 -30 c-10
-20 -23 -30 -38 -30 -21 1 -21 1 6 21 17 13 27 30 27 47 1 23 2 24 11 10 7
-13 5 -26 -6 -48z m-9085 16 c0 13 3 14 15 4 21 -17 19 -27 -6 -33 -17 -5 -20
-11 -17 -31 5 -24 2 -26 -27 -26 -78 0 -127 24 -140 70 -6 20 -5 23 6 13 20
-19 109 -17 109 2 0 14 3 14 30 0 27 -14 30 -14 30 1z m9226 -32 c-4 -9 -9
-15 -11 -12 -3 3 -3 13 1 22 4 9 9 15 11 12 3 -3 3 -13 -1 -22z m-1331 -44
c30 -59 30 -60 8 -60 -36 1 -53 25 -53 74 0 57 11 53 45 -14z m-8700 40 c-3
-6 -21 -17 -38 -26 l-32 -16 30 26 c31 26 51 34 40 16z m9245 -25 c0 -19 -27
-26 -40 -9 -18 20 6 50 26 33 8 -6 14 -17 14 -24z m60 19 c0 -8 -4 -12 -10 -9
-5 3 -10 10 -10 16 0 5 5 9 10 9 6 0 10 -7 10 -16z m-7010 -150 c0 -19 -30
-18 -58 2 -16 11 -22 25 -22 55 l0 39 40 -41 c22 -23 40 -48 40 -55z m8900 36
c24 0 40 -43 24 -65 -13 -17 -14 -17 -22 4 -4 12 -12 22 -17 21 -6 0 -12 7
-14 17 -1 10 -10 27 -20 37 -16 19 -15 19 9 3 13 -9 31 -17 40 -17z m-87 -26
c-13 -26 -10 -50 5 -46 14 3 16 -14 2 -23 -5 -3 -10 -1 -10 4 0 6 -3 10 -7 9
-21 -5 -73 16 -93 37 -27 29 -21 42 10 25 17 -9 24 -9 30 0 5 8 9 7 13 -4 11
-27 37 -19 37 11 0 20 3 24 11 16 7 -7 8 -18 2 -29z m-2125 -9 c18 -6 20 -10
11 -21 -9 -11 -6 -14 16 -14 31 0 30 -24 -1 -27 -22 -3 -56 22 -73 55 -13 24
-8 24 47 7z m102 -50 c-13 -16 -40 -20 -40 -7 0 14 12 22 33 22 16 0 17 -3 7
-15z m2770 0 c-6 -8 -9 -18 -6 -24 3 -5 -3 -20 -14 -32 -17 -21 -19 -22 -20
-6 0 24 28 77 41 77 8 0 8 -5 -1 -15z m-11816 -10 c-21 -16 -54 -20 -54 -6 0
10 22 18 54 20 20 1 20 1 0 -14z m925 -18 c5 -13 24 -37 43 -53 l34 -30 -38
-12 c-42 -13 -147 -16 -164 -4 -13 9 -25 52 -14 52 4 0 13 -7 20 -15 12 -14
58 -11 70 5 3 3 14 10 25 14 19 7 18 9 -13 37 l-32 29 30 0 c23 0 33 -6 39
-23z m1266 13 c3 -5 -3 -10 -14 -10 -12 0 -21 5 -21 10 0 6 6 10 14 10 8 0 18
-4 21 -10z m9693 -40 c5 0 17 9 27 20 26 28 35 25 29 -10 -8 -36 3 -38 41 -8
28 21 28 21 16 0 -13 -25 -7 -29 37 -26 21 1 35 -3 39 -12 3 -8 17 -14 31 -14
23 0 24 -2 12 -14 -18 -16 -119 -51 -177 -61 -35 -5 -50 -3 -78 15 -26 16 -35
18 -35 8 0 -8 5 -19 11 -25 9 -9 6 -10 -10 -6 -32 8 -36 28 -12 55 12 12 20
31 19 43 -2 12 2 19 10 17 8 -1 13 5 12 15 -4 36 1 48 10 26 5 -13 13 -23 18
-23z m-3211 -21 c8 -3 9 -9 3 -19 -7 -12 -12 -12 -29 4 -12 11 -21 26 -21 34
0 13 2 13 18 0 9 -9 22 -17 29 -19z m-6429 -9 c7 0 12 -4 12 -10 0 -5 -5 -10
-12 -10 -15 0 -48 30 -48 43 0 6 8 3 18 -6 10 -10 24 -17 30 -17z m6678 13
c10 -36 154 -64 154 -30 0 6 3 7 7 4 3 -4 -1 -15 -11 -26 -9 -10 -16 -25 -14
-32 2 -9 -8 -15 -29 -17 -26 -3 -33 1 -33 14 0 12 -6 15 -27 11 -42 -8 -73 8
-73 38 0 14 -4 25 -10 25 -5 0 -7 7 -4 15 8 21 35 19 40 -2z m-6781 -43 c-8
-13 32 -58 64 -71 23 -9 23 -10 6 -29 -25 -28 -55 -21 -99 23 -32 32 -36 40
-25 54 7 8 22 19 34 23 27 12 27 12 20 0z m2245 -30 c-13 -10 -41 -23 -62 -29
-20 -6 -40 -16 -43 -21 -10 -16 61 -11 75 5 15 18 46 20 56 3 13 -20 12 -48
-1 -48 -7 0 -26 -3 -42 -6 -20 -4 -35 -1 -46 11 -14 13 -23 14 -56 5 -33 -9
-48 -7 -91 10 -57 22 -100 48 -100 60 0 15 74 18 91 4 8 -8 30 -14 48 -14 28
0 33 3 28 20 -4 17 -2 18 14 9 14 -7 19 -6 19 2 0 8 18 10 60 6 39 -3 60 -1
60 6 0 6 3 7 7 3 4 -4 -3 -16 -17 -26z m6586 10 c8 0 14 -6 14 -14 0 -26 -17
-26 -41 1 -13 14 -18 23 -11 19 7 -4 12 -2 13 6 0 10 2 10 6 1 2 -7 11 -13 19
-13z m-1851 -20 c3 -5 -1 -10 -10 -10 -9 0 -13 -4 -10 -10 3 -5 -1 -10 -9 -10
-9 0 -16 9 -16 20 0 21 33 29 45 10z m1979 4 c20 -8 21 -24 2 -24 -8 0 -16 7
-20 15 -6 17 -4 18 18 9z m-9038 -19 c-3 -8 -1 -15 3 -15 5 0 7 -8 4 -19 -4
-16 -81 -57 -89 -48 -2 2 -1 13 3 25 3 15 13 22 29 22 17 0 27 8 34 25 5 14
12 25 16 25 3 0 4 -7 0 -15z m-1936 -38 c25 7 26 -9 1 -31 -17 -15 -19 -15
-25 -1 -7 19 -7 56 0 39 3 -7 14 -10 24 -7z m10220 -12 c7 -8 18 -15 24 -15
15 0 86 -74 86 -90 0 -7 8 -10 20 -7 13 3 20 0 20 -9 0 -8 9 -14 20 -14 31 0
23 -18 -11 -25 -20 -5 -41 -2 -57 6 -20 11 -26 11 -29 2 -3 -7 -17 -13 -31
-13 l-27 0 24 -19 24 -19 -21 -11 c-11 -6 -35 -11 -52 -11 l-31 0 16 30 c15
29 15 33 -4 64 -25 40 -27 66 -5 66 10 0 14 6 11 14 -3 8 -1 17 6 19 9 3 9 8
0 18 -7 7 -13 17 -13 21 0 13 17 9 30 -7z m-2430 -37 c0 -32 -3 -39 -10 -28
-13 20 -13 70 0 70 6 0 10 -19 10 -42z m717 0 c-3 -7 -5 -2 -5 12 0 14 2 19 5
13 2 -7 2 -19 0 -25z m-4187 2 c0 -5 -5 -10 -11 -10 -5 0 -7 5 -4 10 3 6 8 10
11 10 2 0 4 -4 4 -10z m-2344 -45 c-8 -21 3 -45 20 -45 8 0 14 -4 14 -10 0 -5
-15 -10 -32 -10 -25 0 -29 -3 -18 -10 8 -5 32 -10 53 -10 20 0 37 -4 37 -10 0
-5 -4 -10 -10 -10 -16 0 -12 -50 5 -56 18 -7 19 -31 3 -67 -14 -29 -31 -29
-75 -1 -17 11 -23 24 -23 52 -1 34 -2 35 -14 19 -12 -15 -18 -16 -35 -7 -12 6
-21 20 -21 30 0 11 -4 20 -10 20 -5 0 -10 -4 -10 -9 0 -5 -20 -30 -45 -56 -37
-40 -47 -46 -60 -35 -11 9 -12 17 -5 30 6 10 10 31 10 46 l0 27 -26 -24 -26
-24 4 24 c5 34 49 63 106 69 37 3 61 13 98 43 53 41 69 48 60 24z m8040 -62
c-29 -24 -47 -26 -54 -5 -2 7 3 12 12 12 10 0 16 9 16 23 0 34 9 38 32 15 l21
-21 -27 -24z m-5733 41 c4 -1 12 -2 17 -3 6 0 10 -5 10 -11 0 -5 -3 -9 -7 -8
-5 0 -15 -2 -24 -6 -8 -4 -29 -2 -45 4 l-29 12 25 13 c14 7 29 10 35 7 5 -4
13 -7 18 -8z m7453 8 c-2 -4 9 -17 25 -27 16 -11 29 -26 29 -32 0 -18 30 -16
52 4 24 22 23 2 -2 -30 -11 -14 -41 -32 -67 -41 -58 -20 -56 -20 -43 4 14 26
1 26 -48 2 -28 -15 -45 -17 -69 -10 -33 9 -46 28 -19 28 8 0 23 14 33 30 9 17
23 30 30 30 7 0 10 7 7 15 -5 11 -2 13 10 9 9 -3 16 -1 16 4 0 6 8 13 18 15
28 8 33 7 28 -1z m-1578 -44 c30 -30 -9 -57 -63 -44 -34 9 -31 24 8 41 40 18
40 18 55 3z m-2468 -2 c0 -3 -4 -8 -10 -11 -5 -3 -10 -1 -10 4 0 6 5 11 10 11
6 0 10 -2 10 -4z m97 -18 c-3 -8 -6 -5 -6 6 -1 11 2 17 5 13 3 -3 4 -12 1 -19z
m-274 -38 c9 0 21 8 26 18 9 14 12 15 20 3 8 -12 12 -12 24 -2 10 8 17 8 21 2
10 -15 -33 -38 -86 -45 -43 -6 -48 -5 -63 18 -23 35 -9 54 19 27 12 -12 30
-21 39 -21z m-3407 10 c11 0 34 -36 34 -54 0 -8 -86 27 -100 40 -12 12 -12 14
7 14 12 0 25 5 29 12 6 9 9 9 12 0 2 -7 10 -12 18 -12z m-5276 -40 c0 -5 -7
-10 -15 -10 -8 0 -15 5 -15 10 0 6 7 10 15 10 8 0 15 -4 15 -10z m5344 -5 c-4
-8 -11 -15 -16 -15 -6 0 -5 6 2 15 7 8 14 15 16 15 2 0 1 -7 -2 -15z m6284
-13 c2 -7 -4 -12 -13 -12 -13 0 -16 -6 -11 -23 5 -20 -1 -27 -33 -45 -21 -12
-51 -22 -66 -22 -26 0 -24 3 36 60 63 58 79 66 87 42z m-11604 -41 c-7 -7 -34
21 -28 31 3 5 12 1 19 -9 7 -10 12 -20 9 -22z m3039 9 c3 -11 -3 -30 -15 -45
-20 -26 -56 -50 -64 -42 -5 5 25 67 44 90 20 22 28 22 35 -3z m47 -95 c0 -16
6 -25 15 -25 8 0 15 -6 15 -14 0 -8 11 -28 25 -44 24 -29 33 -62 17 -62 -11 0
-122 79 -122 87 0 14 35 82 43 83 4 0 7 -11 7 -25z m544 -6 c-8 -14 -24 -10
-24 6 0 9 6 12 15 9 8 -4 12 -10 9 -15z m-2538 -34 c4 -11 14 -13 33 -8 24 6
25 5 12 -11 -19 -23 -63 -44 -78 -39 -7 3 -13 18 -13 34 0 18 4 28 10 24 6 -3
10 -1 10 4 0 16 20 13 26 -4z m10219 -31 c23 -15 25 -15 25 0 0 17 13 19 43 7
17 -6 14 -11 -22 -44 -33 -29 -49 -37 -80 -37 -38 0 -101 27 -101 43 0 11 18
9 39 -5 14 -9 26 -8 50 1 26 11 29 16 20 32 -12 23 -6 24 26 3z m-6287 -21
c15 -9 35 -23 45 -31 16 -14 16 -16 -3 -29 -17 -12 -24 -11 -52 3 -38 19 -68
43 -68 55 0 7 18 14 43 18 4 0 20 -7 35 -16z m6382 -11 c0 -5 -10 -17 -22 -28
-20 -18 -21 -18 -15 -1 4 10 7 23 7 28 0 5 7 9 15 9 8 0 15 -4 15 -8z m258 -5
c1 -4 -8 -13 -20 -21 -75 -45 -113 -56 -120 -36 -2 6 -21 4 -50 -5 -27 -8 -48
-13 -48 -11 0 8 40 48 40 40 0 -5 7 -1 14 9 12 15 14 16 20 2 9 -24 53 -19 60
8 7 21 8 21 15 3 7 -19 8 -19 15 -1 6 16 9 17 16 5 8 -12 10 -12 15 1 6 15 38
20 43 6z m-8638 -23 c9 -21 6 -29 -12 -45 -23 -18 -58 -26 -58 -11 0 9 49 82
56 82 2 0 9 -12 14 -26z m8422 0 c-24 -17 -39 -14 -27 5 3 6 16 11 28 11 l21
0 -22 -16z m-7667 -4 c3 -5 1 -10 -4 -10 -6 0 -11 5 -11 10 0 6 2 10 4 10 3 0
8 -4 11 -10z m1310 -40 c-3 -5 -11 -10 -16 -10 -6 0 -7 5 -4 10 3 6 11 10 16
10 6 0 7 -4 4 -10z m-1963 -82 c14 -21 15 -28 4 -37 -10 -8 -24 -2 -60 24 -50
39 -54 49 -31 75 15 16 18 16 43 -9 15 -14 35 -38 44 -53z m662 67 c-4 -8 -10
-15 -15 -15 -5 0 -9 7 -9 15 0 8 7 15 15 15 9 0 12 -6 9 -15z m5686 -25 c0
-18 5 -30 13 -30 8 0 20 -19 27 -42 7 -24 23 -56 36 -71 24 -29 31 -61 15 -71
-15 -10 -165 140 -158 158 3 8 2 18 -3 21 -9 6 48 64 63 65 4 0 7 -13 7 -30z
m-6456 -48 c9 -14 -23 -45 -40 -38 -16 6 -15 8 1 26 19 21 31 25 39 12z m789
-88 c-5 -14 -1 -16 18 -12 14 2 31 -1 37 -9 7 -7 11 -13 10 -13 -2 -1 -19 -3
-38 -5 -45 -6 -79 17 -60 40 17 21 41 20 33 -1z m5577 -2 c0 -10 -16 -34 -36
-53 -33 -32 -39 -34 -102 -34 -66 1 -128 20 -125 40 0 6 -4 19 -9 30 -9 16 -8
18 3 8 20 -19 109 -17 109 2 0 14 3 14 30 0 29 -15 30 -15 30 5 0 17 6 20 50
20 42 0 50 -3 50 -18z m2086 -28 c-10 -26 4 -37 25 -18 17 16 19 16 19 1 0
-15 18 -22 44 -18 4 1 14 -3 22 -10 7 -6 18 -8 24 -4 5 3 10 2 10 -3 0 -6 -7
-12 -15 -16 -8 -3 -15 0 -15 6 0 6 -6 5 -17 -3 -25 -22 -221 -18 -253 4 -21
14 -22 17 -6 17 12 0 16 5 12 15 -7 19 -1 19 28 -1 16 -10 26 -12 31 -4 3 6
10 8 15 5 5 -3 11 -1 15 5 3 5 14 10 25 10 10 0 20 7 24 15 3 8 8 15 12 15 3
0 3 -7 0 -16z m-8396 -29 c-10 -13 -10 -19 4 -33 21 -24 8 -37 -16 -15 -23 20
-23 49 -1 62 23 12 29 6 13 -14z m6319 -1 c-14 -18 -24 -11 -15 11 3 9 11 13
16 10 8 -5 7 -11 -1 -21z m-4409 -44 c6 0 10 6 10 13 0 12 39 -32 40 -45 0 -5
-7 -8 -15 -8 -16 0 -85 57 -85 71 0 5 9 0 20 -11 11 -11 25 -20 30 -20z m4430
15 c0 -8 -7 -15 -16 -15 -14 0 -14 3 -4 15 7 8 14 15 16 15 2 0 4 -7 4 -15z
m-4323 -27 c25 -24 33 -28 33 -15 0 21 9 21 34 2 11 -8 28 -15 39 -15 35 0 11
-25 -28 -28 -37 -3 -125 22 -125 36 0 4 -3 17 -6 30 -9 32 14 28 53 -10z
m3549 -33 c-11 -8 -25 -15 -30 -15 -6 0 -2 7 8 15 11 8 25 15 30 15 6 0 2 -7
-8 -15z m-4756 -38 c0 -2 -10 -12 -22 -23 l-23 -19 19 23 c18 21 26 27 26 19z
m5630 -31 c0 -7 9 -25 21 -40 11 -14 16 -26 10 -26 -6 0 -11 -7 -11 -15 0 -22
-13 -18 -41 11 -24 26 -27 57 -7 81 12 15 28 8 28 -11z m-5739 -29 c-11 -30
-22 -33 -53 -16 -20 11 -19 12 18 33 43 25 49 21 35 -17z m115 -13 c-11 -8
-27 -14 -35 -14 -9 0 -3 8 14 19 34 21 50 17 21 -5z m5475 -89 c14 1 31 5 38
9 17 11 21 4 14 -22 -7 -28 -58 -30 -90 -3 -27 23 -30 35 -5 23 9 -5 28 -8 43
-7z m-56 -25 c3 -5 1 -10 -4 -10 -6 0 -11 5 -11 10 0 6 2 10 4 10 3 0 8 -4 11
-10z m1055 -100 c5 0 10 -4 10 -10 0 -5 -6 -10 -14 -10 -15 0 -26 22 -25 48 0
12 3 10 9 -5 5 -13 14 -23 20 -23z m62 -1 l3 -31 27 21 c26 21 26 21 21 1 -3
-11 -1 -20 4 -20 12 0 10 -67 -2 -79 -6 -5 -32 -11 -60 -13 -45 -3 -50 -1 -53
19 -2 14 4 26 17 33 16 8 21 20 21 55 0 51 17 61 22 14z m-1776 -8 c-10 -11
-32 -25 -49 -32 -18 -7 -40 -19 -49 -27 -9 -8 -21 -11 -26 -8 -5 3 -7 -5 -5
-19 4 -20 2 -23 -16 -18 -22 5 -29 23 -10 23 6 0 8 8 4 19 -3 12 0 21 10 25 8
3 15 12 15 21 0 8 5 15 10 15 6 0 10 -4 10 -10 0 -18 17 -10 28 13 8 17 11 18
11 5 1 -22 17 -24 24 -4 5 13 45 26 56 19 2 -2 -4 -11 -13 -22z m-4254 -91
c-6 -70 -6 -70 -88 -70 -41 0 -74 3 -74 8 0 4 10 21 21 37 12 17 19 22 15 13
-8 -26 19 -22 41 5 10 13 24 22 31 19 8 -2 12 8 12 32 l0 36 22 -22 c16 -16
21 -32 20 -58z m4068 45 c16 -5 18 -9 7 -25 -11 -19 -13 -19 -29 -2 -12 12
-15 25 -11 42 5 18 8 21 11 8 2 -9 12 -20 22 -23z m2136 -10 c-25 -19 -36 -19
-36 0 0 10 10 15 28 15 26 -1 26 -1 8 -15z m-7634 -52 c22 9 45 14 50 11 5 -3
22 -1 38 6 25 10 32 10 47 -6 13 -12 14 -16 3 -12 -8 3 -23 -1 -32 -9 -14 -12
-23 -13 -49 -4 -46 16 -52 14 -45 -14 5 -20 3 -25 -11 -25 -21 0 -152 62 -153
72 -1 18 48 11 78 -11 32 -23 34 -23 74 -8z m5608 23 c0 -3 -4 -8 -10 -11 -5
-3 -10 -1 -10 4 0 6 5 11 10 11 6 0 10 -2 10 -4z m-4000 -68 c0 -5 -7 -8 -15
-8 -15 0 -20 21 -8 33 7 7 23 -11 23 -25z m1205 2 c3 -5 1 -10 -4 -10 -6 0
-11 5 -11 10 0 6 2 10 4 10 3 0 8 -4 11 -10z"/>
<path d="M15910 6463 c0 -5 16 -35 35 -68 l34 -60 1 37 c0 25 -8 46 -26 67
-24 29 -44 40 -44 24z"/>
<path d="M15910 6351 c0 -25 -9 -26 -36 -6 -10 8 -22 15 -26 15 -15 0 -8 -42
12 -67 22 -28 26 -58 10 -68 -5 -3 -10 -13 -10 -21 0 -11 8 -14 28 -12 22 2
28 -1 30 -21 4 -25 -3 -25 -50 -6 -27 11 -22 -15 9 -47 21 -22 23 -28 10 -28
-9 0 -17 -7 -17 -15 0 -23 -18 -18 -71 20 -27 19 -54 35 -59 35 -20 0 -10 -39
15 -58 l25 -20 -25 -6 c-34 -9 -31 -33 5 -41 17 -4 27 -11 24 -16 -3 -6 2 -19
12 -30 16 -18 16 -19 -3 -19 -10 0 -28 -6 -38 -14 -17 -12 -17 -16 -6 -30 9
-10 21 -14 34 -10 10 3 30 0 43 -7 19 -10 27 -10 36 -1 7 7 19 12 27 12 12 0
11 -3 -2 -18 -10 -10 -17 -24 -17 -30 0 -16 23 -15 38 0 9 9 12 6 12 -15 0
-15 5 -27 10 -27 6 0 10 5 10 10 0 6 6 10 14 10 22 0 26 34 26 223 0 142 -3
184 -16 208 -8 17 -18 49 -22 71 -8 43 -32 65 -32 29z"/>
<path d="M15628 5828 c-2 -19 -10 -24 -45 -26 -29 -2 -43 -8 -43 -17 0 -21 68
-47 105 -39 30 6 30 6 8 -11 -20 -14 -33 -55 -17 -55 11 0 46 22 66 42 11 11
22 17 25 14 3 -3 -4 -13 -16 -23 -19 -16 -20 -21 -9 -45 15 -32 21 -34 38 -13
7 8 19 15 28 15 8 0 24 7 34 17 10 9 18 11 18 5 0 -6 -14 -22 -32 -36 -28 -21
-30 -26 -15 -32 9 -3 24 -1 32 6 12 10 15 9 15 -4 0 -21 17 -20 29 2 6 10 23
19 43 20 53 4 83 32 86 83 l3 44 -55 -3 c-50 -3 -95 12 -116 39 -3 3 -15 9
-27 13 -28 9 -32 -18 -6 -33 10 -5 15 -12 11 -16 -8 -9 -79 28 -102 54 -25 28
-54 27 -58 -1z"/>
<path d="M5905 3080 c-3 -5 1 -10 9 -10 9 0 16 5 16 10 0 6 -4 10 -9 10 -6 0
-13 -4 -16 -10z"/>
<path d="M10490 2907 c0 -18 24 -39 33 -30 12 11 8 22 -13 33 -16 8 -20 8 -20
-3z"/>
<path d="M10715 2810 c-10 -11 -16 -22 -13 -25 3 -3 13 4 23 15 10 11 16 22
13 25 -3 3 -13 -4 -23 -15z"/>
<path d="M7731 2154 c-15 -11 -19 -20 -13 -26 12 -12 28 -4 42 23 13 23 2 24
-29 3z"/>
</g>
</svg>
